<ttFont>
    <TTGlyph name="A" xMin="24" yMin="0" xMax="572" yMax="692">
      <contour>
        <pt x="24" y="0" on="1"/>
        <pt x="214" y="692" on="1"/>
        <pt x="382" y="692" on="1"/>
        <pt x="572" y="0" on="1"/>
        <pt x="496" y="0" on="1"/>
        <pt x="446" y="178" on="1"/>
        <pt x="150" y="178" on="1"/>
        <pt x="100" y="0" on="1"/>
      </contour>
      <contour>
        <pt x="272" y="626" on="1"/>
        <pt x="167" y="247" on="1"/>
        <pt x="429" y="247" on="1"/>
        <pt x="324" y="626" on="1"/>
      </contour>
    </TTGlyph>
    <TTGlyph name="AE" xMin="20" yMin="0" xMax="829" yMax="696">
      <contour>
        <pt x="408" y="0" on="1"/>
        <pt x="408" y="175" on="1"/>
        <pt x="157" y="175" on="1"/>
        <pt x="99" y="0" on="1"/>
        <pt x="20" y="0" on="1"/>
        <pt x="244" y="696" on="1"/>
        <pt x="829" y="696" on="1"/>
        <pt x="829" y="623" on="1"/>
        <pt x="484" y="623" on="1"/>
        <pt x="484" y="393" on="1"/>
        <pt x="769" y="393" on="1"/>
        <pt x="769" y="320" on="1"/>
        <pt x="484" y="320" on="1"/>
        <pt x="484" y="73" on="1"/>
        <pt x="829" y="73" on="1"/>
        <pt x="829" y="0" on="1"/>
      </contour>
      <contour>
        <pt x="300" y="623" on="1"/>
        <pt x="178" y="249" on="1"/>
        <pt x="408" y="249" on="1"/>
        <pt x="409" y="623" on="1"/>
      </contour>
    </TTGlyph>
    <TTGlyph name="AEacute" xMin="20" yMin="0" xMax="829" yMax="931">
      <contour>
        <pt x="408" y="0" on="1"/>
        <pt x="408" y="175" on="1"/>
        <pt x="157" y="175" on="1"/>
        <pt x="99" y="0" on="1"/>
        <pt x="20" y="0" on="1"/>
        <pt x="244" y="696" on="1"/>
        <pt x="829" y="696" on="1"/>
        <pt x="829" y="623" on="1"/>
        <pt x="484" y="623" on="1"/>
        <pt x="484" y="393" on="1"/>
        <pt x="769" y="393" on="1"/>
        <pt x="769" y="320" on="1"/>
        <pt x="484" y="320" on="1"/>
        <pt x="484" y="73" on="1"/>
        <pt x="829" y="73" on="1"/>
        <pt x="829" y="0" on="1"/>
      </contour>
      <contour>
        <pt x="300" y="623" on="1"/>
        <pt x="178" y="249" on="1"/>
        <pt x="408" y="249" on="1"/>
        <pt x="409" y="623" on="1"/>
      </contour>
      <contour>
        <pt x="413" y="831" on="1"/>
        <pt x="629" y="931" on="1"/>
        <pt x="655" y="865" on="1"/>
        <pt x="436" y="778" on="1"/>
      </contour>
    </TTGlyph>
    <TTGlyph name="Aacute" xMin="24" yMin="0" xMax="572" yMax="931">
      <contour>
        <pt x="24" y="0" on="1"/>
        <pt x="214" y="692" on="1"/>
        <pt x="382" y="692" on="1"/>
        <pt x="572" y="0" on="1"/>
        <pt x="496" y="0" on="1"/>
        <pt x="446" y="178" on="1"/>
        <pt x="150" y="178" on="1"/>
        <pt x="100" y="0" on="1"/>
      </contour>
      <contour>
        <pt x="272" y="626" on="1"/>
        <pt x="167" y="247" on="1"/>
        <pt x="429" y="247" on="1"/>
        <pt x="324" y="626" on="1"/>
      </contour>
      <contour>
        <pt x="186" y="831" on="1"/>
        <pt x="402" y="931" on="1"/>
        <pt x="428" y="865" on="1"/>
        <pt x="209" y="778" on="1"/>
      </contour>
    </TTGlyph>
    <TTGlyph name="Abreve" xMin="24" yMin="0" xMax="572" yMax="918">
      <contour>
        <pt x="24" y="0" on="1"/>
        <pt x="214" y="692" on="1"/>
        <pt x="382" y="692" on="1"/>
        <pt x="572" y="0" on="1"/>
        <pt x="496" y="0" on="1"/>
        <pt x="446" y="178" on="1"/>
        <pt x="150" y="178" on="1"/>
        <pt x="100" y="0" on="1"/>
      </contour>
      <contour>
        <pt x="272" y="626" on="1"/>
        <pt x="167" y="247" on="1"/>
        <pt x="429" y="247" on="1"/>
        <pt x="324" y="626" on="1"/>
      </contour>
      <contour>
        <pt x="209" y="885" on="0"/>
        <pt x="260" y="843" on="0"/>
        <pt x="333" y="843" on="0"/>
        <pt x="383" y="885" on="0"/>
        <pt x="384" y="918" on="1"/>
        <pt x="454" y="918" on="1"/>
        <pt x="451" y="859" on="0"/>
        <pt x="365" y="787" on="0"/>
        <pt x="227" y="787" on="0"/>
        <pt x="142" y="859" on="0"/>
        <pt x="139" y="918" on="1"/>
        <pt x="208" y="918" on="1"/>
      </contour>
    </TTGlyph>
    <TTGlyph name="Acircumflex" xMin="24" yMin="0" xMax="572" yMax="926">
      <contour>
        <pt x="24" y="0" on="1"/>
        <pt x="214" y="692" on="1"/>
        <pt x="382" y="692" on="1"/>
        <pt x="572" y="0" on="1"/>
        <pt x="496" y="0" on="1"/>
        <pt x="446" y="178" on="1"/>
        <pt x="150" y="178" on="1"/>
        <pt x="100" y="0" on="1"/>
      </contour>
      <contour>
        <pt x="272" y="626" on="1"/>
        <pt x="167" y="247" on="1"/>
        <pt x="429" y="247" on="1"/>
        <pt x="324" y="626" on="1"/>
      </contour>
      <contour>
        <pt x="130" y="791" on="1"/>
        <pt x="264" y="926" on="1"/>
        <pt x="329" y="926" on="1"/>
        <pt x="463" y="791" on="1"/>
        <pt x="379" y="791" on="1"/>
        <pt x="297" y="871" on="1"/>
        <pt x="214" y="791" on="1"/>
      </contour>
    </TTGlyph>
    <TTGlyph name="Adieresis" xMin="24" yMin="0" xMax="572" yMax="898">
      <contour>
        <pt x="24" y="0" on="1"/>
        <pt x="214" y="692" on="1"/>
        <pt x="382" y="692" on="1"/>
        <pt x="572" y="0" on="1"/>
        <pt x="496" y="0" on="1"/>
        <pt x="446" y="178" on="1"/>
        <pt x="150" y="178" on="1"/>
        <pt x="100" y="0" on="1"/>
      </contour>
      <contour>
        <pt x="272" y="626" on="1"/>
        <pt x="167" y="247" on="1"/>
        <pt x="429" y="247" on="1"/>
        <pt x="324" y="626" on="1"/>
      </contour>
      <contour>
        <pt x="159" y="808" on="1"/>
        <pt x="159" y="898" on="1"/>
        <pt x="232" y="898" on="1"/>
        <pt x="232" y="808" on="1"/>
      </contour>
      <contour>
        <pt x="363" y="808" on="1"/>
        <pt x="363" y="898" on="1"/>
        <pt x="435" y="898" on="1"/>
        <pt x="435" y="808" on="1"/>
      </contour>
    </TTGlyph>
    <TTGlyph name="Agrave" xMin="24" yMin="0" xMax="572" yMax="931">
      <contour>
        <pt x="24" y="0" on="1"/>
        <pt x="214" y="692" on="1"/>
        <pt x="382" y="692" on="1"/>
        <pt x="572" y="0" on="1"/>
        <pt x="496" y="0" on="1"/>
        <pt x="446" y="178" on="1"/>
        <pt x="150" y="178" on="1"/>
        <pt x="100" y="0" on="1"/>
      </contour>
      <contour>
        <pt x="272" y="626" on="1"/>
        <pt x="167" y="247" on="1"/>
        <pt x="429" y="247" on="1"/>
        <pt x="324" y="626" on="1"/>
      </contour>
      <contour>
        <pt x="189" y="931" on="1"/>
        <pt x="405" y="831" on="1"/>
        <pt x="382" y="778" on="1"/>
        <pt x="163" y="865" on="1"/>
      </contour>
    </TTGlyph>
    <TTGlyph name="Amacron" xMin="24" yMin="0" xMax="572" yMax="870">
      <contour>
        <pt x="24" y="0" on="1"/>
        <pt x="214" y="692" on="1"/>
        <pt x="382" y="692" on="1"/>
        <pt x="572" y="0" on="1"/>
        <pt x="496" y="0" on="1"/>
        <pt x="446" y="178" on="1"/>
        <pt x="150" y="178" on="1"/>
        <pt x="100" y="0" on="1"/>
      </contour>
      <contour>
        <pt x="272" y="626" on="1"/>
        <pt x="167" y="247" on="1"/>
        <pt x="429" y="247" on="1"/>
        <pt x="324" y="626" on="1"/>
      </contour>
      <contour>
        <pt x="141" y="812" on="1"/>
        <pt x="141" y="870" on="1"/>
        <pt x="452" y="870" on="1"/>
        <pt x="452" y="812" on="1"/>
      </contour>
    </TTGlyph>
    <TTGlyph name="Aogonek" xMin="24" yMin="-206" xMax="592" yMax="692">
      <contour>
        <pt x="494" y="-102" on="1"/>
        <pt x="494" y="-121" on="0"/>
        <pt x="517" y="-145" on="0"/>
        <pt x="535" y="-145" on="1"/>
        <pt x="585" y="-139" on="1"/>
        <pt x="592" y="-197" on="1"/>
        <pt x="547" y="-206" on="0"/>
        <pt x="473" y="-206" on="0"/>
        <pt x="421" y="-159" on="0"/>
        <pt x="421" y="-88" on="0"/>
        <pt x="471" y="-21" on="0"/>
        <pt x="496" y="1" on="1"/>
        <pt x="446" y="178" on="1"/>
        <pt x="150" y="178" on="1"/>
        <pt x="100" y="0" on="1"/>
        <pt x="24" y="0" on="1"/>
        <pt x="214" y="692" on="1"/>
        <pt x="382" y="692" on="1"/>
        <pt x="572" y="0" on="1"/>
        <pt x="564" y="0" on="1"/>
        <pt x="494" y="-70" on="0"/>
      </contour>
      <contour>
        <pt x="272" y="626" on="1"/>
        <pt x="167" y="247" on="1"/>
        <pt x="429" y="247" on="1"/>
        <pt x="324" y="626" on="1"/>
      </contour>
    </TTGlyph>
    <TTGlyph name="Aring" xMin="24" yMin="0" xMax="572" yMax="849">
      <contour>
        <pt x="349" y="849" on="0"/>
        <pt x="415" y="793" on="0"/>
        <pt x="415" y="701" on="0"/>
        <pt x="387" y="671" on="1"/>
        <pt x="572" y="0" on="1"/>
        <pt x="496" y="0" on="1"/>
        <pt x="446" y="178" on="1"/>
        <pt x="150" y="178" on="1"/>
        <pt x="100" y="0" on="1"/>
        <pt x="24" y="0" on="1"/>
        <pt x="208" y="669" on="1"/>
        <pt x="178" y="697" on="0"/>
        <pt x="178" y="793" on="0"/>
        <pt x="245" y="849" on="0"/>
      </contour>
      <contour>
        <pt x="272" y="626" on="1"/>
        <pt x="167" y="247" on="1"/>
        <pt x="429" y="247" on="1"/>
        <pt x="324" y="626" on="1"/>
      </contour>
      <contour>
        <pt x="235" y="744" on="1"/>
        <pt x="235" y="700" on="0"/>
        <pt x="278" y="692" on="1"/>
        <pt x="315" y="692" on="1"/>
        <pt x="359" y="700" on="0"/>
        <pt x="359" y="744" on="1"/>
        <pt x="359" y="769" on="0"/>
        <pt x="326" y="797" on="0"/>
        <pt x="297" y="797" on="1"/>
        <pt x="235" y="797" on="0"/>
      </contour>
    </TTGlyph>
    <TTGlyph name="Aringacute" xMin="24" yMin="0" xMax="572" yMax="1024">
      <contour>
        <pt x="350" y="851" on="0"/>
        <pt x="416" y="795" on="0"/>
        <pt x="416" y="701" on="0"/>
        <pt x="387" y="672" on="1"/>
        <pt x="572" y="0" on="1"/>
        <pt x="496" y="0" on="1"/>
        <pt x="446" y="178" on="1"/>
        <pt x="150" y="178" on="1"/>
        <pt x="100" y="0" on="1"/>
        <pt x="24" y="0" on="1"/>
        <pt x="208" y="671" on="1"/>
        <pt x="179" y="700" on="0"/>
        <pt x="179" y="795" on="0"/>
        <pt x="246" y="851" on="0"/>
      </contour>
      <contour>
        <pt x="272" y="626" on="1"/>
        <pt x="167" y="247" on="1"/>
        <pt x="429" y="247" on="1"/>
        <pt x="324" y="626" on="1"/>
      </contour>
      <contour>
        <pt x="170" y="924" on="1"/>
        <pt x="386" y="1024" on="1"/>
        <pt x="412" y="958" on="1"/>
        <pt x="193" y="871" on="1"/>
      </contour>
      <contour>
        <pt x="236" y="746" on="1"/>
        <pt x="236" y="721" on="0"/>
        <pt x="269" y="692" on="0"/>
        <pt x="327" y="692" on="0"/>
        <pt x="360" y="721" on="0"/>
        <pt x="360" y="771" on="0"/>
        <pt x="327" y="799" on="0"/>
        <pt x="298" y="799" on="1"/>
        <pt x="236" y="799" on="0"/>
      </contour>
    </TTGlyph>
    <TTGlyph name="Atilde" xMin="24" yMin="0" xMax="572" yMax="923">
      <contour>
        <pt x="24" y="0" on="1"/>
        <pt x="214" y="692" on="1"/>
        <pt x="382" y="692" on="1"/>
        <pt x="572" y="0" on="1"/>
        <pt x="496" y="0" on="1"/>
        <pt x="446" y="178" on="1"/>
        <pt x="150" y="178" on="1"/>
        <pt x="100" y="0" on="1"/>
      </contour>
      <contour>
        <pt x="272" y="626" on="1"/>
        <pt x="167" y="247" on="1"/>
        <pt x="429" y="247" on="1"/>
        <pt x="324" y="626" on="1"/>
      </contour>
      <contour>
        <pt x="374" y="803" on="1"/>
        <pt x="353" y="803" on="0"/>
        <pt x="229" y="857" on="0"/>
        <pt x="216" y="857" on="1"/>
        <pt x="194" y="857" on="0"/>
        <pt x="155" y="821" on="1"/>
        <pt x="142" y="809" on="1"/>
        <pt x="125" y="865" on="1"/>
        <pt x="144" y="887" on="0"/>
        <pt x="196" y="923" on="0"/>
        <pt x="242" y="923" on="0"/>
        <pt x="364" y="869" on="0"/>
        <pt x="374" y="869" on="1"/>
        <pt x="394" y="869" on="0"/>
        <pt x="432" y="904" on="1"/>
        <pt x="444" y="915" on="1"/>
        <pt x="462" y="859" on="1"/>
        <pt x="415" y="803" on="0"/>
      </contour>
    </TTGlyph>
    <TTGlyph name="B" xMin="85" yMin="0" xMax="563" yMax="692">
      <contour>
        <pt x="85" y="692" on="1"/>
        <pt x="336" y="692" on="1"/>
        <pt x="439" y="692" on="0"/>
        <pt x="542" y="607" on="0"/>
        <pt x="542" y="516" on="1"/>
        <pt x="542" y="451" on="0"/>
        <pt x="497" y="378" on="0"/>
        <pt x="453" y="357" on="1"/>
        <pt x="563" y="319" on="0"/>
        <pt x="563" y="194" on="1"/>
        <pt x="563" y="90" on="0"/>
        <pt x="453" y="0" on="0"/>
        <pt x="349" y="0" on="1"/>
        <pt x="85" y="0" on="1"/>
      </contour>
      <contour>
        <pt x="341" y="318" on="1"/>
        <pt x="162" y="318" on="1"/>
        <pt x="162" y="68" on="1"/>
        <pt x="346" y="68" on="1"/>
        <pt x="414" y="68" on="0"/>
        <pt x="485" y="125" on="0"/>
        <pt x="485" y="197" on="1"/>
        <pt x="485" y="235" on="0"/>
        <pt x="456" y="287" on="0"/>
        <pt x="432" y="298" on="1"/>
        <pt x="388" y="318" on="0"/>
      </contour>
      <contour>
        <pt x="333" y="624" on="1"/>
        <pt x="162" y="624" on="1"/>
        <pt x="162" y="385" on="1"/>
        <pt x="340" y="385" on="1"/>
        <pt x="404" y="385" on="0"/>
        <pt x="463" y="446" on="0"/>
        <pt x="463" y="569" on="0"/>
        <pt x="400" y="624" on="0"/>
      </contour>
    </TTGlyph>
    <TTGlyph name="C" xMin="59" yMin="-10" xMax="503" yMax="702">
      <contour>
        <pt x="503" y="11" on="1"/>
        <pt x="400" y="-10" on="0"/>
        <pt x="236" y="-10" on="0"/>
        <pt x="135" y="35" on="0"/>
        <pt x="80" y="130" on="0"/>
        <pt x="59" y="253" on="0"/>
        <pt x="59" y="437" on="0"/>
        <pt x="80" y="562" on="0"/>
        <pt x="135" y="658" on="0"/>
        <pt x="235" y="702" on="0"/>
        <pt x="395" y="702" on="0"/>
        <pt x="503" y="680" on="1"/>
        <pt x="500" y="615" on="1"/>
        <pt x="399" y="633" on="0"/>
        <pt x="320" y="633" on="1"/>
        <pt x="210" y="633" on="0"/>
        <pt x="139" y="502" on="0"/>
        <pt x="139" y="344" on="1"/>
        <pt x="139" y="265" on="0"/>
        <pt x="152" y="169" on="0"/>
        <pt x="190" y="92" on="0"/>
        <pt x="263" y="59" on="0"/>
        <pt x="404" y="59" on="0"/>
        <pt x="500" y="77" on="1"/>
      </contour>
    </TTGlyph>
    <TTGlyph name="Cacute" xMin="59" yMin="-10" xMax="503" yMax="931">
      <contour>
        <pt x="503" y="11" on="1"/>
        <pt x="400" y="-10" on="0"/>
        <pt x="236" y="-10" on="0"/>
        <pt x="135" y="35" on="0"/>
        <pt x="80" y="130" on="0"/>
        <pt x="59" y="253" on="0"/>
        <pt x="59" y="437" on="0"/>
        <pt x="80" y="562" on="0"/>
        <pt x="135" y="658" on="0"/>
        <pt x="235" y="702" on="0"/>
        <pt x="395" y="702" on="0"/>
        <pt x="503" y="680" on="1"/>
        <pt x="500" y="615" on="1"/>
        <pt x="399" y="633" on="0"/>
        <pt x="320" y="633" on="1"/>
        <pt x="210" y="633" on="0"/>
        <pt x="139" y="502" on="0"/>
        <pt x="139" y="344" on="1"/>
        <pt x="139" y="265" on="0"/>
        <pt x="152" y="169" on="0"/>
        <pt x="190" y="92" on="0"/>
        <pt x="263" y="59" on="0"/>
        <pt x="404" y="59" on="0"/>
        <pt x="500" y="77" on="1"/>
      </contour>
      <contour>
        <pt x="181" y="831" on="1"/>
        <pt x="397" y="931" on="1"/>
        <pt x="423" y="865" on="1"/>
        <pt x="204" y="778" on="1"/>
      </contour>
    </TTGlyph>
    <TTGlyph name="Ccaron" xMin="59" yMin="-10" xMax="503" yMax="926">
      <contour>
        <pt x="503" y="11" on="1"/>
        <pt x="400" y="-10" on="0"/>
        <pt x="236" y="-10" on="0"/>
        <pt x="135" y="35" on="0"/>
        <pt x="80" y="130" on="0"/>
        <pt x="59" y="253" on="0"/>
        <pt x="59" y="437" on="0"/>
        <pt x="80" y="562" on="0"/>
        <pt x="135" y="658" on="0"/>
        <pt x="235" y="702" on="0"/>
        <pt x="395" y="702" on="0"/>
        <pt x="503" y="680" on="1"/>
        <pt x="500" y="615" on="1"/>
        <pt x="399" y="633" on="0"/>
        <pt x="320" y="633" on="1"/>
        <pt x="210" y="633" on="0"/>
        <pt x="139" y="502" on="0"/>
        <pt x="139" y="344" on="1"/>
        <pt x="139" y="265" on="0"/>
        <pt x="152" y="169" on="0"/>
        <pt x="190" y="92" on="0"/>
        <pt x="263" y="59" on="0"/>
        <pt x="404" y="59" on="0"/>
        <pt x="500" y="77" on="1"/>
      </contour>
      <contour>
        <pt x="271" y="791" on="1"/>
        <pt x="137" y="926" on="1"/>
        <pt x="221" y="926" on="1"/>
        <pt x="304" y="846" on="1"/>
        <pt x="386" y="926" on="1"/>
        <pt x="470" y="926" on="1"/>
        <pt x="336" y="791" on="1"/>
      </contour>
    </TTGlyph>
    <TTGlyph name="Ccedilla" xMin="59" yMin="-217" xMax="503" yMax="702">
      <contour>
        <pt x="433" y="-127" on="1"/>
        <pt x="433" y="-217" on="0"/>
        <pt x="340" y="-217" on="1"/>
        <pt x="294" y="-217" on="0"/>
        <pt x="266" y="-212" on="1"/>
        <pt x="254" y="-210" on="1"/>
        <pt x="257" y="-162" on="1"/>
        <pt x="296" y="-165" on="0"/>
        <pt x="323" y="-165" on="1"/>
        <pt x="367" y="-165" on="0"/>
        <pt x="367" y="-127" on="1"/>
        <pt x="367" y="-93" on="0"/>
        <pt x="323" y="-93" on="1"/>
        <pt x="281" y="-93" on="1"/>
        <pt x="281" y="-9" on="1"/>
        <pt x="152" y="0" on="0"/>
        <pt x="59" y="169" on="0"/>
        <pt x="59" y="344" on="1"/>
        <pt x="59" y="437" on="0"/>
        <pt x="80" y="562" on="0"/>
        <pt x="135" y="658" on="0"/>
        <pt x="235" y="702" on="0"/>
        <pt x="395" y="702" on="0"/>
        <pt x="503" y="680" on="1"/>
        <pt x="500" y="615" on="1"/>
        <pt x="399" y="633" on="0"/>
        <pt x="320" y="633" on="1"/>
        <pt x="210" y="633" on="0"/>
        <pt x="139" y="502" on="0"/>
        <pt x="139" y="344" on="1"/>
        <pt x="139" y="265" on="0"/>
        <pt x="152" y="169" on="0"/>
        <pt x="190" y="92" on="0"/>
        <pt x="263" y="59" on="0"/>
        <pt x="404" y="59" on="0"/>
        <pt x="500" y="77" on="1"/>
        <pt x="503" y="11" on="1"/>
        <pt x="411" y="-9" on="0"/>
        <pt x="322" y="-10" on="1"/>
        <pt x="322" y="-49" on="1"/>
        <pt x="381" y="-49" on="0"/>
        <pt x="433" y="-81" on="0"/>
      </contour>
    </TTGlyph>
    <TTGlyph name="Ccircumflex" xMin="59" yMin="-10" xMax="503" yMax="926">
      <contour>
        <pt x="503" y="11" on="1"/>
        <pt x="400" y="-10" on="0"/>
        <pt x="236" y="-10" on="0"/>
        <pt x="135" y="35" on="0"/>
        <pt x="80" y="130" on="0"/>
        <pt x="59" y="253" on="0"/>
        <pt x="59" y="437" on="0"/>
        <pt x="80" y="562" on="0"/>
        <pt x="135" y="658" on="0"/>
        <pt x="235" y="702" on="0"/>
        <pt x="395" y="702" on="0"/>
        <pt x="503" y="680" on="1"/>
        <pt x="500" y="615" on="1"/>
        <pt x="399" y="633" on="0"/>
        <pt x="320" y="633" on="1"/>
        <pt x="210" y="633" on="0"/>
        <pt x="139" y="502" on="0"/>
        <pt x="139" y="344" on="1"/>
        <pt x="139" y="265" on="0"/>
        <pt x="152" y="169" on="0"/>
        <pt x="190" y="92" on="0"/>
        <pt x="263" y="59" on="0"/>
        <pt x="404" y="59" on="0"/>
        <pt x="500" y="77" on="1"/>
      </contour>
      <contour>
        <pt x="144" y="791" on="1"/>
        <pt x="278" y="926" on="1"/>
        <pt x="343" y="926" on="1"/>
        <pt x="477" y="791" on="1"/>
        <pt x="393" y="791" on="1"/>
        <pt x="311" y="871" on="1"/>
        <pt x="228" y="791" on="1"/>
      </contour>
    </TTGlyph>
    <TTGlyph name="Cdotaccent" xMin="59" yMin="-10" xMax="503" yMax="885">
      <contour>
        <pt x="503" y="11" on="1"/>
        <pt x="400" y="-10" on="0"/>
        <pt x="236" y="-10" on="0"/>
        <pt x="135" y="35" on="0"/>
        <pt x="80" y="130" on="0"/>
        <pt x="59" y="253" on="0"/>
        <pt x="59" y="437" on="0"/>
        <pt x="80" y="562" on="0"/>
        <pt x="135" y="658" on="0"/>
        <pt x="235" y="702" on="0"/>
        <pt x="395" y="702" on="0"/>
        <pt x="503" y="680" on="1"/>
        <pt x="500" y="615" on="1"/>
        <pt x="399" y="633" on="0"/>
        <pt x="320" y="633" on="1"/>
        <pt x="210" y="633" on="0"/>
        <pt x="139" y="502" on="0"/>
        <pt x="139" y="344" on="1"/>
        <pt x="139" y="265" on="0"/>
        <pt x="152" y="169" on="0"/>
        <pt x="190" y="92" on="0"/>
        <pt x="263" y="59" on="0"/>
        <pt x="404" y="59" on="0"/>
        <pt x="500" y="77" on="1"/>
      </contour>
      <contour>
        <pt x="255" y="798" on="1"/>
        <pt x="255" y="885" on="1"/>
        <pt x="329" y="885" on="1"/>
        <pt x="329" y="798" on="1"/>
      </contour>
    </TTGlyph>
    <TTGlyph name="D" xMin="85" yMin="0" xMax="588" yMax="692">
      <contour>
        <pt x="332" y="0" on="1"/>
        <pt x="85" y="0" on="1"/>
        <pt x="85" y="692" on="1"/>
        <pt x="332" y="692" on="1"/>
        <pt x="501" y="692" on="0"/>
        <pt x="556" y="558" on="1"/>
        <pt x="588" y="481" on="0"/>
        <pt x="588" y="356" on="1"/>
        <pt x="588" y="95" on="0"/>
        <pt x="458" y="27" on="1"/>
        <pt x="406" y="0" on="0"/>
      </contour>
      <contour>
        <pt x="509" y="356" on="1"/>
        <pt x="509" y="555" on="0"/>
        <pt x="420" y="604" on="1"/>
        <pt x="384" y="624" on="0"/>
        <pt x="332" y="624" on="1"/>
        <pt x="162" y="624" on="1"/>
        <pt x="162" y="68" on="1"/>
        <pt x="332" y="68" on="1"/>
        <pt x="509" y="68" on="0"/>
      </contour>
    </TTGlyph>
    <TTGlyph name="Dcaron" xMin="85" yMin="0" xMax="588" yMax="926">
      <contour>
        <pt x="332" y="0" on="1"/>
        <pt x="85" y="0" on="1"/>
        <pt x="85" y="692" on="1"/>
        <pt x="332" y="692" on="1"/>
        <pt x="501" y="692" on="0"/>
        <pt x="556" y="558" on="1"/>
        <pt x="588" y="481" on="0"/>
        <pt x="588" y="356" on="1"/>
        <pt x="588" y="95" on="0"/>
        <pt x="458" y="27" on="1"/>
        <pt x="406" y="0" on="0"/>
      </contour>
      <contour>
        <pt x="509" y="356" on="1"/>
        <pt x="509" y="555" on="0"/>
        <pt x="420" y="604" on="1"/>
        <pt x="384" y="624" on="0"/>
        <pt x="332" y="624" on="1"/>
        <pt x="162" y="624" on="1"/>
        <pt x="162" y="68" on="1"/>
        <pt x="332" y="68" on="1"/>
        <pt x="509" y="68" on="0"/>
      </contour>
      <contour>
        <pt x="262" y="791" on="1"/>
        <pt x="128" y="926" on="1"/>
        <pt x="212" y="926" on="1"/>
        <pt x="295" y="846" on="1"/>
        <pt x="377" y="926" on="1"/>
        <pt x="461" y="926" on="1"/>
        <pt x="327" y="791" on="1"/>
      </contour>
    </TTGlyph>
    <TTGlyph name="Dcroat" xMin="20" yMin="0" xMax="591" yMax="696">
      <contour>
        <pt x="20" y="311" on="1"/>
        <pt x="20" y="384" on="1"/>
        <pt x="88" y="384" on="1"/>
        <pt x="88" y="696" on="1"/>
        <pt x="335" y="696" on="1"/>
        <pt x="476" y="696" on="0"/>
        <pt x="591" y="520" on="0"/>
        <pt x="591" y="359" on="1"/>
        <pt x="591" y="97" on="0"/>
        <pt x="460" y="28" on="1"/>
        <pt x="409" y="0" on="0"/>
        <pt x="335" y="0" on="1"/>
        <pt x="88" y="0" on="1"/>
        <pt x="88" y="311" on="1"/>
      </contour>
      <contour>
        <pt x="511" y="359" on="1"/>
        <pt x="511" y="553" on="0"/>
        <pt x="422" y="603" on="1"/>
        <pt x="387" y="623" on="0"/>
        <pt x="335" y="623" on="1"/>
        <pt x="164" y="623" on="1"/>
        <pt x="164" y="384" on="1"/>
        <pt x="322" y="384" on="1"/>
        <pt x="322" y="311" on="1"/>
        <pt x="164" y="311" on="1"/>
        <pt x="164" y="73" on="1"/>
        <pt x="335" y="73" on="1"/>
        <pt x="511" y="73" on="0"/>
      </contour>
    </TTGlyph>
    <TTGlyph name="Delta" xMin="53" yMin="0" xMax="506" yMax="660">
      <contour>
        <pt x="506" y="0" on="1"/>
        <pt x="53" y="0" on="1"/>
        <pt x="53" y="57" on="1"/>
        <pt x="212" y="660" on="1"/>
        <pt x="347" y="660" on="1"/>
        <pt x="506" y="56" on="1"/>
      </contour>
      <contour>
        <pt x="292" y="595" on="1"/>
        <pt x="266" y="595" on="1"/>
        <pt x="130" y="66" on="1"/>
        <pt x="428" y="66" on="1"/>
      </contour>
    </TTGlyph>
    <TTGlyph name="E" xMin="85" yMin="0" xMax="506" yMax="692">
      <contour>
        <pt x="85" y="0" on="1"/>
        <pt x="85" y="692" on="1"/>
        <pt x="506" y="692" on="1"/>
        <pt x="506" y="624" on="1"/>
        <pt x="162" y="624" on="1"/>
        <pt x="162" y="385" on="1"/>
        <pt x="446" y="385" on="1"/>
        <pt x="446" y="318" on="1"/>
        <pt x="162" y="318" on="1"/>
        <pt x="162" y="68" on="1"/>
        <pt x="506" y="68" on="1"/>
        <pt x="506" y="0" on="1"/>
      </contour>
    </TTGlyph>
    <TTGlyph name="Eacute" xMin="85" yMin="0" xMax="506" yMax="931">
      <contour>
        <pt x="85" y="0" on="1"/>
        <pt x="85" y="692" on="1"/>
        <pt x="506" y="692" on="1"/>
        <pt x="506" y="624" on="1"/>
        <pt x="162" y="624" on="1"/>
        <pt x="162" y="385" on="1"/>
        <pt x="446" y="385" on="1"/>
        <pt x="446" y="318" on="1"/>
        <pt x="162" y="318" on="1"/>
        <pt x="162" y="68" on="1"/>
        <pt x="506" y="68" on="1"/>
        <pt x="506" y="0" on="1"/>
      </contour>
      <contour>
        <pt x="176" y="831" on="1"/>
        <pt x="392" y="931" on="1"/>
        <pt x="418" y="865" on="1"/>
        <pt x="199" y="778" on="1"/>
      </contour>
    </TTGlyph>
    <TTGlyph name="Ebreve" xMin="85" yMin="0" xMax="506" yMax="918">
      <contour>
        <pt x="85" y="0" on="1"/>
        <pt x="85" y="692" on="1"/>
        <pt x="506" y="692" on="1"/>
        <pt x="506" y="624" on="1"/>
        <pt x="162" y="624" on="1"/>
        <pt x="162" y="385" on="1"/>
        <pt x="446" y="385" on="1"/>
        <pt x="446" y="318" on="1"/>
        <pt x="162" y="318" on="1"/>
        <pt x="162" y="68" on="1"/>
        <pt x="506" y="68" on="1"/>
        <pt x="506" y="0" on="1"/>
      </contour>
      <contour>
        <pt x="217" y="885" on="0"/>
        <pt x="268" y="843" on="0"/>
        <pt x="341" y="843" on="0"/>
        <pt x="391" y="885" on="0"/>
        <pt x="392" y="918" on="1"/>
        <pt x="462" y="918" on="1"/>
        <pt x="459" y="859" on="0"/>
        <pt x="373" y="787" on="0"/>
        <pt x="235" y="787" on="0"/>
        <pt x="150" y="859" on="0"/>
        <pt x="147" y="918" on="1"/>
        <pt x="216" y="918" on="1"/>
      </contour>
    </TTGlyph>
    <TTGlyph name="Ecaron" xMin="85" yMin="0" xMax="506" yMax="926">
      <contour>
        <pt x="85" y="0" on="1"/>
        <pt x="85" y="692" on="1"/>
        <pt x="506" y="692" on="1"/>
        <pt x="506" y="624" on="1"/>
        <pt x="162" y="624" on="1"/>
        <pt x="162" y="385" on="1"/>
        <pt x="446" y="385" on="1"/>
        <pt x="446" y="318" on="1"/>
        <pt x="162" y="318" on="1"/>
        <pt x="162" y="68" on="1"/>
        <pt x="506" y="68" on="1"/>
        <pt x="506" y="0" on="1"/>
      </contour>
      <contour>
        <pt x="258" y="791" on="1"/>
        <pt x="124" y="926" on="1"/>
        <pt x="208" y="926" on="1"/>
        <pt x="291" y="846" on="1"/>
        <pt x="373" y="926" on="1"/>
        <pt x="457" y="926" on="1"/>
        <pt x="323" y="791" on="1"/>
      </contour>
    </TTGlyph>
    <TTGlyph name="Ecircumflex" xMin="85" yMin="0" xMax="506" yMax="926">
      <contour>
        <pt x="85" y="0" on="1"/>
        <pt x="85" y="692" on="1"/>
        <pt x="506" y="692" on="1"/>
        <pt x="506" y="624" on="1"/>
        <pt x="162" y="624" on="1"/>
        <pt x="162" y="385" on="1"/>
        <pt x="446" y="385" on="1"/>
        <pt x="446" y="318" on="1"/>
        <pt x="162" y="318" on="1"/>
        <pt x="162" y="68" on="1"/>
        <pt x="506" y="68" on="1"/>
        <pt x="506" y="0" on="1"/>
      </contour>
      <contour>
        <pt x="127" y="791" on="1"/>
        <pt x="261" y="926" on="1"/>
        <pt x="326" y="926" on="1"/>
        <pt x="460" y="791" on="1"/>
        <pt x="376" y="791" on="1"/>
        <pt x="294" y="871" on="1"/>
        <pt x="211" y="791" on="1"/>
      </contour>
    </TTGlyph>
    <TTGlyph name="Edieresis" xMin="85" yMin="0" xMax="506" yMax="898">
      <contour>
        <pt x="85" y="0" on="1"/>
        <pt x="85" y="692" on="1"/>
        <pt x="506" y="692" on="1"/>
        <pt x="506" y="624" on="1"/>
        <pt x="162" y="624" on="1"/>
        <pt x="162" y="385" on="1"/>
        <pt x="446" y="385" on="1"/>
        <pt x="446" y="318" on="1"/>
        <pt x="162" y="318" on="1"/>
        <pt x="162" y="68" on="1"/>
        <pt x="506" y="68" on="1"/>
        <pt x="506" y="0" on="1"/>
      </contour>
      <contour>
        <pt x="157" y="808" on="1"/>
        <pt x="157" y="898" on="1"/>
        <pt x="230" y="898" on="1"/>
        <pt x="230" y="808" on="1"/>
      </contour>
      <contour>
        <pt x="361" y="808" on="1"/>
        <pt x="361" y="898" on="1"/>
        <pt x="433" y="898" on="1"/>
        <pt x="433" y="808" on="1"/>
      </contour>
    </TTGlyph>
    <TTGlyph name="Edotaccent" xMin="85" yMin="0" xMax="506" yMax="888">
      <contour>
        <pt x="85" y="0" on="1"/>
        <pt x="85" y="692" on="1"/>
        <pt x="506" y="692" on="1"/>
        <pt x="506" y="624" on="1"/>
        <pt x="162" y="624" on="1"/>
        <pt x="162" y="385" on="1"/>
        <pt x="446" y="385" on="1"/>
        <pt x="446" y="318" on="1"/>
        <pt x="162" y="318" on="1"/>
        <pt x="162" y="68" on="1"/>
        <pt x="506" y="68" on="1"/>
        <pt x="506" y="0" on="1"/>
      </contour>
      <contour>
        <pt x="260" y="801" on="1"/>
        <pt x="260" y="888" on="1"/>
        <pt x="334" y="888" on="1"/>
        <pt x="334" y="801" on="1"/>
      </contour>
    </TTGlyph>
    <TTGlyph name="Egrave" xMin="85" yMin="0" xMax="506" yMax="931">
      <contour>
        <pt x="85" y="0" on="1"/>
        <pt x="85" y="692" on="1"/>
        <pt x="506" y="692" on="1"/>
        <pt x="506" y="624" on="1"/>
        <pt x="162" y="624" on="1"/>
        <pt x="162" y="385" on="1"/>
        <pt x="446" y="385" on="1"/>
        <pt x="446" y="318" on="1"/>
        <pt x="162" y="318" on="1"/>
        <pt x="162" y="68" on="1"/>
        <pt x="506" y="68" on="1"/>
        <pt x="506" y="0" on="1"/>
      </contour>
      <contour>
        <pt x="195" y="931" on="1"/>
        <pt x="411" y="831" on="1"/>
        <pt x="388" y="778" on="1"/>
        <pt x="169" y="865" on="1"/>
      </contour>
    </TTGlyph>
    <TTGlyph name="Emacron" xMin="85" yMin="0" xMax="506" yMax="870">
      <contour>
        <pt x="85" y="0" on="1"/>
        <pt x="85" y="692" on="1"/>
        <pt x="506" y="692" on="1"/>
        <pt x="506" y="624" on="1"/>
        <pt x="162" y="624" on="1"/>
        <pt x="162" y="385" on="1"/>
        <pt x="446" y="385" on="1"/>
        <pt x="446" y="318" on="1"/>
        <pt x="162" y="318" on="1"/>
        <pt x="162" y="68" on="1"/>
        <pt x="506" y="68" on="1"/>
        <pt x="506" y="0" on="1"/>
      </contour>
      <contour>
        <pt x="138" y="812" on="1"/>
        <pt x="138" y="870" on="1"/>
        <pt x="449" y="870" on="1"/>
        <pt x="449" y="812" on="1"/>
      </contour>
    </TTGlyph>
    <TTGlyph name="Eng" xMin="85" yMin="-189" xMax="592" yMax="692">
      <contour>
        <pt x="85" y="0" on="1"/>
        <pt x="85" y="692" on="1"/>
        <pt x="229" y="692" on="1"/>
        <pt x="494" y="68" on="1"/>
        <pt x="515" y="68" on="1"/>
        <pt x="515" y="692" on="1"/>
        <pt x="591" y="692" on="1"/>
        <pt x="591" y="575" on="1"/>
        <pt x="592" y="-22" on="1"/>
        <pt x="592" y="-106" on="0"/>
        <pt x="564" y="-146" on="1"/>
        <pt x="541" y="-178" on="0"/>
        <pt x="473" y="-186" on="1"/>
        <pt x="446" y="-189" on="0"/>
        <pt x="402" y="-189" on="1"/>
        <pt x="402" y="-120" on="1"/>
        <pt x="474" y="-120" on="0"/>
        <pt x="515" y="-85" on="0"/>
        <pt x="515" y="-11" on="1"/>
        <pt x="515" y="0" on="1"/>
        <pt x="450" y="0" on="1"/>
        <pt x="181" y="624" on="1"/>
        <pt x="162" y="624" on="1"/>
        <pt x="162" y="0" on="1"/>
      </contour>
    </TTGlyph>
    <TTGlyph name="Eogonek" xMin="85" yMin="-206" xMax="506" yMax="692">
      <contour>
        <pt x="85" y="0" on="1"/>
        <pt x="85" y="692" on="1"/>
        <pt x="506" y="692" on="1"/>
        <pt x="506" y="624" on="1"/>
        <pt x="162" y="624" on="1"/>
        <pt x="162" y="385" on="1"/>
        <pt x="446" y="385" on="1"/>
        <pt x="446" y="318" on="1"/>
        <pt x="162" y="318" on="1"/>
        <pt x="162" y="68" on="1"/>
        <pt x="506" y="68" on="1"/>
        <pt x="506" y="0" on="1"/>
        <pt x="477" y="0" on="1"/>
        <pt x="407" y="-70" on="0"/>
        <pt x="407" y="-102" on="1"/>
        <pt x="407" y="-121" on="0"/>
        <pt x="430" y="-145" on="0"/>
        <pt x="448" y="-145" on="1"/>
        <pt x="498" y="-139" on="1"/>
        <pt x="505" y="-197" on="1"/>
        <pt x="460" y="-206" on="0"/>
        <pt x="386" y="-206" on="0"/>
        <pt x="334" y="-159" on="0"/>
        <pt x="334" y="-88" on="0"/>
        <pt x="383" y="-22" on="0"/>
        <pt x="408" y="0" on="1"/>
      </contour>
    </TTGlyph>
    <TTGlyph name="Eth" xMin="20" yMin="0" xMax="591" yMax="696">
      <contour>
        <pt x="20" y="311" on="1"/>
        <pt x="20" y="384" on="1"/>
        <pt x="88" y="384" on="1"/>
        <pt x="88" y="696" on="1"/>
        <pt x="335" y="696" on="1"/>
        <pt x="476" y="696" on="0"/>
        <pt x="591" y="520" on="0"/>
        <pt x="591" y="359" on="1"/>
        <pt x="591" y="97" on="0"/>
        <pt x="460" y="28" on="1"/>
        <pt x="409" y="0" on="0"/>
        <pt x="335" y="0" on="1"/>
        <pt x="88" y="0" on="1"/>
        <pt x="88" y="311" on="1"/>
      </contour>
      <contour>
        <pt x="511" y="359" on="1"/>
        <pt x="511" y="553" on="0"/>
        <pt x="422" y="603" on="1"/>
        <pt x="387" y="623" on="0"/>
        <pt x="335" y="623" on="1"/>
        <pt x="164" y="623" on="1"/>
        <pt x="164" y="384" on="1"/>
        <pt x="322" y="384" on="1"/>
        <pt x="322" y="311" on="1"/>
        <pt x="164" y="311" on="1"/>
        <pt x="164" y="73" on="1"/>
        <pt x="335" y="73" on="1"/>
        <pt x="511" y="73" on="0"/>
      </contour>
    </TTGlyph>
    <TTGlyph name="Euro" xMin="30" yMin="-10" xMax="513" yMax="670">
      <contour>
        <pt x="30" y="378" on="1"/>
        <pt x="30" y="439" on="1"/>
        <pt x="94" y="439" on="1"/>
        <pt x="106" y="558" on="0"/>
        <pt x="213" y="670" on="0"/>
        <pt x="331" y="670" on="1"/>
        <pt x="415" y="670" on="0"/>
        <pt x="513" y="649" on="1"/>
        <pt x="510" y="587" on="1"/>
        <pt x="419" y="604" on="0"/>
        <pt x="255" y="604" on="0"/>
        <pt x="180" y="526" on="0"/>
        <pt x="171" y="439" on="1"/>
        <pt x="457" y="439" on="1"/>
        <pt x="457" y="378" on="1"/>
        <pt x="167" y="378" on="1"/>
        <pt x="166" y="362" on="0"/>
        <pt x="166" y="328" on="1"/>
        <pt x="166" y="283" on="1"/>
        <pt x="457" y="283" on="1"/>
        <pt x="457" y="222" on="1"/>
        <pt x="170" y="222" on="1"/>
        <pt x="179" y="135" on="0"/>
        <pt x="254" y="56" on="0"/>
        <pt x="420" y="56" on="0"/>
        <pt x="510" y="74" on="1"/>
        <pt x="513" y="11" on="1"/>
        <pt x="414" y="-10" on="0"/>
        <pt x="331" y="-10" on="1"/>
        <pt x="213" y="-10" on="0"/>
        <pt x="106" y="104" on="0"/>
        <pt x="93" y="222" on="1"/>
        <pt x="30" y="222" on="1"/>
        <pt x="30" y="283" on="1"/>
        <pt x="90" y="283" on="1"/>
        <pt x="89" y="297" on="0"/>
        <pt x="89" y="362" on="0"/>
        <pt x="90" y="378" on="1"/>
      </contour>
    </TTGlyph>
    <TTGlyph name="F" xMin="85" yMin="0" xMax="499" yMax="692">
      <contour>
        <pt x="85" y="0" on="1"/>
        <pt x="85" y="692" on="1"/>
        <pt x="499" y="692" on="1"/>
        <pt x="499" y="624" on="1"/>
        <pt x="162" y="624" on="1"/>
        <pt x="162" y="354" on="1"/>
        <pt x="447" y="354" on="1"/>
        <pt x="447" y="286" on="1"/>
        <pt x="162" y="286" on="1"/>
        <pt x="162" y="0" on="1"/>
      </contour>
    </TTGlyph>
    <TTGlyph name="G" xMin="57" yMin="-10" xMax="550" yMax="702">
      <contour>
        <pt x="359" y="285" on="1"/>
        <pt x="359" y="354" on="1"/>
        <pt x="550" y="354" on="1"/>
        <pt x="550" y="14" on="1"/>
        <pt x="424" y="-10" on="0"/>
        <pt x="325" y="-10" on="1"/>
        <pt x="174" y="-10" on="0"/>
        <pt x="57" y="164" on="0"/>
        <pt x="57" y="527" on="0"/>
        <pt x="174" y="702" on="0"/>
        <pt x="323" y="702" on="1"/>
        <pt x="416" y="702" on="0"/>
        <pt x="516" y="682" on="1"/>
        <pt x="550" y="676" on="1"/>
        <pt x="547" y="612" on="1"/>
        <pt x="423" y="633" on="0"/>
        <pt x="332" y="633" on="1"/>
        <pt x="217" y="633" on="0"/>
        <pt x="137" y="500" on="0"/>
        <pt x="137" y="191" on="0"/>
        <pt x="217" y="58" on="0"/>
        <pt x="331" y="58" on="1"/>
        <pt x="401" y="58" on="0"/>
        <pt x="474" y="72" on="1"/>
        <pt x="474" y="285" on="1"/>
      </contour>
    </TTGlyph>
    <TTGlyph name="Gbreve" xMin="57" yMin="-10" xMax="550" yMax="918">
      <contour>
        <pt x="359" y="285" on="1"/>
        <pt x="359" y="354" on="1"/>
        <pt x="550" y="354" on="1"/>
        <pt x="550" y="14" on="1"/>
        <pt x="424" y="-10" on="0"/>
        <pt x="325" y="-10" on="1"/>
        <pt x="174" y="-10" on="0"/>
        <pt x="57" y="164" on="0"/>
        <pt x="57" y="527" on="0"/>
        <pt x="174" y="702" on="0"/>
        <pt x="323" y="702" on="1"/>
        <pt x="416" y="702" on="0"/>
        <pt x="516" y="682" on="1"/>
        <pt x="550" y="676" on="1"/>
        <pt x="547" y="612" on="1"/>
        <pt x="423" y="633" on="0"/>
        <pt x="332" y="633" on="1"/>
        <pt x="217" y="633" on="0"/>
        <pt x="137" y="500" on="0"/>
        <pt x="137" y="191" on="0"/>
        <pt x="217" y="58" on="0"/>
        <pt x="331" y="58" on="1"/>
        <pt x="401" y="58" on="0"/>
        <pt x="474" y="72" on="1"/>
        <pt x="474" y="285" on="1"/>
      </contour>
      <contour>
        <pt x="241" y="885" on="0"/>
        <pt x="292" y="843" on="0"/>
        <pt x="365" y="843" on="0"/>
        <pt x="415" y="885" on="0"/>
        <pt x="416" y="918" on="1"/>
        <pt x="486" y="918" on="1"/>
        <pt x="483" y="859" on="0"/>
        <pt x="397" y="787" on="0"/>
        <pt x="259" y="787" on="0"/>
        <pt x="174" y="859" on="0"/>
        <pt x="171" y="918" on="1"/>
        <pt x="240" y="918" on="1"/>
      </contour>
    </TTGlyph>
    <TTGlyph name="Gcircumflex" xMin="57" yMin="-8" xMax="550" yMax="923">
      <contour>
        <pt x="359" y="287" on="1"/>
        <pt x="359" y="356" on="1"/>
        <pt x="550" y="356" on="1"/>
        <pt x="550" y="16" on="1"/>
        <pt x="424" y="-8" on="0"/>
        <pt x="325" y="-8" on="1"/>
        <pt x="174" y="-8" on="0"/>
        <pt x="57" y="166" on="0"/>
        <pt x="57" y="529" on="0"/>
        <pt x="174" y="704" on="0"/>
        <pt x="323" y="704" on="1"/>
        <pt x="416" y="704" on="0"/>
        <pt x="516" y="684" on="1"/>
        <pt x="550" y="678" on="1"/>
        <pt x="547" y="614" on="1"/>
        <pt x="423" y="635" on="0"/>
        <pt x="332" y="635" on="1"/>
        <pt x="217" y="635" on="0"/>
        <pt x="137" y="502" on="0"/>
        <pt x="137" y="193" on="0"/>
        <pt x="217" y="60" on="0"/>
        <pt x="331" y="60" on="1"/>
        <pt x="401" y="60" on="0"/>
        <pt x="474" y="74" on="1"/>
        <pt x="474" y="287" on="1"/>
      </contour>
      <contour>
        <pt x="156" y="788" on="1"/>
        <pt x="290" y="923" on="1"/>
        <pt x="355" y="923" on="1"/>
        <pt x="489" y="788" on="1"/>
        <pt x="405" y="788" on="1"/>
        <pt x="323" y="868" on="1"/>
        <pt x="240" y="788" on="1"/>
      </contour>
    </TTGlyph>
    <TTGlyph name="Gcommaaccent" xMin="57" yMin="-285" xMax="550" yMax="702">
      <contour>
        <pt x="359" y="285" on="1"/>
        <pt x="359" y="354" on="1"/>
        <pt x="550" y="354" on="1"/>
        <pt x="550" y="14" on="1"/>
        <pt x="424" y="-10" on="0"/>
        <pt x="325" y="-10" on="1"/>
        <pt x="174" y="-10" on="0"/>
        <pt x="57" y="164" on="0"/>
        <pt x="57" y="527" on="0"/>
        <pt x="174" y="702" on="0"/>
        <pt x="323" y="702" on="1"/>
        <pt x="416" y="702" on="0"/>
        <pt x="516" y="682" on="1"/>
        <pt x="550" y="676" on="1"/>
        <pt x="547" y="612" on="1"/>
        <pt x="423" y="633" on="0"/>
        <pt x="332" y="633" on="1"/>
        <pt x="217" y="633" on="0"/>
        <pt x="137" y="500" on="0"/>
        <pt x="137" y="191" on="0"/>
        <pt x="217" y="58" on="0"/>
        <pt x="331" y="58" on="1"/>
        <pt x="401" y="58" on="0"/>
        <pt x="474" y="72" on="1"/>
        <pt x="474" y="285" on="1"/>
      </contour>
      <contour>
        <pt x="301" y="-78" on="1"/>
        <pt x="375" y="-78" on="1"/>
        <pt x="325" y="-285" on="1"/>
        <pt x="260" y="-285" on="1"/>
      </contour>
    </TTGlyph>
    <TTGlyph name="Gdotaccent" xMin="57" yMin="-10" xMax="550" yMax="888">
      <contour>
        <pt x="359" y="285" on="1"/>
        <pt x="359" y="354" on="1"/>
        <pt x="550" y="354" on="1"/>
        <pt x="550" y="14" on="1"/>
        <pt x="424" y="-10" on="0"/>
        <pt x="325" y="-10" on="1"/>
        <pt x="174" y="-10" on="0"/>
        <pt x="57" y="164" on="0"/>
        <pt x="57" y="527" on="0"/>
        <pt x="174" y="702" on="0"/>
        <pt x="323" y="702" on="1"/>
        <pt x="416" y="702" on="0"/>
        <pt x="516" y="682" on="1"/>
        <pt x="550" y="676" on="1"/>
        <pt x="547" y="612" on="1"/>
        <pt x="423" y="633" on="0"/>
        <pt x="332" y="633" on="1"/>
        <pt x="217" y="633" on="0"/>
        <pt x="137" y="500" on="0"/>
        <pt x="137" y="191" on="0"/>
        <pt x="217" y="58" on="0"/>
        <pt x="331" y="58" on="1"/>
        <pt x="401" y="58" on="0"/>
        <pt x="474" y="72" on="1"/>
        <pt x="474" y="285" on="1"/>
      </contour>
      <contour>
        <pt x="276" y="801" on="1"/>
        <pt x="276" y="888" on="1"/>
        <pt x="350" y="888" on="1"/>
        <pt x="350" y="801" on="1"/>
      </contour>
    </TTGlyph>
    <TTGlyph name="H" xMin="85" yMin="0" xMax="590" yMax="692">
      <contour>
        <pt x="514" y="0" on="1"/>
        <pt x="514" y="313" on="1"/>
        <pt x="162" y="313" on="1"/>
        <pt x="162" y="0" on="1"/>
        <pt x="85" y="0" on="1"/>
        <pt x="85" y="692" on="1"/>
        <pt x="162" y="692" on="1"/>
        <pt x="162" y="382" on="1"/>
        <pt x="514" y="382" on="1"/>
        <pt x="514" y="692" on="1"/>
        <pt x="590" y="692" on="1"/>
        <pt x="590" y="0" on="1"/>
      </contour>
    </TTGlyph>
    <TTGlyph name="Hbar" xMin="15" yMin="0" xMax="677" yMax="692">
      <contour>
        <pt x="15" y="508" on="1"/>
        <pt x="15" y="573" on="1"/>
        <pt x="89" y="573" on="1"/>
        <pt x="89" y="692" on="1"/>
        <pt x="166" y="692" on="1"/>
        <pt x="166" y="573" on="1"/>
        <pt x="518" y="573" on="1"/>
        <pt x="518" y="692" on="1"/>
        <pt x="594" y="692" on="1"/>
        <pt x="594" y="573" on="1"/>
        <pt x="677" y="573" on="1"/>
        <pt x="677" y="508" on="1"/>
        <pt x="594" y="508" on="1"/>
        <pt x="594" y="0" on="1"/>
        <pt x="518" y="0" on="1"/>
        <pt x="518" y="313" on="1"/>
        <pt x="166" y="313" on="1"/>
        <pt x="166" y="0" on="1"/>
        <pt x="89" y="0" on="1"/>
        <pt x="89" y="508" on="1"/>
      </contour>
      <contour>
        <pt x="166" y="382" on="1"/>
        <pt x="518" y="382" on="1"/>
        <pt x="518" y="508" on="1"/>
        <pt x="166" y="508" on="1"/>
      </contour>
    </TTGlyph>
    <TTGlyph name="Hcircumflex" xMin="85" yMin="0" xMax="590" yMax="926">
      <contour>
        <pt x="514" y="0" on="1"/>
        <pt x="514" y="313" on="1"/>
        <pt x="162" y="313" on="1"/>
        <pt x="162" y="0" on="1"/>
        <pt x="85" y="0" on="1"/>
        <pt x="85" y="692" on="1"/>
        <pt x="162" y="692" on="1"/>
        <pt x="162" y="382" on="1"/>
        <pt x="514" y="382" on="1"/>
        <pt x="514" y="692" on="1"/>
        <pt x="590" y="692" on="1"/>
        <pt x="590" y="0" on="1"/>
      </contour>
      <contour>
        <pt x="172" y="791" on="1"/>
        <pt x="306" y="926" on="1"/>
        <pt x="371" y="926" on="1"/>
        <pt x="505" y="791" on="1"/>
        <pt x="421" y="791" on="1"/>
        <pt x="339" y="871" on="1"/>
        <pt x="256" y="791" on="1"/>
      </contour>
    </TTGlyph>
    <TTGlyph name="I" xMin="85" yMin="0" xMax="162" yMax="692">
      <contour>
        <pt x="85" y="0" on="1"/>
        <pt x="85" y="692" on="1"/>
        <pt x="162" y="692" on="1"/>
        <pt x="162" y="0" on="1"/>
      </contour>
    </TTGlyph>
    <TTGlyph name="Iacute" xMin="13" yMin="0" xMax="255" yMax="931">
      <contour>
        <pt x="85" y="0" on="1"/>
        <pt x="85" y="692" on="1"/>
        <pt x="162" y="692" on="1"/>
        <pt x="162" y="0" on="1"/>
      </contour>
      <contour>
        <pt x="13" y="831" on="1"/>
        <pt x="229" y="931" on="1"/>
        <pt x="255" y="865" on="1"/>
        <pt x="36" y="778" on="1"/>
      </contour>
    </TTGlyph>
    <TTGlyph name="Ibreve" xMin="-26" yMin="0" xMax="289" yMax="918">
      <contour>
        <pt x="85" y="0" on="1"/>
        <pt x="85" y="692" on="1"/>
        <pt x="162" y="692" on="1"/>
        <pt x="162" y="0" on="1"/>
      </contour>
      <contour>
        <pt x="94" y="843" on="0"/>
        <pt x="168" y="843" on="0"/>
        <pt x="218" y="885" on="0"/>
        <pt x="219" y="918" on="1"/>
        <pt x="289" y="918" on="1"/>
        <pt x="286" y="859" on="0"/>
        <pt x="200" y="787" on="0"/>
        <pt x="62" y="787" on="0"/>
        <pt x="-23" y="859" on="0"/>
        <pt x="-26" y="918" on="1"/>
        <pt x="43" y="918" on="1"/>
        <pt x="44" y="885" on="0"/>
      </contour>
    </TTGlyph>
    <TTGlyph name="Icircumflex" xMin="-47" yMin="0" xMax="286" yMax="926">
      <contour>
        <pt x="85" y="0" on="1"/>
        <pt x="85" y="692" on="1"/>
        <pt x="162" y="692" on="1"/>
        <pt x="162" y="0" on="1"/>
      </contour>
      <contour>
        <pt x="-47" y="791" on="1"/>
        <pt x="87" y="926" on="1"/>
        <pt x="152" y="926" on="1"/>
        <pt x="286" y="791" on="1"/>
        <pt x="202" y="791" on="1"/>
        <pt x="120" y="871" on="1"/>
        <pt x="37" y="791" on="1"/>
      </contour>
    </TTGlyph>
    <TTGlyph name="Idieresis" xMin="-15" yMin="0" xMax="261" yMax="898">
      <contour>
        <pt x="85" y="0" on="1"/>
        <pt x="85" y="692" on="1"/>
        <pt x="162" y="692" on="1"/>
        <pt x="162" y="0" on="1"/>
      </contour>
      <contour>
        <pt x="-15" y="808" on="1"/>
        <pt x="-15" y="898" on="1"/>
        <pt x="58" y="898" on="1"/>
        <pt x="58" y="808" on="1"/>
      </contour>
      <contour>
        <pt x="189" y="808" on="1"/>
        <pt x="189" y="898" on="1"/>
        <pt x="261" y="898" on="1"/>
        <pt x="261" y="808" on="1"/>
      </contour>
    </TTGlyph>
    <TTGlyph name="Idotaccent" xMin="85" yMin="0" xMax="162" yMax="888">
      <contour>
        <pt x="85" y="0" on="1"/>
        <pt x="85" y="692" on="1"/>
        <pt x="162" y="692" on="1"/>
        <pt x="162" y="0" on="1"/>
      </contour>
      <contour>
        <pt x="86" y="801" on="1"/>
        <pt x="86" y="888" on="1"/>
        <pt x="160" y="888" on="1"/>
        <pt x="160" y="801" on="1"/>
      </contour>
    </TTGlyph>
    <TTGlyph name="Igrave" xMin="-20" yMin="0" xMax="222" yMax="931">
      <contour>
        <pt x="85" y="0" on="1"/>
        <pt x="85" y="692" on="1"/>
        <pt x="162" y="692" on="1"/>
        <pt x="162" y="0" on="1"/>
      </contour>
      <contour>
        <pt x="6" y="931" on="1"/>
        <pt x="222" y="831" on="1"/>
        <pt x="199" y="778" on="1"/>
        <pt x="-20" y="865" on="1"/>
      </contour>
    </TTGlyph>
    <TTGlyph name="Imacron" xMin="-30" yMin="0" xMax="281" yMax="870">
      <contour>
        <pt x="85" y="0" on="1"/>
        <pt x="85" y="692" on="1"/>
        <pt x="162" y="692" on="1"/>
        <pt x="162" y="0" on="1"/>
      </contour>
      <contour>
        <pt x="-30" y="812" on="1"/>
        <pt x="-30" y="870" on="1"/>
        <pt x="281" y="870" on="1"/>
        <pt x="281" y="812" on="1"/>
      </contour>
    </TTGlyph>
    <TTGlyph name="Iogonek" xMin="14" yMin="-206" xMax="185" yMax="692">
      <contour>
        <pt x="85" y="0" on="1"/>
        <pt x="85" y="692" on="1"/>
        <pt x="162" y="692" on="1"/>
        <pt x="162" y="0" on="1"/>
        <pt x="86" y="-69" on="0"/>
        <pt x="86" y="-102" on="1"/>
        <pt x="86" y="-121" on="0"/>
        <pt x="109" y="-145" on="0"/>
        <pt x="127" y="-145" on="1"/>
        <pt x="178" y="-139" on="1"/>
        <pt x="185" y="-197" on="1"/>
        <pt x="140" y="-206" on="0"/>
        <pt x="66" y="-206" on="0"/>
        <pt x="14" y="-159" on="0"/>
        <pt x="14" y="-88" on="0"/>
        <pt x="63" y="-22" on="0"/>
        <pt x="88" y="0" on="1"/>
      </contour>
    </TTGlyph>
    <TTGlyph name="Itilde" xMin="-50" yMin="0" xMax="287" yMax="923">
      <contour>
        <pt x="85" y="0" on="1"/>
        <pt x="85" y="692" on="1"/>
        <pt x="162" y="692" on="1"/>
        <pt x="162" y="0" on="1"/>
      </contour>
      <contour>
        <pt x="200" y="803" on="1"/>
        <pt x="178" y="803" on="0"/>
        <pt x="54" y="857" on="0"/>
        <pt x="42" y="857" on="1"/>
        <pt x="19" y="857" on="0"/>
        <pt x="-20" y="821" on="1"/>
        <pt x="-33" y="809" on="1"/>
        <pt x="-50" y="865" on="1"/>
        <pt x="-31" y="887" on="0"/>
        <pt x="21" y="923" on="0"/>
        <pt x="66" y="923" on="0"/>
        <pt x="189" y="869" on="0"/>
        <pt x="200" y="869" on="1"/>
        <pt x="219" y="869" on="0"/>
        <pt x="256" y="904" on="1"/>
        <pt x="269" y="915" on="1"/>
        <pt x="287" y="859" on="1"/>
        <pt x="240" y="803" on="0"/>
      </contour>
    </TTGlyph>
    <TTGlyph name="J" xMin="18" yMin="-72" xMax="208" yMax="692">
      <contour>
        <pt x="18" y="-72" on="1"/>
        <pt x="18" y="-3" on="1"/>
        <pt x="90" y="-3" on="0"/>
        <pt x="131" y="32" on="0"/>
        <pt x="131" y="106" on="1"/>
        <pt x="131" y="692" on="1"/>
        <pt x="207" y="692" on="1"/>
        <pt x="208" y="95" on="1"/>
        <pt x="208" y="11" on="0"/>
        <pt x="180" y="-28" on="1"/>
        <pt x="157" y="-61" on="0"/>
        <pt x="89" y="-69" on="1"/>
        <pt x="62" y="-72" on="0"/>
      </contour>
    </TTGlyph>
    <TTGlyph name="Jcircumflex" xMin="2" yMin="-72" xMax="335" yMax="923">
      <contour>
        <pt x="18" y="-72" on="1"/>
        <pt x="18" y="-3" on="1"/>
        <pt x="90" y="-3" on="0"/>
        <pt x="131" y="32" on="0"/>
        <pt x="131" y="106" on="1"/>
        <pt x="131" y="692" on="1"/>
        <pt x="207" y="692" on="1"/>
        <pt x="208" y="95" on="1"/>
        <pt x="208" y="11" on="0"/>
        <pt x="180" y="-28" on="1"/>
        <pt x="157" y="-61" on="0"/>
        <pt x="89" y="-69" on="1"/>
        <pt x="62" y="-72" on="0"/>
      </contour>
      <contour>
        <pt x="2" y="788" on="1"/>
        <pt x="136" y="923" on="1"/>
        <pt x="201" y="923" on="1"/>
        <pt x="335" y="788" on="1"/>
        <pt x="251" y="788" on="1"/>
        <pt x="169" y="868" on="1"/>
        <pt x="86" y="788" on="1"/>
      </contour>
    </TTGlyph>
    <TTGlyph name="K" xMin="85" yMin="0" xMax="552" yMax="692">
      <contour>
        <pt x="162" y="0" on="1"/>
        <pt x="85" y="0" on="1"/>
        <pt x="85" y="692" on="1"/>
        <pt x="162" y="692" on="1"/>
        <pt x="162" y="370" on="1"/>
        <pt x="276" y="374" on="1"/>
        <pt x="453" y="692" on="1"/>
        <pt x="541" y="692" on="1"/>
        <pt x="343" y="344" on="1"/>
        <pt x="552" y="0" on="1"/>
        <pt x="461" y="0" on="1"/>
        <pt x="277" y="306" on="1"/>
        <pt x="162" y="302" on="1"/>
      </contour>
    </TTGlyph>
    <TTGlyph name="Kcommaaccent" xMin="85" yMin="-285" xMax="552" yMax="696">
      <contour>
        <pt x="162" y="0" on="1"/>
        <pt x="85" y="0" on="1"/>
        <pt x="85" y="696" on="1"/>
        <pt x="162" y="696" on="1"/>
        <pt x="162" y="375" on="1"/>
        <pt x="275" y="379" on="1"/>
        <pt x="452" y="696" on="1"/>
        <pt x="541" y="696" on="1"/>
        <pt x="343" y="348" on="1"/>
        <pt x="552" y="0" on="1"/>
        <pt x="461" y="0" on="1"/>
        <pt x="277" y="306" on="1"/>
        <pt x="162" y="302" on="1"/>
      </contour>
      <contour>
        <pt x="264" y="-78" on="1"/>
        <pt x="338" y="-78" on="1"/>
        <pt x="289" y="-285" on="1"/>
        <pt x="224" y="-285" on="1"/>
      </contour>
    </TTGlyph>
    <TTGlyph name="L" xMin="85" yMin="0" xMax="466" yMax="692">
      <contour>
        <pt x="466" y="0" on="1"/>
        <pt x="85" y="0" on="1"/>
        <pt x="85" y="692" on="1"/>
        <pt x="162" y="692" on="1"/>
        <pt x="162" y="69" on="1"/>
        <pt x="466" y="69" on="1"/>
      </contour>
    </TTGlyph>
    <TTGlyph name="Lacute" xMin="85" yMin="0" xMax="466" yMax="931">
      <contour>
        <pt x="466" y="0" on="1"/>
        <pt x="85" y="0" on="1"/>
        <pt x="85" y="696" on="1"/>
        <pt x="162" y="696" on="1"/>
        <pt x="162" y="74" on="1"/>
        <pt x="466" y="74" on="1"/>
      </contour>
      <contour>
        <pt x="134" y="831" on="1"/>
        <pt x="350" y="931" on="1"/>
        <pt x="376" y="865" on="1"/>
        <pt x="157" y="778" on="1"/>
      </contour>
    </TTGlyph>
    <TTGlyph name="Lcaron" xMin="85" yMin="0" xMax="466" yMax="696">
      <contour>
        <pt x="439" y="696" on="1"/>
        <pt x="439" y="462" on="1"/>
        <pt x="366" y="462" on="1"/>
        <pt x="366" y="696" on="1"/>
      </contour>
      <contour>
        <pt x="466" y="0" on="1"/>
        <pt x="85" y="0" on="1"/>
        <pt x="85" y="692" on="1"/>
        <pt x="162" y="692" on="1"/>
        <pt x="162" y="69" on="1"/>
        <pt x="466" y="69" on="1"/>
      </contour>
    </TTGlyph>
    <TTGlyph name="Lcommaaccent" xMin="85" yMin="-285" xMax="466" yMax="692">
      <contour>
        <pt x="241" y="-78" on="1"/>
        <pt x="315" y="-78" on="1"/>
        <pt x="265" y="-285" on="1"/>
        <pt x="200" y="-285" on="1"/>
      </contour>
      <contour>
        <pt x="466" y="0" on="1"/>
        <pt x="85" y="0" on="1"/>
        <pt x="85" y="692" on="1"/>
        <pt x="162" y="692" on="1"/>
        <pt x="162" y="69" on="1"/>
        <pt x="466" y="69" on="1"/>
      </contour>
    </TTGlyph>
    <TTGlyph name="Lslash" xMin="-4" yMin="0" xMax="471" yMax="692">
      <contour>
        <pt x="471" y="0" on="1"/>
        <pt x="90" y="0" on="1"/>
        <pt x="90" y="272" on="1"/>
        <pt x="33" y="232" on="1"/>
        <pt x="-4" y="284" on="1"/>
        <pt x="90" y="350" on="1"/>
        <pt x="90" y="692" on="1"/>
        <pt x="167" y="692" on="1"/>
        <pt x="167" y="404" on="1"/>
        <pt x="309" y="503" on="1"/>
        <pt x="346" y="452" on="1"/>
        <pt x="167" y="326" on="1"/>
        <pt x="167" y="69" on="1"/>
        <pt x="471" y="69" on="1"/>
      </contour>
    </TTGlyph>
    <TTGlyph name="M" xMin="85" yMin="0" xMax="755" yMax="692">
      <contour>
        <pt x="85" y="0" on="1"/>
        <pt x="85" y="692" on="1"/>
        <pt x="224" y="692" on="1"/>
        <pt x="420" y="107" on="1"/>
        <pt x="616" y="692" on="1"/>
        <pt x="755" y="692" on="1"/>
        <pt x="755" y="0" on="1"/>
        <pt x="678" y="0" on="1"/>
        <pt x="678" y="610" on="1"/>
        <pt x="664" y="610" on="1"/>
        <pt x="463" y="25" on="1"/>
        <pt x="377" y="25" on="1"/>
        <pt x="176" y="610" on="1"/>
        <pt x="162" y="610" on="1"/>
        <pt x="162" y="0" on="1"/>
      </contour>
    </TTGlyph>
    <TTGlyph name="N" xMin="85" yMin="0" xMax="591" yMax="692">
      <contour>
        <pt x="85" y="0" on="1"/>
        <pt x="85" y="692" on="1"/>
        <pt x="229" y="692" on="1"/>
        <pt x="494" y="68" on="1"/>
        <pt x="515" y="68" on="1"/>
        <pt x="515" y="692" on="1"/>
        <pt x="591" y="692" on="1"/>
        <pt x="591" y="0" on="1"/>
        <pt x="450" y="0" on="1"/>
        <pt x="181" y="624" on="1"/>
        <pt x="162" y="624" on="1"/>
        <pt x="162" y="0" on="1"/>
      </contour>
    </TTGlyph>
    <TTGlyph name="Nacute" xMin="85" yMin="0" xMax="591" yMax="931">
      <contour>
        <pt x="85" y="0" on="1"/>
        <pt x="85" y="692" on="1"/>
        <pt x="229" y="692" on="1"/>
        <pt x="494" y="68" on="1"/>
        <pt x="515" y="68" on="1"/>
        <pt x="515" y="692" on="1"/>
        <pt x="591" y="692" on="1"/>
        <pt x="591" y="0" on="1"/>
        <pt x="450" y="0" on="1"/>
        <pt x="181" y="624" on="1"/>
        <pt x="162" y="624" on="1"/>
        <pt x="162" y="0" on="1"/>
      </contour>
      <contour>
        <pt x="220" y="831" on="1"/>
        <pt x="436" y="931" on="1"/>
        <pt x="462" y="865" on="1"/>
        <pt x="243" y="778" on="1"/>
      </contour>
    </TTGlyph>
    <TTGlyph name="Ncaron" xMin="85" yMin="0" xMax="591" yMax="923">
      <contour>
        <pt x="85" y="0" on="1"/>
        <pt x="85" y="692" on="1"/>
        <pt x="229" y="692" on="1"/>
        <pt x="494" y="68" on="1"/>
        <pt x="515" y="68" on="1"/>
        <pt x="515" y="692" on="1"/>
        <pt x="591" y="692" on="1"/>
        <pt x="591" y="0" on="1"/>
        <pt x="450" y="0" on="1"/>
        <pt x="181" y="624" on="1"/>
        <pt x="162" y="624" on="1"/>
        <pt x="162" y="0" on="1"/>
      </contour>
      <contour>
        <pt x="306" y="788" on="1"/>
        <pt x="172" y="923" on="1"/>
        <pt x="256" y="923" on="1"/>
        <pt x="339" y="843" on="1"/>
        <pt x="421" y="923" on="1"/>
        <pt x="505" y="923" on="1"/>
        <pt x="371" y="788" on="1"/>
      </contour>
    </TTGlyph>
    <TTGlyph name="Ncommaaccent" xMin="85" yMin="-285" xMax="591" yMax="692">
      <contour>
        <pt x="324" y="-78" on="1"/>
        <pt x="398" y="-78" on="1"/>
        <pt x="348" y="-285" on="1"/>
        <pt x="283" y="-285" on="1"/>
      </contour>
      <contour>
        <pt x="85" y="0" on="1"/>
        <pt x="85" y="692" on="1"/>
        <pt x="229" y="692" on="1"/>
        <pt x="494" y="68" on="1"/>
        <pt x="515" y="68" on="1"/>
        <pt x="515" y="692" on="1"/>
        <pt x="591" y="692" on="1"/>
        <pt x="591" y="0" on="1"/>
        <pt x="450" y="0" on="1"/>
        <pt x="181" y="624" on="1"/>
        <pt x="162" y="624" on="1"/>
        <pt x="162" y="0" on="1"/>
      </contour>
    </TTGlyph>
    <TTGlyph name="Ntilde" xMin="85" yMin="0" xMax="591" yMax="923">
      <contour>
        <pt x="85" y="0" on="1"/>
        <pt x="85" y="692" on="1"/>
        <pt x="229" y="692" on="1"/>
        <pt x="494" y="68" on="1"/>
        <pt x="515" y="68" on="1"/>
        <pt x="515" y="692" on="1"/>
        <pt x="591" y="692" on="1"/>
        <pt x="591" y="0" on="1"/>
        <pt x="450" y="0" on="1"/>
        <pt x="181" y="624" on="1"/>
        <pt x="162" y="624" on="1"/>
        <pt x="162" y="0" on="1"/>
      </contour>
      <contour>
        <pt x="416" y="803" on="1"/>
        <pt x="395" y="803" on="0"/>
        <pt x="271" y="857" on="0"/>
        <pt x="258" y="857" on="1"/>
        <pt x="236" y="857" on="0"/>
        <pt x="197" y="821" on="1"/>
        <pt x="184" y="809" on="1"/>
        <pt x="167" y="865" on="1"/>
        <pt x="186" y="887" on="0"/>
        <pt x="238" y="923" on="0"/>
        <pt x="284" y="923" on="0"/>
        <pt x="406" y="869" on="0"/>
        <pt x="416" y="869" on="1"/>
        <pt x="436" y="869" on="0"/>
        <pt x="474" y="904" on="1"/>
        <pt x="486" y="915" on="1"/>
        <pt x="504" y="859" on="1"/>
        <pt x="457" y="803" on="0"/>
      </contour>
    </TTGlyph>
    <TTGlyph name="O" xMin="57" yMin="-10" xMax="604" yMax="702">
      <contour>
        <pt x="136" y="191" on="0"/>
        <pt x="216" y="58" on="0"/>
        <pt x="445" y="58" on="0"/>
        <pt x="524" y="188" on="0"/>
        <pt x="524" y="494" on="0"/>
        <pt x="442" y="634" on="0"/>
        <pt x="217" y="634" on="0"/>
        <pt x="136" y="495" on="0"/>
      </contour>
      <contour>
        <pt x="604" y="156" on="0"/>
        <pt x="486" y="-10" on="0"/>
        <pt x="175" y="-10" on="0"/>
        <pt x="57" y="160" on="0"/>
        <pt x="57" y="525" on="0"/>
        <pt x="177" y="702" on="0"/>
        <pt x="483" y="702" on="0"/>
        <pt x="604" y="526" on="0"/>
      </contour>
    </TTGlyph>
    <TTGlyph name="OE" xMin="57" yMin="-10" xMax="878" yMax="706">
      <contour>
        <pt x="878" y="-1" on="1"/>
        <pt x="465" y="-1" on="1"/>
        <pt x="373" y="-10" on="0"/>
        <pt x="322" y="-10" on="1"/>
        <pt x="169" y="-10" on="0"/>
        <pt x="57" y="159" on="0"/>
        <pt x="57" y="534" on="0"/>
        <pt x="173" y="706" on="0"/>
        <pt x="322" y="706" on="1"/>
        <pt x="401" y="706" on="0"/>
        <pt x="463" y="696" on="1"/>
        <pt x="878" y="696" on="1"/>
        <pt x="878" y="622" on="1"/>
        <pt x="539" y="622" on="1"/>
        <pt x="539" y="393" on="1"/>
        <pt x="818" y="393" on="1"/>
        <pt x="818" y="319" on="1"/>
        <pt x="539" y="319" on="1"/>
        <pt x="539" y="74" on="1"/>
        <pt x="878" y="74" on="1"/>
      </contour>
      <contour>
        <pt x="332" y="65" on="1"/>
        <pt x="384" y="65" on="0"/>
        <pt x="463" y="72" on="1"/>
        <pt x="463" y="622" on="1"/>
        <pt x="358" y="631" on="0"/>
        <pt x="330" y="631" on="1"/>
        <pt x="217" y="631" on="0"/>
        <pt x="137" y="501" on="0"/>
        <pt x="137" y="192" on="0"/>
        <pt x="215" y="65" on="0"/>
      </contour>
    </TTGlyph>
    <TTGlyph name="Oacute" xMin="57" yMin="-10" xMax="604" yMax="931">
      <contour>
        <pt x="136" y="191" on="0"/>
        <pt x="216" y="58" on="0"/>
        <pt x="445" y="58" on="0"/>
        <pt x="524" y="188" on="0"/>
        <pt x="524" y="494" on="0"/>
        <pt x="442" y="634" on="0"/>
        <pt x="217" y="634" on="0"/>
        <pt x="136" y="495" on="0"/>
      </contour>
      <contour>
        <pt x="604" y="156" on="0"/>
        <pt x="486" y="-10" on="0"/>
        <pt x="175" y="-10" on="0"/>
        <pt x="57" y="160" on="0"/>
        <pt x="57" y="525" on="0"/>
        <pt x="177" y="702" on="0"/>
        <pt x="483" y="702" on="0"/>
        <pt x="604" y="526" on="0"/>
      </contour>
      <contour>
        <pt x="198" y="831" on="1"/>
        <pt x="414" y="931" on="1"/>
        <pt x="440" y="865" on="1"/>
        <pt x="221" y="778" on="1"/>
      </contour>
    </TTGlyph>
    <TTGlyph name="Obreve" xMin="57" yMin="-10" xMax="604" yMax="918">
      <contour>
        <pt x="136" y="191" on="0"/>
        <pt x="216" y="58" on="0"/>
        <pt x="445" y="58" on="0"/>
        <pt x="524" y="188" on="0"/>
        <pt x="524" y="494" on="0"/>
        <pt x="442" y="634" on="0"/>
        <pt x="217" y="634" on="0"/>
        <pt x="136" y="495" on="0"/>
      </contour>
      <contour>
        <pt x="604" y="156" on="0"/>
        <pt x="486" y="-10" on="0"/>
        <pt x="175" y="-10" on="0"/>
        <pt x="57" y="160" on="0"/>
        <pt x="57" y="525" on="0"/>
        <pt x="177" y="702" on="0"/>
        <pt x="483" y="702" on="0"/>
        <pt x="604" y="526" on="0"/>
      </contour>
      <contour>
        <pt x="294" y="843" on="0"/>
        <pt x="368" y="843" on="0"/>
        <pt x="418" y="885" on="0"/>
        <pt x="419" y="918" on="1"/>
        <pt x="489" y="918" on="1"/>
        <pt x="486" y="859" on="0"/>
        <pt x="400" y="787" on="0"/>
        <pt x="262" y="787" on="0"/>
        <pt x="177" y="859" on="0"/>
        <pt x="174" y="918" on="1"/>
        <pt x="243" y="918" on="1"/>
        <pt x="244" y="885" on="0"/>
      </contour>
    </TTGlyph>
    <TTGlyph name="Ocircumflex" xMin="57" yMin="-10" xMax="604" yMax="926">
      <contour>
        <pt x="136" y="191" on="0"/>
        <pt x="216" y="58" on="0"/>
        <pt x="445" y="58" on="0"/>
        <pt x="524" y="188" on="0"/>
        <pt x="524" y="494" on="0"/>
        <pt x="442" y="634" on="0"/>
        <pt x="217" y="634" on="0"/>
        <pt x="136" y="495" on="0"/>
      </contour>
      <contour>
        <pt x="604" y="156" on="0"/>
        <pt x="486" y="-10" on="0"/>
        <pt x="175" y="-10" on="0"/>
        <pt x="57" y="160" on="0"/>
        <pt x="57" y="525" on="0"/>
        <pt x="177" y="702" on="0"/>
        <pt x="483" y="702" on="0"/>
        <pt x="604" y="526" on="0"/>
      </contour>
      <contour>
        <pt x="164" y="791" on="1"/>
        <pt x="298" y="926" on="1"/>
        <pt x="363" y="926" on="1"/>
        <pt x="497" y="791" on="1"/>
        <pt x="413" y="791" on="1"/>
        <pt x="331" y="871" on="1"/>
        <pt x="248" y="791" on="1"/>
      </contour>
    </TTGlyph>
    <TTGlyph name="Odieresis" xMin="57" yMin="-10" xMax="604" yMax="898">
      <contour>
        <pt x="136" y="191" on="0"/>
        <pt x="216" y="58" on="0"/>
        <pt x="445" y="58" on="0"/>
        <pt x="524" y="188" on="0"/>
        <pt x="524" y="494" on="0"/>
        <pt x="442" y="634" on="0"/>
        <pt x="217" y="634" on="0"/>
        <pt x="136" y="495" on="0"/>
      </contour>
      <contour>
        <pt x="604" y="156" on="0"/>
        <pt x="486" y="-10" on="0"/>
        <pt x="175" y="-10" on="0"/>
        <pt x="57" y="160" on="0"/>
        <pt x="57" y="525" on="0"/>
        <pt x="177" y="702" on="0"/>
        <pt x="483" y="702" on="0"/>
        <pt x="604" y="526" on="0"/>
      </contour>
      <contour>
        <pt x="192" y="808" on="1"/>
        <pt x="192" y="898" on="1"/>
        <pt x="265" y="898" on="1"/>
        <pt x="265" y="808" on="1"/>
      </contour>
      <contour>
        <pt x="396" y="808" on="1"/>
        <pt x="396" y="898" on="1"/>
        <pt x="468" y="898" on="1"/>
        <pt x="468" y="808" on="1"/>
      </contour>
    </TTGlyph>
    <TTGlyph name="Ograve" xMin="57" yMin="-10" xMax="604" yMax="931">
      <contour>
        <pt x="136" y="191" on="0"/>
        <pt x="216" y="58" on="0"/>
        <pt x="445" y="58" on="0"/>
        <pt x="524" y="188" on="0"/>
        <pt x="524" y="494" on="0"/>
        <pt x="442" y="634" on="0"/>
        <pt x="217" y="634" on="0"/>
        <pt x="136" y="495" on="0"/>
      </contour>
      <contour>
        <pt x="604" y="156" on="0"/>
        <pt x="486" y="-10" on="0"/>
        <pt x="175" y="-10" on="0"/>
        <pt x="57" y="160" on="0"/>
        <pt x="57" y="525" on="0"/>
        <pt x="177" y="702" on="0"/>
        <pt x="483" y="702" on="0"/>
        <pt x="604" y="526" on="0"/>
      </contour>
      <contour>
        <pt x="227" y="931" on="1"/>
        <pt x="443" y="831" on="1"/>
        <pt x="420" y="778" on="1"/>
        <pt x="201" y="865" on="1"/>
      </contour>
    </TTGlyph>
    <TTGlyph name="Ohungarumlaut" xMin="57" yMin="-10" xMax="604" yMax="917">
      <contour>
        <pt x="136" y="191" on="0"/>
        <pt x="216" y="58" on="0"/>
        <pt x="445" y="58" on="0"/>
        <pt x="524" y="188" on="0"/>
        <pt x="524" y="494" on="0"/>
        <pt x="442" y="634" on="0"/>
        <pt x="217" y="634" on="0"/>
        <pt x="136" y="495" on="0"/>
      </contour>
      <contour>
        <pt x="604" y="156" on="0"/>
        <pt x="486" y="-10" on="0"/>
        <pt x="175" y="-10" on="0"/>
        <pt x="57" y="160" on="0"/>
        <pt x="57" y="525" on="0"/>
        <pt x="177" y="702" on="0"/>
        <pt x="483" y="702" on="0"/>
        <pt x="604" y="526" on="0"/>
      </contour>
      <contour>
        <pt x="348" y="785" on="1"/>
        <pt x="490" y="916" on="1"/>
        <pt x="545" y="881" on="1"/>
        <pt x="399" y="752" on="1"/>
      </contour>
      <contour>
        <pt x="151" y="785" on="1"/>
        <pt x="293" y="917" on="1"/>
        <pt x="347" y="882" on="1"/>
        <pt x="202" y="753" on="1"/>
      </contour>
    </TTGlyph>
    <TTGlyph name="Omacron" xMin="57" yMin="-10" xMax="604" yMax="870">
      <contour>
        <pt x="136" y="191" on="0"/>
        <pt x="216" y="58" on="0"/>
        <pt x="445" y="58" on="0"/>
        <pt x="524" y="188" on="0"/>
        <pt x="524" y="494" on="0"/>
        <pt x="442" y="634" on="0"/>
        <pt x="217" y="634" on="0"/>
        <pt x="136" y="495" on="0"/>
      </contour>
      <contour>
        <pt x="604" y="156" on="0"/>
        <pt x="486" y="-10" on="0"/>
        <pt x="175" y="-10" on="0"/>
        <pt x="57" y="160" on="0"/>
        <pt x="57" y="525" on="0"/>
        <pt x="177" y="702" on="0"/>
        <pt x="483" y="702" on="0"/>
        <pt x="604" y="526" on="0"/>
      </contour>
      <contour>
        <pt x="174" y="812" on="1"/>
        <pt x="174" y="870" on="1"/>
        <pt x="485" y="870" on="1"/>
        <pt x="485" y="812" on="1"/>
      </contour>
    </TTGlyph>
    <TTGlyph name="Omega" xMin="45" yMin="-9" xMax="515" yMax="671">
      <contour>
        <pt x="168" y="57" on="1"/>
        <pt x="59" y="248" on="0"/>
        <pt x="59" y="376" on="1"/>
        <pt x="59" y="530" on="0"/>
        <pt x="155" y="671" on="0"/>
        <pt x="405" y="671" on="0"/>
        <pt x="501" y="530" on="0"/>
        <pt x="501" y="376" on="1"/>
        <pt x="501" y="311" on="0"/>
        <pt x="446" y="152" on="0"/>
        <pt x="418" y="104" on="1"/>
        <pt x="391" y="57" on="1"/>
        <pt x="515" y="57" on="1"/>
        <pt x="515" y="-9" on="1"/>
        <pt x="318" y="-9" on="1"/>
        <pt x="318" y="48" on="1"/>
        <pt x="356" y="118" on="0"/>
        <pt x="422" y="305" on="0"/>
        <pt x="422" y="356" on="1"/>
        <pt x="422" y="491" on="0"/>
        <pt x="367" y="602" on="0"/>
        <pt x="192" y="602" on="0"/>
        <pt x="138" y="492" on="0"/>
        <pt x="138" y="356" on="1"/>
        <pt x="138" y="305" on="0"/>
        <pt x="190" y="151" on="0"/>
        <pt x="216" y="100" on="1"/>
        <pt x="242" y="48" on="1"/>
        <pt x="242" y="-9" on="1"/>
        <pt x="45" y="-9" on="1"/>
        <pt x="45" y="57" on="1"/>
      </contour>
    </TTGlyph>
    <TTGlyph name="Oslash" xMin="57" yMin="-116" xMax="604" yMax="799">
      <contour>
        <pt x="330" y="-10" on="1"/>
        <pt x="261" y="-10" on="0"/>
        <pt x="210" y="7" on="1"/>
        <pt x="153" y="-116" on="1"/>
        <pt x="96" y="-90" on="1"/>
        <pt x="155" y="36" on="1"/>
        <pt x="102" y="76" on="0"/>
        <pt x="57" y="226" on="0"/>
        <pt x="57" y="343" on="1"/>
        <pt x="57" y="525" on="0"/>
        <pt x="177" y="702" on="0"/>
        <pt x="330" y="702" on="1"/>
        <pt x="405" y="702" on="0"/>
        <pt x="456" y="681" on="1"/>
        <pt x="512" y="799" on="1"/>
        <pt x="570" y="775" on="1"/>
        <pt x="511" y="648" on="1"/>
        <pt x="604" y="570" on="0"/>
        <pt x="604" y="343" on="1"/>
        <pt x="604" y="156" on="0"/>
        <pt x="486" y="-10" on="0"/>
      </contour>
      <contour>
        <pt x="217" y="634" on="0"/>
        <pt x="136" y="495" on="0"/>
        <pt x="136" y="166" on="0"/>
        <pt x="188" y="108" on="1"/>
        <pt x="426" y="615" on="1"/>
        <pt x="388" y="634" on="0"/>
        <pt x="330" y="634" on="1"/>
      </contour>
      <contour>
        <pt x="330" y="58" on="1"/>
        <pt x="445" y="58" on="0"/>
        <pt x="524" y="188" on="0"/>
        <pt x="524" y="510" on="0"/>
        <pt x="476" y="574" on="1"/>
        <pt x="241" y="72" on="1"/>
        <pt x="275" y="58" on="0"/>
      </contour>
    </TTGlyph>
    <TTGlyph name="Oslashacute" xMin="58" yMin="-116" xMax="605" yMax="931">
      <contour>
        <pt x="331" y="-10" on="1"/>
        <pt x="262" y="-10" on="0"/>
        <pt x="211" y="7" on="1"/>
        <pt x="154" y="-116" on="1"/>
        <pt x="97" y="-90" on="1"/>
        <pt x="156" y="36" on="1"/>
        <pt x="103" y="76" on="0"/>
        <pt x="58" y="226" on="0"/>
        <pt x="58" y="343" on="1"/>
        <pt x="58" y="525" on="0"/>
        <pt x="178" y="702" on="0"/>
        <pt x="331" y="702" on="1"/>
        <pt x="406" y="702" on="0"/>
        <pt x="457" y="681" on="1"/>
        <pt x="513" y="799" on="1"/>
        <pt x="571" y="775" on="1"/>
        <pt x="512" y="648" on="1"/>
        <pt x="605" y="570" on="0"/>
        <pt x="605" y="343" on="1"/>
        <pt x="605" y="156" on="0"/>
        <pt x="487" y="-10" on="0"/>
      </contour>
      <contour>
        <pt x="218" y="634" on="0"/>
        <pt x="137" y="495" on="0"/>
        <pt x="137" y="166" on="0"/>
        <pt x="189" y="108" on="1"/>
        <pt x="427" y="615" on="1"/>
        <pt x="389" y="634" on="0"/>
        <pt x="331" y="634" on="1"/>
      </contour>
      <contour>
        <pt x="331" y="58" on="1"/>
        <pt x="446" y="58" on="0"/>
        <pt x="525" y="188" on="0"/>
        <pt x="525" y="510" on="0"/>
        <pt x="477" y="574" on="1"/>
        <pt x="242" y="72" on="1"/>
        <pt x="276" y="58" on="0"/>
      </contour>
      <contour>
        <pt x="209" y="831" on="1"/>
        <pt x="425" y="931" on="1"/>
        <pt x="451" y="865" on="1"/>
        <pt x="232" y="778" on="1"/>
      </contour>
    </TTGlyph>
    <TTGlyph name="Otilde" xMin="57" yMin="-10" xMax="604" yMax="923">
      <contour>
        <pt x="136" y="191" on="0"/>
        <pt x="216" y="58" on="0"/>
        <pt x="445" y="58" on="0"/>
        <pt x="524" y="188" on="0"/>
        <pt x="524" y="494" on="0"/>
        <pt x="442" y="634" on="0"/>
        <pt x="217" y="634" on="0"/>
        <pt x="136" y="495" on="0"/>
      </contour>
      <contour>
        <pt x="604" y="156" on="0"/>
        <pt x="486" y="-10" on="0"/>
        <pt x="175" y="-10" on="0"/>
        <pt x="57" y="160" on="0"/>
        <pt x="57" y="525" on="0"/>
        <pt x="177" y="702" on="0"/>
        <pt x="483" y="702" on="0"/>
        <pt x="604" y="526" on="0"/>
      </contour>
      <contour>
        <pt x="408" y="803" on="1"/>
        <pt x="387" y="803" on="0"/>
        <pt x="263" y="857" on="0"/>
        <pt x="250" y="857" on="1"/>
        <pt x="228" y="857" on="0"/>
        <pt x="189" y="821" on="1"/>
        <pt x="176" y="809" on="1"/>
        <pt x="159" y="865" on="1"/>
        <pt x="178" y="887" on="0"/>
        <pt x="230" y="923" on="0"/>
        <pt x="276" y="923" on="0"/>
        <pt x="398" y="869" on="0"/>
        <pt x="408" y="869" on="1"/>
        <pt x="428" y="869" on="0"/>
        <pt x="466" y="904" on="1"/>
        <pt x="478" y="915" on="1"/>
        <pt x="496" y="859" on="1"/>
        <pt x="449" y="803" on="0"/>
      </contour>
    </TTGlyph>
    <TTGlyph name="P" xMin="85" yMin="0" xMax="559" yMax="692">
      <contour>
        <pt x="338" y="233" on="1"/>
        <pt x="162" y="233" on="1"/>
        <pt x="162" y="0" on="1"/>
        <pt x="85" y="0" on="1"/>
        <pt x="85" y="692" on="1"/>
        <pt x="338" y="692" on="1"/>
        <pt x="451" y="692" on="0"/>
        <pt x="559" y="582" on="0"/>
        <pt x="559" y="469" on="1"/>
        <pt x="559" y="233" on="0"/>
      </contour>
      <contour>
        <pt x="162" y="301" on="1"/>
        <pt x="337" y="301" on="1"/>
        <pt x="480" y="301" on="0"/>
        <pt x="480" y="469" on="1"/>
        <pt x="480" y="549" on="0"/>
        <pt x="412" y="624" on="0"/>
        <pt x="337" y="624" on="1"/>
        <pt x="162" y="624" on="1"/>
      </contour>
    </TTGlyph>
    <TTGlyph name="Q" xMin="57" yMin="-145" xMax="604" yMax="702">
      <contour>
        <pt x="330" y="-10" on="1"/>
        <pt x="175" y="-10" on="0"/>
        <pt x="57" y="160" on="0"/>
        <pt x="57" y="525" on="0"/>
        <pt x="177" y="702" on="0"/>
        <pt x="483" y="702" on="0"/>
        <pt x="604" y="526" on="0"/>
        <pt x="604" y="343" on="1"/>
        <pt x="604" y="216" on="0"/>
        <pt x="552" y="63" on="0"/>
        <pt x="489" y="26" on="1"/>
        <pt x="574" y="-111" on="1"/>
        <pt x="502" y="-145" on="1"/>
        <pt x="414" y="-1" on="1"/>
        <pt x="381" y="-10" on="0"/>
      </contour>
      <contour>
        <pt x="136" y="191" on="0"/>
        <pt x="216" y="58" on="0"/>
        <pt x="445" y="58" on="0"/>
        <pt x="524" y="187" on="0"/>
        <pt x="524" y="494" on="0"/>
        <pt x="442" y="634" on="0"/>
        <pt x="217" y="634" on="0"/>
        <pt x="136" y="495" on="0"/>
      </contour>
    </TTGlyph>
    <TTGlyph name="R" xMin="85" yMin="0" xMax="568" yMax="692">
      <contour>
        <pt x="162" y="265" on="1"/>
        <pt x="162" y="0" on="1"/>
        <pt x="85" y="0" on="1"/>
        <pt x="85" y="692" on="1"/>
        <pt x="341" y="692" on="1"/>
        <pt x="451" y="692" on="0"/>
        <pt x="562" y="590" on="0"/>
        <pt x="562" y="482" on="1"/>
        <pt x="562" y="322" on="0"/>
        <pt x="435" y="281" on="1"/>
        <pt x="568" y="0" on="1"/>
        <pt x="483" y="0" on="1"/>
        <pt x="358" y="265" on="1"/>
      </contour>
      <contour>
        <pt x="342" y="333" on="1"/>
        <pt x="483" y="333" on="0"/>
        <pt x="483" y="624" on="0"/>
        <pt x="341" y="624" on="1"/>
        <pt x="162" y="624" on="1"/>
        <pt x="162" y="333" on="1"/>
      </contour>
    </TTGlyph>
    <TTGlyph name="Racute" xMin="85" yMin="0" xMax="568" yMax="931">
      <contour>
        <pt x="162" y="265" on="1"/>
        <pt x="162" y="0" on="1"/>
        <pt x="85" y="0" on="1"/>
        <pt x="85" y="692" on="1"/>
        <pt x="341" y="692" on="1"/>
        <pt x="451" y="692" on="0"/>
        <pt x="562" y="590" on="0"/>
        <pt x="562" y="482" on="1"/>
        <pt x="562" y="322" on="0"/>
        <pt x="435" y="281" on="1"/>
        <pt x="568" y="0" on="1"/>
        <pt x="483" y="0" on="1"/>
        <pt x="358" y="265" on="1"/>
      </contour>
      <contour>
        <pt x="341" y="624" on="1"/>
        <pt x="162" y="624" on="1"/>
        <pt x="162" y="333" on="1"/>
        <pt x="342" y="333" on="1"/>
        <pt x="483" y="333" on="0"/>
        <pt x="483" y="624" on="0"/>
      </contour>
      <contour>
        <pt x="187" y="831" on="1"/>
        <pt x="403" y="931" on="1"/>
        <pt x="429" y="865" on="1"/>
        <pt x="210" y="778" on="1"/>
      </contour>
    </TTGlyph>
    <TTGlyph name="Rcaron" xMin="85" yMin="0" xMax="568" yMax="926">
      <contour>
        <pt x="162" y="265" on="1"/>
        <pt x="162" y="0" on="1"/>
        <pt x="85" y="0" on="1"/>
        <pt x="85" y="692" on="1"/>
        <pt x="341" y="692" on="1"/>
        <pt x="451" y="692" on="0"/>
        <pt x="562" y="590" on="0"/>
        <pt x="562" y="482" on="1"/>
        <pt x="562" y="322" on="0"/>
        <pt x="435" y="281" on="1"/>
        <pt x="568" y="0" on="1"/>
        <pt x="483" y="0" on="1"/>
        <pt x="358" y="265" on="1"/>
      </contour>
      <contour>
        <pt x="342" y="333" on="1"/>
        <pt x="483" y="333" on="0"/>
        <pt x="483" y="624" on="0"/>
        <pt x="341" y="624" on="1"/>
        <pt x="162" y="624" on="1"/>
        <pt x="162" y="333" on="1"/>
      </contour>
      <contour>
        <pt x="268" y="791" on="1"/>
        <pt x="134" y="926" on="1"/>
        <pt x="218" y="926" on="1"/>
        <pt x="301" y="846" on="1"/>
        <pt x="383" y="926" on="1"/>
        <pt x="467" y="926" on="1"/>
        <pt x="333" y="791" on="1"/>
      </contour>
    </TTGlyph>
    <TTGlyph name="Rcommaaccent" xMin="85" yMin="-285" xMax="568" yMax="692">
      <contour>
        <pt x="245" y="-285" on="1"/>
        <pt x="286" y="-78" on="1"/>
        <pt x="360" y="-78" on="1"/>
        <pt x="310" y="-285" on="1"/>
      </contour>
      <contour>
        <pt x="162" y="265" on="1"/>
        <pt x="162" y="0" on="1"/>
        <pt x="85" y="0" on="1"/>
        <pt x="85" y="692" on="1"/>
        <pt x="341" y="692" on="1"/>
        <pt x="451" y="692" on="0"/>
        <pt x="562" y="590" on="0"/>
        <pt x="562" y="482" on="1"/>
        <pt x="562" y="322" on="0"/>
        <pt x="435" y="281" on="1"/>
        <pt x="568" y="0" on="1"/>
        <pt x="483" y="0" on="1"/>
        <pt x="358" y="265" on="1"/>
      </contour>
      <contour>
        <pt x="342" y="333" on="1"/>
        <pt x="483" y="333" on="0"/>
        <pt x="483" y="624" on="0"/>
        <pt x="341" y="624" on="1"/>
        <pt x="162" y="624" on="1"/>
        <pt x="162" y="333" on="1"/>
      </contour>
    </TTGlyph>
    <TTGlyph name="S" xMin="48" yMin="-9" xMax="494" yMax="703">
      <contour>
        <pt x="276" y="635" on="1"/>
        <pt x="126" y="635" on="0"/>
        <pt x="126" y="522" on="1"/>
        <pt x="126" y="459" on="0"/>
        <pt x="195" y="412" on="0"/>
        <pt x="406" y="365" on="0"/>
        <pt x="494" y="290" on="0"/>
        <pt x="494" y="204" on="1"/>
        <pt x="494" y="-9" on="0"/>
        <pt x="273" y="-9" on="1"/>
        <pt x="200" y="-9" on="0"/>
        <pt x="90" y="8" on="1"/>
        <pt x="54" y="13" on="1"/>
        <pt x="62" y="77" on="1"/>
        <pt x="198" y="59" on="0"/>
        <pt x="269" y="59" on="1"/>
        <pt x="417" y="59" on="0"/>
        <pt x="417" y="198" on="1"/>
        <pt x="417" y="254" on="0"/>
        <pt x="352" y="303" on="0"/>
        <pt x="263" y="320" on="1"/>
        <pt x="146" y="345" on="0"/>
        <pt x="48" y="424" on="0"/>
        <pt x="48" y="517" on="1"/>
        <pt x="48" y="703" on="0"/>
        <pt x="271" y="703" on="1"/>
        <pt x="344" y="703" on="0"/>
        <pt x="446" y="688" on="1"/>
        <pt x="480" y="683" on="1"/>
        <pt x="473" y="618" on="1"/>
        <pt x="334" y="635" on="0"/>
      </contour>
    </TTGlyph>
    <TTGlyph name="Sacute" xMin="48" yMin="-9" xMax="494" yMax="931">
      <contour>
        <pt x="276" y="635" on="1"/>
        <pt x="126" y="635" on="0"/>
        <pt x="126" y="522" on="1"/>
        <pt x="126" y="459" on="0"/>
        <pt x="195" y="412" on="0"/>
        <pt x="406" y="365" on="0"/>
        <pt x="494" y="290" on="0"/>
        <pt x="494" y="204" on="1"/>
        <pt x="494" y="-9" on="0"/>
        <pt x="273" y="-9" on="1"/>
        <pt x="200" y="-9" on="0"/>
        <pt x="90" y="8" on="1"/>
        <pt x="54" y="13" on="1"/>
        <pt x="62" y="77" on="1"/>
        <pt x="198" y="59" on="0"/>
        <pt x="269" y="59" on="1"/>
        <pt x="417" y="59" on="0"/>
        <pt x="417" y="198" on="1"/>
        <pt x="417" y="254" on="0"/>
        <pt x="352" y="303" on="0"/>
        <pt x="263" y="320" on="1"/>
        <pt x="146" y="345" on="0"/>
        <pt x="48" y="424" on="0"/>
        <pt x="48" y="517" on="1"/>
        <pt x="48" y="703" on="0"/>
        <pt x="271" y="703" on="1"/>
        <pt x="344" y="703" on="0"/>
        <pt x="446" y="688" on="1"/>
        <pt x="480" y="683" on="1"/>
        <pt x="473" y="618" on="1"/>
        <pt x="334" y="635" on="0"/>
      </contour>
      <contour>
        <pt x="163" y="831" on="1"/>
        <pt x="379" y="931" on="1"/>
        <pt x="405" y="865" on="1"/>
        <pt x="186" y="778" on="1"/>
      </contour>
    </TTGlyph>
    <TTGlyph name="Scaron" xMin="48" yMin="-9" xMax="494" yMax="926">
      <contour>
        <pt x="276" y="635" on="1"/>
        <pt x="126" y="635" on="0"/>
        <pt x="126" y="522" on="1"/>
        <pt x="126" y="459" on="0"/>
        <pt x="195" y="412" on="0"/>
        <pt x="406" y="365" on="0"/>
        <pt x="494" y="290" on="0"/>
        <pt x="494" y="204" on="1"/>
        <pt x="494" y="-9" on="0"/>
        <pt x="273" y="-9" on="1"/>
        <pt x="200" y="-9" on="0"/>
        <pt x="90" y="8" on="1"/>
        <pt x="54" y="13" on="1"/>
        <pt x="62" y="77" on="1"/>
        <pt x="198" y="59" on="0"/>
        <pt x="269" y="59" on="1"/>
        <pt x="417" y="59" on="0"/>
        <pt x="417" y="198" on="1"/>
        <pt x="417" y="254" on="0"/>
        <pt x="352" y="303" on="0"/>
        <pt x="263" y="320" on="1"/>
        <pt x="146" y="345" on="0"/>
        <pt x="48" y="424" on="0"/>
        <pt x="48" y="517" on="1"/>
        <pt x="48" y="703" on="0"/>
        <pt x="271" y="703" on="1"/>
        <pt x="344" y="703" on="0"/>
        <pt x="446" y="688" on="1"/>
        <pt x="480" y="683" on="1"/>
        <pt x="473" y="618" on="1"/>
        <pt x="334" y="635" on="0"/>
      </contour>
      <contour>
        <pt x="250" y="791" on="1"/>
        <pt x="116" y="926" on="1"/>
        <pt x="200" y="926" on="1"/>
        <pt x="283" y="846" on="1"/>
        <pt x="365" y="926" on="1"/>
        <pt x="449" y="926" on="1"/>
        <pt x="315" y="791" on="1"/>
      </contour>
    </TTGlyph>
    <TTGlyph name="Scedilla" xMin="48" yMin="-217" xMax="494" yMax="703">
      <contour>
        <pt x="410" y="-127" on="1"/>
        <pt x="410" y="-217" on="0"/>
        <pt x="317" y="-217" on="1"/>
        <pt x="271" y="-217" on="0"/>
        <pt x="242" y="-212" on="1"/>
        <pt x="231" y="-210" on="1"/>
        <pt x="234" y="-162" on="1"/>
        <pt x="273" y="-165" on="0"/>
        <pt x="300" y="-165" on="1"/>
        <pt x="344" y="-165" on="0"/>
        <pt x="344" y="-127" on="1"/>
        <pt x="344" y="-93" on="0"/>
        <pt x="300" y="-93" on="1"/>
        <pt x="258" y="-93" on="1"/>
        <pt x="258" y="-9" on="1"/>
        <pt x="184" y="-7" on="0"/>
        <pt x="86" y="8" on="1"/>
        <pt x="54" y="13" on="1"/>
        <pt x="62" y="77" on="1"/>
        <pt x="198" y="59" on="0"/>
        <pt x="269" y="59" on="1"/>
        <pt x="417" y="59" on="0"/>
        <pt x="417" y="198" on="1"/>
        <pt x="417" y="254" on="0"/>
        <pt x="352" y="303" on="0"/>
        <pt x="263" y="320" on="1"/>
        <pt x="146" y="345" on="0"/>
        <pt x="48" y="424" on="0"/>
        <pt x="48" y="517" on="1"/>
        <pt x="48" y="703" on="0"/>
        <pt x="271" y="703" on="1"/>
        <pt x="344" y="703" on="0"/>
        <pt x="446" y="688" on="1"/>
        <pt x="480" y="683" on="1"/>
        <pt x="473" y="618" on="1"/>
        <pt x="334" y="635" on="0"/>
        <pt x="276" y="635" on="1"/>
        <pt x="126" y="635" on="0"/>
        <pt x="126" y="522" on="1"/>
        <pt x="126" y="459" on="0"/>
        <pt x="195" y="412" on="0"/>
        <pt x="406" y="365" on="0"/>
        <pt x="494" y="290" on="0"/>
        <pt x="494" y="204" on="1"/>
        <pt x="494" y="5" on="0"/>
        <pt x="299" y="-8" on="1"/>
        <pt x="299" y="-49" on="1"/>
        <pt x="358" y="-49" on="0"/>
        <pt x="410" y="-81" on="0"/>
      </contour>
    </TTGlyph>
    <TTGlyph name="Scircumflex" xMin="48" yMin="-9" xMax="494" yMax="923">
      <contour>
        <pt x="276" y="635" on="1"/>
        <pt x="126" y="635" on="0"/>
        <pt x="126" y="522" on="1"/>
        <pt x="126" y="459" on="0"/>
        <pt x="195" y="412" on="0"/>
        <pt x="406" y="365" on="0"/>
        <pt x="494" y="290" on="0"/>
        <pt x="494" y="204" on="1"/>
        <pt x="494" y="-9" on="0"/>
        <pt x="273" y="-9" on="1"/>
        <pt x="200" y="-9" on="0"/>
        <pt x="90" y="8" on="1"/>
        <pt x="54" y="13" on="1"/>
        <pt x="62" y="77" on="1"/>
        <pt x="198" y="59" on="0"/>
        <pt x="269" y="59" on="1"/>
        <pt x="417" y="59" on="0"/>
        <pt x="417" y="198" on="1"/>
        <pt x="417" y="254" on="0"/>
        <pt x="352" y="303" on="0"/>
        <pt x="263" y="320" on="1"/>
        <pt x="146" y="345" on="0"/>
        <pt x="48" y="424" on="0"/>
        <pt x="48" y="517" on="1"/>
        <pt x="48" y="703" on="0"/>
        <pt x="271" y="703" on="1"/>
        <pt x="344" y="703" on="0"/>
        <pt x="446" y="688" on="1"/>
        <pt x="480" y="683" on="1"/>
        <pt x="473" y="618" on="1"/>
        <pt x="334" y="635" on="0"/>
      </contour>
      <contour>
        <pt x="108" y="788" on="1"/>
        <pt x="242" y="923" on="1"/>
        <pt x="307" y="923" on="1"/>
        <pt x="441" y="788" on="1"/>
        <pt x="357" y="788" on="1"/>
        <pt x="275" y="868" on="1"/>
        <pt x="192" y="788" on="1"/>
      </contour>
    </TTGlyph>
    <TTGlyph name="Scommaaccent" xMin="48" yMin="-285" xMax="494" yMax="703">
      <contour>
        <pt x="249" y="-78" on="1"/>
        <pt x="323" y="-78" on="1"/>
        <pt x="274" y="-285" on="1"/>
        <pt x="209" y="-285" on="1"/>
      </contour>
      <contour>
        <pt x="276" y="635" on="1"/>
        <pt x="126" y="635" on="0"/>
        <pt x="126" y="522" on="1"/>
        <pt x="126" y="459" on="0"/>
        <pt x="195" y="412" on="0"/>
        <pt x="406" y="365" on="0"/>
        <pt x="494" y="290" on="0"/>
        <pt x="494" y="204" on="1"/>
        <pt x="494" y="-9" on="0"/>
        <pt x="273" y="-9" on="1"/>
        <pt x="200" y="-9" on="0"/>
        <pt x="90" y="8" on="1"/>
        <pt x="54" y="13" on="1"/>
        <pt x="62" y="77" on="1"/>
        <pt x="198" y="59" on="0"/>
        <pt x="269" y="59" on="1"/>
        <pt x="417" y="59" on="0"/>
        <pt x="417" y="198" on="1"/>
        <pt x="417" y="254" on="0"/>
        <pt x="352" y="303" on="0"/>
        <pt x="263" y="320" on="1"/>
        <pt x="146" y="345" on="0"/>
        <pt x="48" y="424" on="0"/>
        <pt x="48" y="517" on="1"/>
        <pt x="48" y="703" on="0"/>
        <pt x="271" y="703" on="1"/>
        <pt x="344" y="703" on="0"/>
        <pt x="446" y="688" on="1"/>
        <pt x="480" y="683" on="1"/>
        <pt x="473" y="618" on="1"/>
        <pt x="334" y="635" on="0"/>
      </contour>
    </TTGlyph>
    <TTGlyph name="T" xMin="13" yMin="0" xMax="513" yMax="692">
      <contour>
        <pt x="13" y="623" on="1"/>
        <pt x="13" y="692" on="1"/>
        <pt x="513" y="692" on="1"/>
        <pt x="513" y="623" on="1"/>
        <pt x="302" y="623" on="1"/>
        <pt x="302" y="0" on="1"/>
        <pt x="226" y="0" on="1"/>
        <pt x="226" y="623" on="1"/>
      </contour>
    </TTGlyph>
    <TTGlyph name="Tbar" xMin="15" yMin="0" xMax="515" yMax="692">
      <contour>
        <pt x="15" y="623" on="1"/>
        <pt x="15" y="692" on="1"/>
        <pt x="515" y="692" on="1"/>
        <pt x="515" y="623" on="1"/>
        <pt x="304" y="623" on="1"/>
        <pt x="304" y="366" on="1"/>
        <pt x="468" y="366" on="1"/>
        <pt x="468" y="300" on="1"/>
        <pt x="304" y="300" on="1"/>
        <pt x="304" y="0" on="1"/>
        <pt x="228" y="0" on="1"/>
        <pt x="228" y="300" on="1"/>
        <pt x="65" y="300" on="1"/>
        <pt x="65" y="366" on="1"/>
        <pt x="228" y="366" on="1"/>
        <pt x="228" y="623" on="1"/>
      </contour>
    </TTGlyph>
    <TTGlyph name="Tcaron" xMin="13" yMin="0" xMax="513" yMax="926">
      <contour>
        <pt x="13" y="623" on="1"/>
        <pt x="13" y="692" on="1"/>
        <pt x="513" y="692" on="1"/>
        <pt x="513" y="623" on="1"/>
        <pt x="302" y="623" on="1"/>
        <pt x="302" y="0" on="1"/>
        <pt x="226" y="0" on="1"/>
        <pt x="226" y="623" on="1"/>
      </contour>
      <contour>
        <pt x="231" y="791" on="1"/>
        <pt x="97" y="926" on="1"/>
        <pt x="181" y="926" on="1"/>
        <pt x="264" y="846" on="1"/>
        <pt x="346" y="926" on="1"/>
        <pt x="430" y="926" on="1"/>
        <pt x="296" y="791" on="1"/>
      </contour>
    </TTGlyph>
    <TTGlyph name="Tcommaaccent" xMin="13" yMin="-285" xMax="513" yMax="692">
      <contour>
        <pt x="246" y="-78" on="1"/>
        <pt x="321" y="-78" on="1"/>
        <pt x="271" y="-285" on="1"/>
        <pt x="206" y="-285" on="1"/>
      </contour>
      <contour>
        <pt x="13" y="623" on="1"/>
        <pt x="13" y="692" on="1"/>
        <pt x="513" y="692" on="1"/>
        <pt x="513" y="623" on="1"/>
        <pt x="302" y="623" on="1"/>
        <pt x="302" y="0" on="1"/>
        <pt x="226" y="0" on="1"/>
        <pt x="226" y="623" on="1"/>
      </contour>
    </TTGlyph>
    <TTGlyph name="Thorn" xMin="85" yMin="0" xMax="560" yMax="696">
      <contour>
        <pt x="337" y="195" on="1"/>
        <pt x="481" y="195" on="0"/>
        <pt x="481" y="361" on="1"/>
        <pt x="481" y="439" on="0"/>
        <pt x="412" y="510" on="0"/>
        <pt x="337" y="510" on="1"/>
        <pt x="162" y="510" on="1"/>
        <pt x="162" y="195" on="1"/>
      </contour>
      <contour>
        <pt x="338" y="121" on="1"/>
        <pt x="162" y="121" on="1"/>
        <pt x="162" y="0" on="1"/>
        <pt x="85" y="0" on="1"/>
        <pt x="85" y="696" on="1"/>
        <pt x="162" y="696" on="1"/>
        <pt x="162" y="584" on="1"/>
        <pt x="338" y="584" on="1"/>
        <pt x="451" y="584" on="0"/>
        <pt x="560" y="474" on="0"/>
        <pt x="560" y="245" on="0"/>
        <pt x="449" y="121" on="0"/>
      </contour>
    </TTGlyph>
    <TTGlyph name="U" xMin="80" yMin="-10" xMax="564" yMax="692">
      <contour>
        <pt x="157" y="208" on="1"/>
        <pt x="157" y="58" on="0"/>
        <pt x="319" y="58" on="1"/>
        <pt x="403" y="58" on="0"/>
        <pt x="488" y="129" on="0"/>
        <pt x="488" y="208" on="1"/>
        <pt x="488" y="692" on="1"/>
        <pt x="564" y="692" on="1"/>
        <pt x="564" y="210" on="1"/>
        <pt x="564" y="94" on="0"/>
        <pt x="441" y="-10" on="0"/>
        <pt x="201" y="-10" on="0"/>
        <pt x="80" y="94" on="0"/>
        <pt x="80" y="210" on="1"/>
        <pt x="80" y="692" on="1"/>
        <pt x="157" y="692" on="1"/>
      </contour>
    </TTGlyph>
    <TTGlyph name="Uacute" xMin="80" yMin="-10" xMax="564" yMax="931">
      <contour>
        <pt x="157" y="208" on="1"/>
        <pt x="157" y="58" on="0"/>
        <pt x="319" y="58" on="1"/>
        <pt x="403" y="58" on="0"/>
        <pt x="488" y="129" on="0"/>
        <pt x="488" y="208" on="1"/>
        <pt x="488" y="692" on="1"/>
        <pt x="564" y="692" on="1"/>
        <pt x="564" y="210" on="1"/>
        <pt x="564" y="94" on="0"/>
        <pt x="441" y="-10" on="0"/>
        <pt x="201" y="-10" on="0"/>
        <pt x="80" y="94" on="0"/>
        <pt x="80" y="210" on="1"/>
        <pt x="80" y="692" on="1"/>
        <pt x="157" y="692" on="1"/>
      </contour>
      <contour>
        <pt x="199" y="831" on="1"/>
        <pt x="415" y="931" on="1"/>
        <pt x="441" y="865" on="1"/>
        <pt x="222" y="778" on="1"/>
      </contour>
    </TTGlyph>
    <TTGlyph name="Ubreve" xMin="80" yMin="-10" xMax="564" yMax="918">
      <contour>
        <pt x="157" y="208" on="1"/>
        <pt x="157" y="58" on="0"/>
        <pt x="319" y="58" on="1"/>
        <pt x="403" y="58" on="0"/>
        <pt x="488" y="129" on="0"/>
        <pt x="488" y="208" on="1"/>
        <pt x="488" y="692" on="1"/>
        <pt x="564" y="692" on="1"/>
        <pt x="564" y="210" on="1"/>
        <pt x="564" y="94" on="0"/>
        <pt x="441" y="-10" on="0"/>
        <pt x="201" y="-10" on="0"/>
        <pt x="80" y="94" on="0"/>
        <pt x="80" y="210" on="1"/>
        <pt x="80" y="692" on="1"/>
        <pt x="157" y="692" on="1"/>
      </contour>
      <contour>
        <pt x="237" y="885" on="0"/>
        <pt x="288" y="843" on="0"/>
        <pt x="361" y="843" on="0"/>
        <pt x="411" y="885" on="0"/>
        <pt x="412" y="918" on="1"/>
        <pt x="482" y="918" on="1"/>
        <pt x="479" y="859" on="0"/>
        <pt x="393" y="787" on="0"/>
        <pt x="255" y="787" on="0"/>
        <pt x="170" y="859" on="0"/>
        <pt x="167" y="918" on="1"/>
        <pt x="236" y="918" on="1"/>
      </contour>
    </TTGlyph>
    <TTGlyph name="Ucircumflex" xMin="80" yMin="-10" xMax="564" yMax="926">
      <contour>
        <pt x="157" y="208" on="1"/>
        <pt x="157" y="58" on="0"/>
        <pt x="319" y="58" on="1"/>
        <pt x="403" y="58" on="0"/>
        <pt x="488" y="129" on="0"/>
        <pt x="488" y="208" on="1"/>
        <pt x="488" y="692" on="1"/>
        <pt x="564" y="692" on="1"/>
        <pt x="564" y="210" on="1"/>
        <pt x="564" y="94" on="0"/>
        <pt x="441" y="-10" on="0"/>
        <pt x="201" y="-10" on="0"/>
        <pt x="80" y="94" on="0"/>
        <pt x="80" y="210" on="1"/>
        <pt x="80" y="692" on="1"/>
        <pt x="157" y="692" on="1"/>
      </contour>
      <contour>
        <pt x="155" y="791" on="1"/>
        <pt x="289" y="926" on="1"/>
        <pt x="354" y="926" on="1"/>
        <pt x="488" y="791" on="1"/>
        <pt x="404" y="791" on="1"/>
        <pt x="322" y="871" on="1"/>
        <pt x="239" y="791" on="1"/>
      </contour>
    </TTGlyph>
    <TTGlyph name="Udieresis" xMin="80" yMin="-10" xMax="564" yMax="898">
      <contour>
        <pt x="157" y="208" on="1"/>
        <pt x="157" y="58" on="0"/>
        <pt x="319" y="58" on="1"/>
        <pt x="403" y="58" on="0"/>
        <pt x="488" y="129" on="0"/>
        <pt x="488" y="208" on="1"/>
        <pt x="488" y="692" on="1"/>
        <pt x="564" y="692" on="1"/>
        <pt x="564" y="210" on="1"/>
        <pt x="564" y="94" on="0"/>
        <pt x="441" y="-10" on="0"/>
        <pt x="201" y="-10" on="0"/>
        <pt x="80" y="94" on="0"/>
        <pt x="80" y="210" on="1"/>
        <pt x="80" y="692" on="1"/>
        <pt x="157" y="692" on="1"/>
      </contour>
      <contour>
        <pt x="184" y="808" on="1"/>
        <pt x="184" y="898" on="1"/>
        <pt x="257" y="898" on="1"/>
        <pt x="257" y="808" on="1"/>
      </contour>
      <contour>
        <pt x="388" y="808" on="1"/>
        <pt x="388" y="898" on="1"/>
        <pt x="460" y="898" on="1"/>
        <pt x="460" y="808" on="1"/>
      </contour>
    </TTGlyph>
    <TTGlyph name="Ugrave" xMin="80" yMin="-10" xMax="564" yMax="931">
      <contour>
        <pt x="157" y="208" on="1"/>
        <pt x="157" y="58" on="0"/>
        <pt x="319" y="58" on="1"/>
        <pt x="403" y="58" on="0"/>
        <pt x="488" y="129" on="0"/>
        <pt x="488" y="208" on="1"/>
        <pt x="488" y="692" on="1"/>
        <pt x="564" y="692" on="1"/>
        <pt x="564" y="210" on="1"/>
        <pt x="564" y="94" on="0"/>
        <pt x="441" y="-10" on="0"/>
        <pt x="201" y="-10" on="0"/>
        <pt x="80" y="94" on="0"/>
        <pt x="80" y="210" on="1"/>
        <pt x="80" y="692" on="1"/>
        <pt x="157" y="692" on="1"/>
      </contour>
      <contour>
        <pt x="222" y="931" on="1"/>
        <pt x="438" y="831" on="1"/>
        <pt x="415" y="778" on="1"/>
        <pt x="196" y="865" on="1"/>
      </contour>
    </TTGlyph>
    <TTGlyph name="Uhungarumlaut" xMin="80" yMin="-10" xMax="564" yMax="917">
      <contour>
        <pt x="157" y="208" on="1"/>
        <pt x="157" y="58" on="0"/>
        <pt x="319" y="58" on="1"/>
        <pt x="403" y="58" on="0"/>
        <pt x="488" y="129" on="0"/>
        <pt x="488" y="208" on="1"/>
        <pt x="488" y="692" on="1"/>
        <pt x="564" y="692" on="1"/>
        <pt x="564" y="210" on="1"/>
        <pt x="564" y="94" on="0"/>
        <pt x="441" y="-10" on="0"/>
        <pt x="201" y="-10" on="0"/>
        <pt x="80" y="94" on="0"/>
        <pt x="80" y="210" on="1"/>
        <pt x="80" y="692" on="1"/>
        <pt x="157" y="692" on="1"/>
      </contour>
      <contour>
        <pt x="352" y="785" on="1"/>
        <pt x="494" y="916" on="1"/>
        <pt x="549" y="881" on="1"/>
        <pt x="403" y="752" on="1"/>
      </contour>
      <contour>
        <pt x="155" y="785" on="1"/>
        <pt x="297" y="917" on="1"/>
        <pt x="351" y="882" on="1"/>
        <pt x="206" y="753" on="1"/>
      </contour>
    </TTGlyph>
    <TTGlyph name="Umacron" xMin="80" yMin="-10" xMax="564" yMax="870">
      <contour>
        <pt x="157" y="208" on="1"/>
        <pt x="157" y="58" on="0"/>
        <pt x="319" y="58" on="1"/>
        <pt x="403" y="58" on="0"/>
        <pt x="488" y="129" on="0"/>
        <pt x="488" y="208" on="1"/>
        <pt x="488" y="692" on="1"/>
        <pt x="564" y="692" on="1"/>
        <pt x="564" y="210" on="1"/>
        <pt x="564" y="94" on="0"/>
        <pt x="441" y="-10" on="0"/>
        <pt x="201" y="-10" on="0"/>
        <pt x="80" y="94" on="0"/>
        <pt x="80" y="210" on="1"/>
        <pt x="80" y="692" on="1"/>
        <pt x="157" y="692" on="1"/>
      </contour>
      <contour>
        <pt x="168" y="812" on="1"/>
        <pt x="168" y="870" on="1"/>
        <pt x="479" y="870" on="1"/>
        <pt x="479" y="812" on="1"/>
      </contour>
    </TTGlyph>
    <TTGlyph name="Uogonek" xMin="80" yMin="-206" xMax="564" yMax="692">
      <contour>
        <pt x="157" y="208" on="1"/>
        <pt x="157" y="58" on="0"/>
        <pt x="319" y="58" on="1"/>
        <pt x="403" y="58" on="0"/>
        <pt x="488" y="129" on="0"/>
        <pt x="488" y="208" on="1"/>
        <pt x="488" y="692" on="1"/>
        <pt x="564" y="692" on="1"/>
        <pt x="564" y="210" on="1"/>
        <pt x="564" y="34" on="0"/>
        <pt x="413" y="0" on="1"/>
        <pt x="404" y="-9" on="1"/>
        <pt x="344" y="-73" on="0"/>
        <pt x="344" y="-102" on="1"/>
        <pt x="344" y="-121" on="0"/>
        <pt x="367" y="-145" on="0"/>
        <pt x="385" y="-145" on="1"/>
        <pt x="435" y="-139" on="1"/>
        <pt x="442" y="-197" on="1"/>
        <pt x="397" y="-206" on="0"/>
        <pt x="323" y="-206" on="0"/>
        <pt x="271" y="-159" on="0"/>
        <pt x="271" y="-73" on="0"/>
        <pt x="334" y="-10" on="1"/>
        <pt x="319" y="-10" on="1"/>
        <pt x="201" y="-10" on="0"/>
        <pt x="80" y="94" on="0"/>
        <pt x="80" y="210" on="1"/>
        <pt x="80" y="692" on="1"/>
        <pt x="157" y="692" on="1"/>
      </contour>
    </TTGlyph>
    <TTGlyph name="Uring" xMin="80" yMin="-10" xMax="564" yMax="951">
      <contour>
        <pt x="157" y="208" on="1"/>
        <pt x="157" y="58" on="0"/>
        <pt x="319" y="58" on="1"/>
        <pt x="403" y="58" on="0"/>
        <pt x="488" y="129" on="0"/>
        <pt x="488" y="208" on="1"/>
        <pt x="488" y="692" on="1"/>
        <pt x="564" y="692" on="1"/>
        <pt x="564" y="210" on="1"/>
        <pt x="564" y="94" on="0"/>
        <pt x="441" y="-10" on="0"/>
        <pt x="201" y="-10" on="0"/>
        <pt x="80" y="94" on="0"/>
        <pt x="80" y="210" on="1"/>
        <pt x="80" y="692" on="1"/>
        <pt x="157" y="692" on="1"/>
      </contour>
      <contour>
        <pt x="376" y="951" on="0"/>
        <pt x="442" y="895" on="0"/>
        <pt x="442" y="796" on="0"/>
        <pt x="376" y="740" on="0"/>
        <pt x="271" y="740" on="0"/>
        <pt x="205" y="796" on="0"/>
        <pt x="205" y="895" on="0"/>
        <pt x="272" y="951" on="0"/>
      </contour>
      <contour>
        <pt x="262" y="846" on="1"/>
        <pt x="262" y="821" on="0"/>
        <pt x="295" y="792" on="0"/>
        <pt x="353" y="792" on="0"/>
        <pt x="386" y="821" on="0"/>
        <pt x="386" y="871" on="0"/>
        <pt x="353" y="899" on="0"/>
        <pt x="324" y="899" on="1"/>
        <pt x="262" y="899" on="0"/>
      </contour>
    </TTGlyph>
    <TTGlyph name="Utilde" xMin="80" yMin="-10" xMax="564" yMax="923">
      <contour>
        <pt x="157" y="208" on="1"/>
        <pt x="157" y="58" on="0"/>
        <pt x="319" y="58" on="1"/>
        <pt x="403" y="58" on="0"/>
        <pt x="488" y="129" on="0"/>
        <pt x="488" y="208" on="1"/>
        <pt x="488" y="692" on="1"/>
        <pt x="564" y="692" on="1"/>
        <pt x="564" y="210" on="1"/>
        <pt x="564" y="94" on="0"/>
        <pt x="441" y="-10" on="0"/>
        <pt x="201" y="-10" on="0"/>
        <pt x="80" y="94" on="0"/>
        <pt x="80" y="210" on="1"/>
        <pt x="80" y="692" on="1"/>
        <pt x="157" y="692" on="1"/>
      </contour>
      <contour>
        <pt x="402" y="803" on="1"/>
        <pt x="381" y="803" on="0"/>
        <pt x="257" y="857" on="0"/>
        <pt x="244" y="857" on="1"/>
        <pt x="222" y="857" on="0"/>
        <pt x="183" y="821" on="1"/>
        <pt x="170" y="809" on="1"/>
        <pt x="153" y="865" on="1"/>
        <pt x="172" y="887" on="0"/>
        <pt x="224" y="923" on="0"/>
        <pt x="270" y="923" on="0"/>
        <pt x="392" y="869" on="0"/>
        <pt x="402" y="869" on="1"/>
        <pt x="422" y="869" on="0"/>
        <pt x="460" y="904" on="1"/>
        <pt x="472" y="915" on="1"/>
        <pt x="490" y="859" on="1"/>
        <pt x="443" y="803" on="0"/>
      </contour>
    </TTGlyph>
    <TTGlyph name="V" xMin="24" yMin="0" xMax="558" yMax="692">
      <contour>
        <pt x="478" y="692" on="1"/>
        <pt x="558" y="692" on="1"/>
        <pt x="377" y="0" on="1"/>
        <pt x="205" y="0" on="1"/>
        <pt x="24" y="692" on="1"/>
        <pt x="104" y="692" on="1"/>
        <pt x="263" y="68" on="1"/>
        <pt x="319" y="68" on="1"/>
      </contour>
    </TTGlyph>
    <TTGlyph name="W" xMin="30" yMin="0" xMax="855" yMax="692">
      <contour>
        <pt x="30" y="692" on="1"/>
        <pt x="110" y="692" on="1"/>
        <pt x="228" y="68" on="1"/>
        <pt x="257" y="68" on="1"/>
        <pt x="398" y="686" on="1"/>
        <pt x="488" y="686" on="1"/>
        <pt x="629" y="68" on="1"/>
        <pt x="658" y="68" on="1"/>
        <pt x="776" y="692" on="1"/>
        <pt x="855" y="692" on="1"/>
        <pt x="715" y="0" on="1"/>
        <pt x="574" y="0" on="1"/>
        <pt x="443" y="591" on="1"/>
        <pt x="312" y="0" on="1"/>
        <pt x="171" y="0" on="1"/>
      </contour>
    </TTGlyph>
    <TTGlyph name="Wacute" xMin="30" yMin="0" xMax="855" yMax="931">
      <contour>
        <pt x="30" y="692" on="1"/>
        <pt x="110" y="692" on="1"/>
        <pt x="228" y="68" on="1"/>
        <pt x="257" y="68" on="1"/>
        <pt x="398" y="686" on="1"/>
        <pt x="488" y="686" on="1"/>
        <pt x="629" y="68" on="1"/>
        <pt x="658" y="68" on="1"/>
        <pt x="776" y="692" on="1"/>
        <pt x="855" y="692" on="1"/>
        <pt x="715" y="0" on="1"/>
        <pt x="574" y="0" on="1"/>
        <pt x="443" y="591" on="1"/>
        <pt x="312" y="0" on="1"/>
        <pt x="171" y="0" on="1"/>
      </contour>
      <contour>
        <pt x="332" y="831" on="1"/>
        <pt x="548" y="931" on="1"/>
        <pt x="574" y="865" on="1"/>
        <pt x="355" y="778" on="1"/>
      </contour>
    </TTGlyph>
    <TTGlyph name="Wcircumflex" xMin="30" yMin="0" xMax="855" yMax="923">
      <contour>
        <pt x="30" y="692" on="1"/>
        <pt x="110" y="692" on="1"/>
        <pt x="228" y="68" on="1"/>
        <pt x="257" y="68" on="1"/>
        <pt x="398" y="686" on="1"/>
        <pt x="488" y="686" on="1"/>
        <pt x="629" y="68" on="1"/>
        <pt x="658" y="68" on="1"/>
        <pt x="776" y="692" on="1"/>
        <pt x="855" y="692" on="1"/>
        <pt x="715" y="0" on="1"/>
        <pt x="574" y="0" on="1"/>
        <pt x="443" y="591" on="1"/>
        <pt x="312" y="0" on="1"/>
        <pt x="171" y="0" on="1"/>
      </contour>
      <contour>
        <pt x="277" y="788" on="1"/>
        <pt x="411" y="923" on="1"/>
        <pt x="476" y="923" on="1"/>
        <pt x="610" y="788" on="1"/>
        <pt x="526" y="788" on="1"/>
        <pt x="444" y="868" on="1"/>
        <pt x="361" y="788" on="1"/>
      </contour>
    </TTGlyph>
    <TTGlyph name="Wdieresis" xMin="30" yMin="0" xMax="855" yMax="898">
      <contour>
        <pt x="30" y="692" on="1"/>
        <pt x="110" y="692" on="1"/>
        <pt x="228" y="68" on="1"/>
        <pt x="257" y="68" on="1"/>
        <pt x="398" y="686" on="1"/>
        <pt x="488" y="686" on="1"/>
        <pt x="629" y="68" on="1"/>
        <pt x="658" y="68" on="1"/>
        <pt x="776" y="692" on="1"/>
        <pt x="855" y="692" on="1"/>
        <pt x="715" y="0" on="1"/>
        <pt x="574" y="0" on="1"/>
        <pt x="443" y="591" on="1"/>
        <pt x="312" y="0" on="1"/>
        <pt x="171" y="0" on="1"/>
      </contour>
      <contour>
        <pt x="304" y="808" on="1"/>
        <pt x="304" y="898" on="1"/>
        <pt x="377" y="898" on="1"/>
        <pt x="377" y="808" on="1"/>
      </contour>
      <contour>
        <pt x="508" y="808" on="1"/>
        <pt x="508" y="898" on="1"/>
        <pt x="580" y="898" on="1"/>
        <pt x="580" y="808" on="1"/>
      </contour>
    </TTGlyph>
    <TTGlyph name="Wgrave" xMin="30" yMin="0" xMax="855" yMax="931">
      <contour>
        <pt x="30" y="692" on="1"/>
        <pt x="110" y="692" on="1"/>
        <pt x="228" y="68" on="1"/>
        <pt x="257" y="68" on="1"/>
        <pt x="398" y="686" on="1"/>
        <pt x="488" y="686" on="1"/>
        <pt x="629" y="68" on="1"/>
        <pt x="658" y="68" on="1"/>
        <pt x="776" y="692" on="1"/>
        <pt x="855" y="692" on="1"/>
        <pt x="715" y="0" on="1"/>
        <pt x="574" y="0" on="1"/>
        <pt x="443" y="591" on="1"/>
        <pt x="312" y="0" on="1"/>
        <pt x="171" y="0" on="1"/>
      </contour>
      <contour>
        <pt x="346" y="931" on="1"/>
        <pt x="562" y="831" on="1"/>
        <pt x="539" y="778" on="1"/>
        <pt x="320" y="865" on="1"/>
      </contour>
    </TTGlyph>
    <TTGlyph name="X" xMin="19" yMin="0" xMax="540" yMax="692">
      <contour>
        <pt x="106" y="692" on="1"/>
        <pt x="281" y="396" on="1"/>
        <pt x="457" y="692" on="1"/>
        <pt x="540" y="692" on="1"/>
        <pt x="327" y="341" on="1"/>
        <pt x="540" y="0" on="1"/>
        <pt x="453" y="0" on="1"/>
        <pt x="279" y="287" on="1"/>
        <pt x="102" y="0" on="1"/>
        <pt x="19" y="0" on="1"/>
        <pt x="233" y="339" on="1"/>
        <pt x="19" y="692" on="1"/>
      </contour>
    </TTGlyph>
    <TTGlyph name="Y" xMin="10" yMin="0" xMax="528" yMax="692">
      <contour>
        <pt x="308" y="0" on="1"/>
        <pt x="231" y="0" on="1"/>
        <pt x="231" y="291" on="1"/>
        <pt x="10" y="692" on="1"/>
        <pt x="97" y="692" on="1"/>
        <pt x="269" y="368" on="1"/>
        <pt x="441" y="692" on="1"/>
        <pt x="528" y="692" on="1"/>
        <pt x="308" y="291" on="1"/>
      </contour>
    </TTGlyph>
    <TTGlyph name="Yacute" xMin="10" yMin="0" xMax="528" yMax="931">
      <contour>
        <pt x="308" y="0" on="1"/>
        <pt x="231" y="0" on="1"/>
        <pt x="231" y="291" on="1"/>
        <pt x="10" y="692" on="1"/>
        <pt x="97" y="692" on="1"/>
        <pt x="269" y="368" on="1"/>
        <pt x="441" y="692" on="1"/>
        <pt x="528" y="692" on="1"/>
        <pt x="308" y="291" on="1"/>
      </contour>
      <contour>
        <pt x="167" y="831" on="1"/>
        <pt x="383" y="931" on="1"/>
        <pt x="409" y="865" on="1"/>
        <pt x="190" y="778" on="1"/>
      </contour>
    </TTGlyph>
    <TTGlyph name="Ycircumflex" xMin="10" yMin="0" xMax="528" yMax="926">
      <contour>
        <pt x="308" y="0" on="1"/>
        <pt x="231" y="0" on="1"/>
        <pt x="231" y="291" on="1"/>
        <pt x="10" y="692" on="1"/>
        <pt x="97" y="692" on="1"/>
        <pt x="269" y="368" on="1"/>
        <pt x="441" y="692" on="1"/>
        <pt x="528" y="692" on="1"/>
        <pt x="308" y="291" on="1"/>
      </contour>
      <contour>
        <pt x="104" y="791" on="1"/>
        <pt x="238" y="926" on="1"/>
        <pt x="303" y="926" on="1"/>
        <pt x="437" y="791" on="1"/>
        <pt x="353" y="791" on="1"/>
        <pt x="271" y="871" on="1"/>
        <pt x="188" y="791" on="1"/>
      </contour>
    </TTGlyph>
    <TTGlyph name="Ydieresis" xMin="10" yMin="0" xMax="528" yMax="898">
      <contour>
        <pt x="308" y="0" on="1"/>
        <pt x="231" y="0" on="1"/>
        <pt x="231" y="291" on="1"/>
        <pt x="10" y="692" on="1"/>
        <pt x="97" y="692" on="1"/>
        <pt x="269" y="368" on="1"/>
        <pt x="441" y="692" on="1"/>
        <pt x="528" y="692" on="1"/>
        <pt x="308" y="291" on="1"/>
      </contour>
      <contour>
        <pt x="130" y="808" on="1"/>
        <pt x="130" y="898" on="1"/>
        <pt x="203" y="898" on="1"/>
        <pt x="203" y="808" on="1"/>
      </contour>
      <contour>
        <pt x="334" y="808" on="1"/>
        <pt x="334" y="898" on="1"/>
        <pt x="406" y="898" on="1"/>
        <pt x="406" y="808" on="1"/>
      </contour>
    </TTGlyph>
    <TTGlyph name="Ygrave" xMin="10" yMin="0" xMax="528" yMax="931">
      <contour>
        <pt x="308" y="0" on="1"/>
        <pt x="231" y="0" on="1"/>
        <pt x="231" y="291" on="1"/>
        <pt x="10" y="692" on="1"/>
        <pt x="97" y="692" on="1"/>
        <pt x="269" y="368" on="1"/>
        <pt x="441" y="692" on="1"/>
        <pt x="528" y="692" on="1"/>
        <pt x="308" y="291" on="1"/>
      </contour>
      <contour>
        <pt x="166" y="931" on="1"/>
        <pt x="382" y="831" on="1"/>
        <pt x="359" y="778" on="1"/>
        <pt x="140" y="865" on="1"/>
      </contour>
    </TTGlyph>
    <TTGlyph name="Z" xMin="43" yMin="-1" xMax="493" yMax="692">
      <contour>
        <pt x="43" y="624" on="1"/>
        <pt x="43" y="692" on="1"/>
        <pt x="493" y="692" on="1"/>
        <pt x="493" y="602" on="1"/>
        <pt x="131" y="88" on="1"/>
        <pt x="131" y="68" on="1"/>
        <pt x="493" y="68" on="1"/>
        <pt x="493" y="-1" on="1"/>
        <pt x="43" y="-1" on="1"/>
        <pt x="43" y="88" on="1"/>
        <pt x="404" y="602" on="1"/>
        <pt x="404" y="624" on="1"/>
      </contour>
    </TTGlyph>
    <TTGlyph name="Zacute" xMin="43" yMin="-1" xMax="493" yMax="931">
      <contour>
        <pt x="43" y="624" on="1"/>
        <pt x="43" y="692" on="1"/>
        <pt x="493" y="692" on="1"/>
        <pt x="493" y="602" on="1"/>
        <pt x="131" y="88" on="1"/>
        <pt x="131" y="68" on="1"/>
        <pt x="493" y="68" on="1"/>
        <pt x="493" y="-1" on="1"/>
        <pt x="43" y="-1" on="1"/>
        <pt x="43" y="88" on="1"/>
        <pt x="404" y="602" on="1"/>
        <pt x="404" y="624" on="1"/>
      </contour>
      <contour>
        <pt x="153" y="831" on="1"/>
        <pt x="369" y="931" on="1"/>
        <pt x="395" y="865" on="1"/>
        <pt x="176" y="778" on="1"/>
      </contour>
    </TTGlyph>
    <TTGlyph name="Zcaron" xMin="43" yMin="-1" xMax="493" yMax="926">
      <contour>
        <pt x="43" y="624" on="1"/>
        <pt x="43" y="692" on="1"/>
        <pt x="493" y="692" on="1"/>
        <pt x="493" y="602" on="1"/>
        <pt x="131" y="88" on="1"/>
        <pt x="131" y="68" on="1"/>
        <pt x="493" y="68" on="1"/>
        <pt x="493" y="-1" on="1"/>
        <pt x="43" y="-1" on="1"/>
        <pt x="43" y="88" on="1"/>
        <pt x="404" y="602" on="1"/>
        <pt x="404" y="624" on="1"/>
      </contour>
      <contour>
        <pt x="243" y="791" on="1"/>
        <pt x="109" y="926" on="1"/>
        <pt x="193" y="926" on="1"/>
        <pt x="276" y="846" on="1"/>
        <pt x="358" y="926" on="1"/>
        <pt x="442" y="926" on="1"/>
        <pt x="308" y="791" on="1"/>
      </contour>
    </TTGlyph>
    <TTGlyph name="Zdotaccent" xMin="43" yMin="-1" xMax="493" yMax="888">
      <contour>
        <pt x="43" y="624" on="1"/>
        <pt x="43" y="692" on="1"/>
        <pt x="493" y="692" on="1"/>
        <pt x="493" y="602" on="1"/>
        <pt x="131" y="88" on="1"/>
        <pt x="131" y="68" on="1"/>
        <pt x="493" y="68" on="1"/>
        <pt x="493" y="-1" on="1"/>
        <pt x="43" y="-1" on="1"/>
        <pt x="43" y="88" on="1"/>
        <pt x="404" y="602" on="1"/>
        <pt x="404" y="624" on="1"/>
      </contour>
      <contour>
        <pt x="230" y="801" on="1"/>
        <pt x="230" y="888" on="1"/>
        <pt x="304" y="888" on="1"/>
        <pt x="304" y="801" on="1"/>
      </contour>
    </TTGlyph>
    <TTGlyph name="a" xMin="40" yMin="-10" xMax="483" yMax="510">
      <contour>
        <pt x="425" y="349" on="1"/>
        <pt x="425" y="93" on="1"/>
        <pt x="428" y="56" on="0"/>
        <pt x="483" y="49" on="1"/>
        <pt x="480" y="-10" on="1"/>
        <pt x="401" y="-10" on="0"/>
        <pt x="361" y="30" on="1"/>
        <pt x="271" y="-10" on="0"/>
        <pt x="181" y="-10" on="1"/>
        <pt x="112" y="-10" on="0"/>
        <pt x="40" y="68" on="0"/>
        <pt x="40" y="214" on="0"/>
        <pt x="114" y="283" on="0"/>
        <pt x="193" y="291" on="1"/>
        <pt x="350" y="306" on="1"/>
        <pt x="350" y="349" on="1"/>
        <pt x="350" y="400" on="0"/>
        <pt x="306" y="444" on="0"/>
        <pt x="268" y="444" on="1"/>
        <pt x="188" y="444" on="0"/>
        <pt x="102" y="434" on="1"/>
        <pt x="71" y="431" on="1"/>
        <pt x="68" y="488" on="1"/>
        <pt x="178" y="510" on="0"/>
        <pt x="348" y="510" on="0"/>
        <pt x="425" y="432" on="0"/>
      </contour>
      <contour>
        <pt x="117" y="145" on="1"/>
        <pt x="117" y="53" on="0"/>
        <pt x="193" y="53" on="1"/>
        <pt x="261" y="53" on="0"/>
        <pt x="327" y="76" on="1"/>
        <pt x="350" y="84" on="1"/>
        <pt x="350" y="249" on="1"/>
        <pt x="202" y="235" on="1"/>
        <pt x="157" y="231" on="0"/>
        <pt x="117" y="187" on="0"/>
      </contour>
    </TTGlyph>
    <TTGlyph name="aacute" xMin="40" yMin="-10" xMax="483" yMax="740">
      <contour>
        <pt x="425" y="349" on="1"/>
        <pt x="425" y="93" on="1"/>
        <pt x="428" y="56" on="0"/>
        <pt x="483" y="49" on="1"/>
        <pt x="480" y="-10" on="1"/>
        <pt x="401" y="-10" on="0"/>
        <pt x="361" y="30" on="1"/>
        <pt x="271" y="-10" on="0"/>
        <pt x="181" y="-10" on="1"/>
        <pt x="112" y="-10" on="0"/>
        <pt x="40" y="68" on="0"/>
        <pt x="40" y="214" on="0"/>
        <pt x="114" y="283" on="0"/>
        <pt x="193" y="291" on="1"/>
        <pt x="350" y="306" on="1"/>
        <pt x="350" y="349" on="1"/>
        <pt x="350" y="400" on="0"/>
        <pt x="306" y="444" on="0"/>
        <pt x="268" y="444" on="1"/>
        <pt x="188" y="444" on="0"/>
        <pt x="102" y="434" on="1"/>
        <pt x="71" y="431" on="1"/>
        <pt x="68" y="488" on="1"/>
        <pt x="178" y="510" on="0"/>
        <pt x="348" y="510" on="0"/>
        <pt x="425" y="432" on="0"/>
      </contour>
      <contour>
        <pt x="117" y="145" on="1"/>
        <pt x="117" y="53" on="0"/>
        <pt x="193" y="53" on="1"/>
        <pt x="261" y="53" on="0"/>
        <pt x="327" y="76" on="1"/>
        <pt x="350" y="84" on="1"/>
        <pt x="350" y="249" on="1"/>
        <pt x="202" y="235" on="1"/>
        <pt x="157" y="231" on="0"/>
        <pt x="117" y="187" on="0"/>
      </contour>
      <contour>
        <pt x="118" y="642" on="1"/>
        <pt x="334" y="740" on="1"/>
        <pt x="360" y="676" on="1"/>
        <pt x="139" y="591" on="1"/>
      </contour>
    </TTGlyph>
    <TTGlyph name="abreve" xMin="40" yMin="-10" xMax="482" yMax="733">
      <contour>
        <pt x="425" y="347" on="1"/>
        <pt x="425" y="101" on="1"/>
        <pt x="426" y="62" on="0"/>
        <pt x="482" y="55" on="1"/>
        <pt x="480" y="-10" on="1"/>
        <pt x="398" y="-10" on="0"/>
        <pt x="361" y="28" on="1"/>
        <pt x="336" y="18" on="1"/>
        <pt x="311" y="9" on="0"/>
        <pt x="219" y="-10" on="0"/>
        <pt x="176" y="-10" on="1"/>
        <pt x="111" y="-10" on="0"/>
        <pt x="40" y="70" on="0"/>
        <pt x="40" y="214" on="0"/>
        <pt x="114" y="284" on="0"/>
        <pt x="193" y="291" on="1"/>
        <pt x="193" y="291" on="0"/>
        <pt x="350" y="306" on="1"/>
        <pt x="350" y="347" on="1"/>
        <pt x="350" y="438" on="0"/>
        <pt x="263" y="438" on="1"/>
        <pt x="190" y="438" on="0"/>
        <pt x="72" y="425" on="1"/>
        <pt x="69" y="490" on="1"/>
        <pt x="101" y="495" on="1"/>
        <pt x="197" y="510" on="0"/>
        <pt x="267" y="510" on="1"/>
        <pt x="347" y="510" on="0"/>
        <pt x="425" y="431" on="0"/>
      </contour>
      <contour>
        <pt x="188" y="55" on="1"/>
        <pt x="263" y="55" on="0"/>
        <pt x="350" y="85" on="1"/>
        <pt x="350" y="245" on="1"/>
        <pt x="202" y="233" on="1"/>
        <pt x="117" y="225" on="0"/>
        <pt x="117" y="145" on="1"/>
        <pt x="117" y="102" on="0"/>
        <pt x="154" y="55" on="0"/>
      </contour>
      <contour>
        <pt x="171" y="699" on="0"/>
        <pt x="214" y="658" on="0"/>
        <pt x="291" y="658" on="0"/>
        <pt x="335" y="699" on="0"/>
        <pt x="336" y="733" on="1"/>
        <pt x="413" y="733" on="1"/>
        <pt x="410" y="670" on="0"/>
        <pt x="325" y="591" on="0"/>
        <pt x="180" y="591" on="0"/>
        <pt x="95" y="670" on="0"/>
        <pt x="92" y="733" on="1"/>
        <pt x="169" y="733" on="1"/>
      </contour>
    </TTGlyph>
    <TTGlyph name="acircumflex" xMin="40" yMin="-10" xMax="483" yMax="732">
      <contour>
        <pt x="425" y="349" on="1"/>
        <pt x="425" y="93" on="1"/>
        <pt x="428" y="56" on="0"/>
        <pt x="483" y="49" on="1"/>
        <pt x="480" y="-10" on="1"/>
        <pt x="401" y="-10" on="0"/>
        <pt x="361" y="30" on="1"/>
        <pt x="271" y="-10" on="0"/>
        <pt x="181" y="-10" on="1"/>
        <pt x="112" y="-10" on="0"/>
        <pt x="40" y="68" on="0"/>
        <pt x="40" y="214" on="0"/>
        <pt x="114" y="283" on="0"/>
        <pt x="193" y="291" on="1"/>
        <pt x="350" y="306" on="1"/>
        <pt x="350" y="349" on="1"/>
        <pt x="350" y="400" on="0"/>
        <pt x="306" y="444" on="0"/>
        <pt x="268" y="444" on="1"/>
        <pt x="188" y="444" on="0"/>
        <pt x="102" y="434" on="1"/>
        <pt x="71" y="431" on="1"/>
        <pt x="68" y="488" on="1"/>
        <pt x="178" y="510" on="0"/>
        <pt x="348" y="510" on="0"/>
        <pt x="425" y="432" on="0"/>
      </contour>
      <contour>
        <pt x="117" y="145" on="1"/>
        <pt x="117" y="53" on="0"/>
        <pt x="193" y="53" on="1"/>
        <pt x="261" y="53" on="0"/>
        <pt x="327" y="76" on="1"/>
        <pt x="350" y="84" on="1"/>
        <pt x="350" y="249" on="1"/>
        <pt x="202" y="235" on="1"/>
        <pt x="157" y="231" on="0"/>
        <pt x="117" y="187" on="0"/>
      </contour>
      <contour>
        <pt x="95" y="592" on="1"/>
        <pt x="218" y="732" on="1"/>
        <pt x="269" y="732" on="1"/>
        <pt x="393" y="592" on="1"/>
        <pt x="318" y="592" on="1"/>
        <pt x="245" y="679" on="1"/>
        <pt x="170" y="592" on="1"/>
      </contour>
    </TTGlyph>
    <TTGlyph name="acute" xMin="26" yMin="591" xMax="268" yMax="740">
      <contour>
        <pt x="26" y="642" on="1"/>
        <pt x="242" y="740" on="1"/>
        <pt x="268" y="676" on="1"/>
        <pt x="47" y="591" on="1"/>
      </contour>
    </TTGlyph>
    <TTGlyph name="acute.cap" xMin="12" yMin="778" xMax="254" yMax="931">
      <contour>
        <pt x="12" y="831" on="1"/>
        <pt x="228" y="931" on="1"/>
        <pt x="254" y="865" on="1"/>
        <pt x="35" y="778" on="1"/>
      </contour>
    </TTGlyph>
    <TTGlyph name="adieresis" xMin="40" yMin="-10" xMax="483" yMax="711">
      <contour>
        <pt x="425" y="349" on="1"/>
        <pt x="425" y="93" on="1"/>
        <pt x="428" y="56" on="0"/>
        <pt x="483" y="49" on="1"/>
        <pt x="480" y="-10" on="1"/>
        <pt x="401" y="-10" on="0"/>
        <pt x="361" y="30" on="1"/>
        <pt x="271" y="-10" on="0"/>
        <pt x="181" y="-10" on="1"/>
        <pt x="112" y="-10" on="0"/>
        <pt x="40" y="68" on="0"/>
        <pt x="40" y="214" on="0"/>
        <pt x="114" y="283" on="0"/>
        <pt x="193" y="291" on="1"/>
        <pt x="350" y="306" on="1"/>
        <pt x="350" y="349" on="1"/>
        <pt x="350" y="400" on="0"/>
        <pt x="306" y="444" on="0"/>
        <pt x="268" y="444" on="1"/>
        <pt x="188" y="444" on="0"/>
        <pt x="102" y="434" on="1"/>
        <pt x="71" y="431" on="1"/>
        <pt x="68" y="488" on="1"/>
        <pt x="178" y="510" on="0"/>
        <pt x="348" y="510" on="0"/>
        <pt x="425" y="432" on="0"/>
      </contour>
      <contour>
        <pt x="117" y="145" on="1"/>
        <pt x="117" y="53" on="0"/>
        <pt x="193" y="53" on="1"/>
        <pt x="261" y="53" on="0"/>
        <pt x="327" y="76" on="1"/>
        <pt x="350" y="84" on="1"/>
        <pt x="350" y="249" on="1"/>
        <pt x="202" y="235" on="1"/>
        <pt x="157" y="231" on="0"/>
        <pt x="117" y="187" on="0"/>
      </contour>
      <contour>
        <pt x="105" y="621" on="1"/>
        <pt x="105" y="711" on="1"/>
        <pt x="177" y="711" on="1"/>
        <pt x="177" y="621" on="1"/>
      </contour>
      <contour>
        <pt x="305" y="621" on="1"/>
        <pt x="305" y="711" on="1"/>
        <pt x="378" y="711" on="1"/>
        <pt x="378" y="621" on="1"/>
      </contour>
    </TTGlyph>
    <TTGlyph name="ae" xMin="40" yMin="-10" xMax="759" yMax="510">
      <contour>
        <pt x="710" y="65" on="1"/>
        <pt x="739" y="67" on="1"/>
        <pt x="741" y="6" on="1"/>
        <pt x="628" y="-10" on="0"/>
        <pt x="448" y="-10" on="0"/>
        <pt x="400" y="44" on="1"/>
        <pt x="368" y="30" on="1"/>
        <pt x="281" y="-10" on="0"/>
        <pt x="176" y="-10" on="1"/>
        <pt x="109" y="-10" on="0"/>
        <pt x="40" y="69" on="0"/>
        <pt x="40" y="223" on="0"/>
        <pt x="122" y="284" on="0"/>
        <pt x="221" y="294" on="1"/>
        <pt x="350" y="306" on="1"/>
        <pt x="350" y="347" on="1"/>
        <pt x="350" y="438" on="0"/>
        <pt x="263" y="438" on="1"/>
        <pt x="197" y="438" on="0"/>
        <pt x="104" y="430" on="1"/>
        <pt x="73" y="428" on="1"/>
        <pt x="70" y="495" on="1"/>
        <pt x="189" y="510" on="0"/>
        <pt x="267" y="510" on="1"/>
        <pt x="369" y="510" on="0"/>
        <pt x="402" y="437" on="1"/>
        <pt x="450" y="510" on="0"/>
        <pt x="659" y="510" on="0"/>
        <pt x="759" y="397" on="0"/>
        <pt x="759" y="276" on="1"/>
        <pt x="755" y="218" on="1"/>
        <pt x="425" y="218" on="1"/>
        <pt x="425" y="136" on="0"/>
        <pt x="485" y="58" on="0"/>
        <pt x="608" y="58" on="0"/>
      </contour>
      <contour>
        <pt x="188" y="55" on="1"/>
        <pt x="234" y="55" on="0"/>
        <pt x="352" y="84" on="0"/>
        <pt x="367" y="92" on="1"/>
        <pt x="348" y="143" on="0"/>
        <pt x="348" y="245" on="1"/>
        <pt x="202" y="233" on="1"/>
        <pt x="158" y="229" on="0"/>
        <pt x="117" y="187" on="0"/>
        <pt x="117" y="145" on="1"/>
        <pt x="117" y="55" on="0"/>
      </contour>
      <contour>
        <pt x="425" y="279" on="1"/>
        <pt x="684" y="279" on="1"/>
        <pt x="684" y="368" on="0"/>
        <pt x="625" y="443" on="0"/>
        <pt x="492" y="443" on="0"/>
        <pt x="425" y="365" on="0"/>
      </contour>
    </TTGlyph>
    <TTGlyph name="aeacute" xMin="40" yMin="-10" xMax="759" yMax="740">
      <contour>
        <pt x="710" y="65" on="1"/>
        <pt x="739" y="67" on="1"/>
        <pt x="741" y="6" on="1"/>
        <pt x="628" y="-10" on="0"/>
        <pt x="448" y="-10" on="0"/>
        <pt x="400" y="44" on="1"/>
        <pt x="368" y="30" on="1"/>
        <pt x="281" y="-10" on="0"/>
        <pt x="176" y="-10" on="1"/>
        <pt x="109" y="-10" on="0"/>
        <pt x="40" y="69" on="0"/>
        <pt x="40" y="223" on="0"/>
        <pt x="122" y="284" on="0"/>
        <pt x="221" y="294" on="1"/>
        <pt x="350" y="306" on="1"/>
        <pt x="350" y="347" on="1"/>
        <pt x="350" y="438" on="0"/>
        <pt x="263" y="438" on="1"/>
        <pt x="197" y="438" on="0"/>
        <pt x="104" y="430" on="1"/>
        <pt x="73" y="428" on="1"/>
        <pt x="70" y="495" on="1"/>
        <pt x="189" y="510" on="0"/>
        <pt x="267" y="510" on="1"/>
        <pt x="369" y="510" on="0"/>
        <pt x="402" y="437" on="1"/>
        <pt x="450" y="510" on="0"/>
        <pt x="659" y="510" on="0"/>
        <pt x="759" y="397" on="0"/>
        <pt x="759" y="276" on="1"/>
        <pt x="755" y="218" on="1"/>
        <pt x="425" y="218" on="1"/>
        <pt x="425" y="136" on="0"/>
        <pt x="485" y="58" on="0"/>
        <pt x="608" y="58" on="0"/>
      </contour>
      <contour>
        <pt x="188" y="55" on="1"/>
        <pt x="234" y="55" on="0"/>
        <pt x="352" y="84" on="0"/>
        <pt x="367" y="92" on="1"/>
        <pt x="348" y="143" on="0"/>
        <pt x="348" y="245" on="1"/>
        <pt x="202" y="233" on="1"/>
        <pt x="158" y="229" on="0"/>
        <pt x="117" y="187" on="0"/>
        <pt x="117" y="145" on="1"/>
        <pt x="117" y="55" on="0"/>
      </contour>
      <contour>
        <pt x="425" y="279" on="1"/>
        <pt x="684" y="279" on="1"/>
        <pt x="684" y="368" on="0"/>
        <pt x="625" y="443" on="0"/>
        <pt x="492" y="443" on="0"/>
        <pt x="425" y="365" on="0"/>
      </contour>
      <contour>
        <pt x="290" y="642" on="1"/>
        <pt x="506" y="740" on="1"/>
        <pt x="532" y="676" on="1"/>
        <pt x="311" y="591" on="1"/>
      </contour>
    </TTGlyph>
    <TTGlyph name="agrave" xMin="40" yMin="-10" xMax="483" yMax="740">
      <contour>
        <pt x="425" y="349" on="1"/>
        <pt x="425" y="93" on="1"/>
        <pt x="428" y="56" on="0"/>
        <pt x="483" y="49" on="1"/>
        <pt x="480" y="-10" on="1"/>
        <pt x="401" y="-10" on="0"/>
        <pt x="361" y="30" on="1"/>
        <pt x="271" y="-10" on="0"/>
        <pt x="181" y="-10" on="1"/>
        <pt x="112" y="-10" on="0"/>
        <pt x="40" y="68" on="0"/>
        <pt x="40" y="214" on="0"/>
        <pt x="114" y="283" on="0"/>
        <pt x="193" y="291" on="1"/>
        <pt x="350" y="306" on="1"/>
        <pt x="350" y="349" on="1"/>
        <pt x="350" y="400" on="0"/>
        <pt x="306" y="444" on="0"/>
        <pt x="268" y="444" on="1"/>
        <pt x="188" y="444" on="0"/>
        <pt x="102" y="434" on="1"/>
        <pt x="71" y="431" on="1"/>
        <pt x="68" y="488" on="1"/>
        <pt x="178" y="510" on="0"/>
        <pt x="348" y="510" on="0"/>
        <pt x="425" y="432" on="0"/>
      </contour>
      <contour>
        <pt x="117" y="145" on="1"/>
        <pt x="117" y="53" on="0"/>
        <pt x="193" y="53" on="1"/>
        <pt x="261" y="53" on="0"/>
        <pt x="327" y="76" on="1"/>
        <pt x="350" y="84" on="1"/>
        <pt x="350" y="249" on="1"/>
        <pt x="202" y="235" on="1"/>
        <pt x="157" y="231" on="0"/>
        <pt x="117" y="187" on="0"/>
      </contour>
      <contour>
        <pt x="147" y="740" on="1"/>
        <pt x="363" y="642" on="1"/>
        <pt x="342" y="591" on="1"/>
        <pt x="121" y="676" on="1"/>
      </contour>
    </TTGlyph>
    <TTGlyph name="amacron" xMin="40" yMin="-10" xMax="483" yMax="683">
      <contour>
        <pt x="425" y="349" on="1"/>
        <pt x="425" y="93" on="1"/>
        <pt x="428" y="56" on="0"/>
        <pt x="483" y="49" on="1"/>
        <pt x="480" y="-10" on="1"/>
        <pt x="401" y="-10" on="0"/>
        <pt x="361" y="30" on="1"/>
        <pt x="271" y="-10" on="0"/>
        <pt x="181" y="-10" on="1"/>
        <pt x="112" y="-10" on="0"/>
        <pt x="40" y="68" on="0"/>
        <pt x="40" y="214" on="0"/>
        <pt x="114" y="283" on="0"/>
        <pt x="193" y="291" on="1"/>
        <pt x="350" y="306" on="1"/>
        <pt x="350" y="349" on="1"/>
        <pt x="350" y="400" on="0"/>
        <pt x="306" y="444" on="0"/>
        <pt x="268" y="444" on="1"/>
        <pt x="188" y="444" on="0"/>
        <pt x="102" y="434" on="1"/>
        <pt x="71" y="431" on="1"/>
        <pt x="68" y="488" on="1"/>
        <pt x="178" y="510" on="0"/>
        <pt x="348" y="510" on="0"/>
        <pt x="425" y="432" on="0"/>
      </contour>
      <contour>
        <pt x="117" y="145" on="1"/>
        <pt x="117" y="53" on="0"/>
        <pt x="193" y="53" on="1"/>
        <pt x="261" y="53" on="0"/>
        <pt x="327" y="76" on="1"/>
        <pt x="350" y="84" on="1"/>
        <pt x="350" y="249" on="1"/>
        <pt x="202" y="235" on="1"/>
        <pt x="157" y="231" on="0"/>
        <pt x="117" y="187" on="0"/>
      </contour>
      <contour>
        <pt x="112" y="624" on="1"/>
        <pt x="112" y="683" on="1"/>
        <pt x="387" y="683" on="1"/>
        <pt x="387" y="624" on="1"/>
      </contour>
    </TTGlyph>
    <TTGlyph name="ampersand" xMin="42" yMin="-10" xMax="669" yMax="701">
      <contour>
        <pt x="140" y="621" on="0"/>
        <pt x="232" y="701" on="0"/>
        <pt x="400" y="701" on="0"/>
        <pt x="487" y="621" on="0"/>
        <pt x="487" y="480" on="0"/>
        <pt x="417" y="399" on="0"/>
        <pt x="333" y="360" on="1"/>
        <pt x="485" y="210" on="1"/>
        <pt x="507" y="274" on="0"/>
        <pt x="513" y="372" on="1"/>
        <pt x="586" y="371" on="1"/>
        <pt x="573" y="246" on="0"/>
        <pt x="540" y="163" on="1"/>
        <pt x="669" y="41" on="1"/>
        <pt x="624" y="-9" on="1"/>
        <pt x="503" y="104" on="1"/>
        <pt x="434" y="-10" on="0"/>
        <pt x="154" y="-10" on="0"/>
        <pt x="42" y="98" on="0"/>
        <pt x="42" y="289" on="0"/>
        <pt x="115" y="378" on="0"/>
        <pt x="197" y="405" on="1"/>
        <pt x="162" y="445" on="0"/>
        <pt x="140" y="507" on="0"/>
        <pt x="140" y="554" on="1"/>
      </contour>
      <contour>
        <pt x="282" y="58" on="1"/>
        <pt x="405" y="58" on="0"/>
        <pt x="451" y="148" on="1"/>
        <pt x="240" y="358" on="1"/>
        <pt x="174" y="337" on="0"/>
        <pt x="118" y="271" on="0"/>
        <pt x="118" y="202" on="1"/>
        <pt x="118" y="58" on="0"/>
      </contour>
      <contour>
        <pt x="215" y="542" on="1"/>
        <pt x="215" y="481" on="0"/>
        <pt x="260" y="433" on="1"/>
        <pt x="289" y="405" on="1"/>
        <pt x="358" y="435" on="0"/>
        <pt x="412" y="493" on="0"/>
        <pt x="412" y="544" on="1"/>
        <pt x="412" y="636" on="0"/>
        <pt x="215" y="636" on="0"/>
      </contour>
    </TTGlyph>
    <TTGlyph name="aogonek" xMin="40" yMin="-206" xMax="483" yMax="510">
      <contour>
        <pt x="425" y="349" on="1"/>
        <pt x="425" y="93" on="1"/>
        <pt x="428" y="56" on="0"/>
        <pt x="483" y="49" on="1"/>
        <pt x="480" y="-10" on="1"/>
        <pt x="468" y="-10" on="0"/>
        <pt x="446" y="-8" on="1"/>
        <pt x="385" y="-72" on="0"/>
        <pt x="385" y="-102" on="1"/>
        <pt x="385" y="-121" on="0"/>
        <pt x="408" y="-145" on="0"/>
        <pt x="426" y="-145" on="1"/>
        <pt x="476" y="-139" on="1"/>
        <pt x="483" y="-197" on="1"/>
        <pt x="438" y="-206" on="0"/>
        <pt x="364" y="-206" on="0"/>
        <pt x="312" y="-159" on="0"/>
        <pt x="312" y="-95" on="0"/>
        <pt x="331" y="-65" on="1"/>
        <pt x="358" y="-22" on="0"/>
        <pt x="393" y="6" on="1"/>
        <pt x="377" y="14" on="0"/>
        <pt x="361" y="30" on="1"/>
        <pt x="271" y="-10" on="0"/>
        <pt x="181" y="-10" on="1"/>
        <pt x="112" y="-10" on="0"/>
        <pt x="40" y="68" on="0"/>
        <pt x="40" y="214" on="0"/>
        <pt x="114" y="283" on="0"/>
        <pt x="193" y="291" on="1"/>
        <pt x="350" y="306" on="1"/>
        <pt x="350" y="349" on="1"/>
        <pt x="350" y="400" on="0"/>
        <pt x="306" y="444" on="0"/>
        <pt x="268" y="444" on="1"/>
        <pt x="188" y="444" on="0"/>
        <pt x="102" y="434" on="1"/>
        <pt x="71" y="431" on="1"/>
        <pt x="68" y="488" on="1"/>
        <pt x="178" y="510" on="0"/>
        <pt x="348" y="510" on="0"/>
        <pt x="425" y="432" on="0"/>
      </contour>
      <contour>
        <pt x="117" y="145" on="1"/>
        <pt x="117" y="53" on="0"/>
        <pt x="193" y="53" on="1"/>
        <pt x="261" y="53" on="0"/>
        <pt x="327" y="76" on="1"/>
        <pt x="350" y="84" on="1"/>
        <pt x="350" y="249" on="1"/>
        <pt x="202" y="235" on="1"/>
        <pt x="157" y="231" on="0"/>
        <pt x="117" y="187" on="0"/>
      </contour>
    </TTGlyph>
    <TTGlyph name="approxequal" xMin="64" yMin="85" xMax="495" yMax="400">
      <contour>
        <pt x="379" y="270" on="1"/>
        <pt x="352" y="270" on="0"/>
        <pt x="200" y="332" on="0"/>
        <pt x="181" y="332" on="1"/>
        <pt x="145" y="332" on="0"/>
        <pt x="93" y="296" on="1"/>
        <pt x="76" y="285" on="1"/>
        <pt x="64" y="347" on="1"/>
        <pt x="127" y="400" on="0"/>
        <pt x="181" y="400" on="1"/>
        <pt x="211" y="400" on="0"/>
        <pt x="361" y="339" on="0"/>
        <pt x="380" y="339" on="1"/>
        <pt x="415" y="339" on="0"/>
        <pt x="468" y="374" on="1"/>
        <pt x="485" y="385" on="1"/>
        <pt x="495" y="324" on="1"/>
        <pt x="432" y="270" on="0"/>
      </contour>
      <contour>
        <pt x="379" y="85" on="1"/>
        <pt x="352" y="85" on="0"/>
        <pt x="200" y="147" on="0"/>
        <pt x="162" y="147" on="0"/>
        <pt x="110" y="124" on="0"/>
        <pt x="93" y="112" on="1"/>
        <pt x="76" y="100" on="1"/>
        <pt x="64" y="162" on="1"/>
        <pt x="127" y="215" on="0"/>
        <pt x="181" y="215" on="1"/>
        <pt x="211" y="215" on="0"/>
        <pt x="361" y="154" on="0"/>
        <pt x="380" y="154" on="1"/>
        <pt x="415" y="154" on="0"/>
        <pt x="468" y="188" on="1"/>
        <pt x="485" y="200" on="1"/>
        <pt x="495" y="139" on="1"/>
        <pt x="432" y="85" on="0"/>
      </contour>
    </TTGlyph>
    <TTGlyph name="aring" xMin="40" yMin="-10" xMax="483" yMax="749">
      <contour>
        <pt x="425" y="349" on="1"/>
        <pt x="425" y="93" on="1"/>
        <pt x="428" y="56" on="0"/>
        <pt x="483" y="49" on="1"/>
        <pt x="480" y="-10" on="1"/>
        <pt x="401" y="-10" on="0"/>
        <pt x="361" y="30" on="1"/>
        <pt x="271" y="-10" on="0"/>
        <pt x="181" y="-10" on="1"/>
        <pt x="112" y="-10" on="0"/>
        <pt x="40" y="68" on="0"/>
        <pt x="40" y="214" on="0"/>
        <pt x="114" y="283" on="0"/>
        <pt x="193" y="291" on="1"/>
        <pt x="350" y="306" on="1"/>
        <pt x="350" y="349" on="1"/>
        <pt x="350" y="400" on="0"/>
        <pt x="306" y="444" on="0"/>
        <pt x="268" y="444" on="1"/>
        <pt x="188" y="444" on="0"/>
        <pt x="102" y="434" on="1"/>
        <pt x="71" y="431" on="1"/>
        <pt x="68" y="488" on="1"/>
        <pt x="178" y="510" on="0"/>
        <pt x="348" y="510" on="0"/>
        <pt x="425" y="432" on="0"/>
      </contour>
      <contour>
        <pt x="117" y="145" on="1"/>
        <pt x="117" y="53" on="0"/>
        <pt x="193" y="53" on="1"/>
        <pt x="261" y="53" on="0"/>
        <pt x="327" y="76" on="1"/>
        <pt x="350" y="84" on="1"/>
        <pt x="350" y="249" on="1"/>
        <pt x="202" y="235" on="1"/>
        <pt x="157" y="231" on="0"/>
        <pt x="117" y="187" on="0"/>
      </contour>
      <contour>
        <pt x="151" y="601" on="0"/>
        <pt x="151" y="689" on="0"/>
        <pt x="211" y="749" on="0"/>
        <pt x="298" y="749" on="0"/>
        <pt x="358" y="689" on="0"/>
        <pt x="358" y="601" on="0"/>
        <pt x="299" y="541" on="0"/>
        <pt x="211" y="541" on="0"/>
      </contour>
      <contour>
        <pt x="232" y="701" on="0"/>
        <pt x="200" y="668" on="0"/>
        <pt x="200" y="621" on="0"/>
        <pt x="232" y="588" on="0"/>
        <pt x="278" y="588" on="0"/>
        <pt x="310" y="621" on="0"/>
        <pt x="310" y="668" on="0"/>
        <pt x="278" y="701" on="0"/>
      </contour>
    </TTGlyph>
    <TTGlyph name="aringacute" xMin="40" yMin="-10" xMax="483" yMax="922">
      <contour>
        <pt x="425" y="349" on="1"/>
        <pt x="425" y="93" on="1"/>
        <pt x="428" y="56" on="0"/>
        <pt x="483" y="49" on="1"/>
        <pt x="480" y="-10" on="1"/>
        <pt x="401" y="-10" on="0"/>
        <pt x="361" y="30" on="1"/>
        <pt x="271" y="-10" on="0"/>
        <pt x="181" y="-10" on="1"/>
        <pt x="112" y="-10" on="0"/>
        <pt x="40" y="68" on="0"/>
        <pt x="40" y="214" on="0"/>
        <pt x="114" y="283" on="0"/>
        <pt x="193" y="291" on="1"/>
        <pt x="350" y="306" on="1"/>
        <pt x="350" y="349" on="1"/>
        <pt x="350" y="400" on="0"/>
        <pt x="306" y="444" on="0"/>
        <pt x="268" y="444" on="1"/>
        <pt x="188" y="444" on="0"/>
        <pt x="102" y="434" on="1"/>
        <pt x="71" y="431" on="1"/>
        <pt x="68" y="488" on="1"/>
        <pt x="178" y="510" on="0"/>
        <pt x="348" y="510" on="0"/>
        <pt x="425" y="432" on="0"/>
      </contour>
      <contour>
        <pt x="117" y="145" on="1"/>
        <pt x="117" y="53" on="0"/>
        <pt x="193" y="53" on="1"/>
        <pt x="261" y="53" on="0"/>
        <pt x="327" y="76" on="1"/>
        <pt x="350" y="84" on="1"/>
        <pt x="350" y="249" on="1"/>
        <pt x="202" y="235" on="1"/>
        <pt x="157" y="231" on="0"/>
        <pt x="117" y="187" on="0"/>
      </contour>
      <contour>
        <pt x="142" y="601" on="0"/>
        <pt x="142" y="689" on="0"/>
        <pt x="202" y="749" on="0"/>
        <pt x="289" y="749" on="0"/>
        <pt x="349" y="689" on="0"/>
        <pt x="349" y="601" on="0"/>
        <pt x="290" y="541" on="0"/>
        <pt x="202" y="541" on="0"/>
      </contour>
      <contour>
        <pt x="223" y="701" on="0"/>
        <pt x="191" y="668" on="0"/>
        <pt x="191" y="621" on="0"/>
        <pt x="223" y="588" on="0"/>
        <pt x="269" y="588" on="0"/>
        <pt x="301" y="621" on="0"/>
        <pt x="301" y="668" on="0"/>
        <pt x="269" y="701" on="0"/>
      </contour>
      <contour>
        <pt x="132" y="824" on="1"/>
        <pt x="348" y="922" on="1"/>
        <pt x="374" y="858" on="1"/>
        <pt x="153" y="773" on="1"/>
      </contour>
    </TTGlyph>
    <TTGlyph name="asciicircum" xMin="58" yMin="319" xMax="501" yMax="660">
      <contour>
        <pt x="421" y="319" on="1"/>
        <pt x="278" y="586" on="1"/>
        <pt x="138" y="319" on="1"/>
        <pt x="58" y="319" on="1"/>
        <pt x="243" y="660" on="1"/>
        <pt x="310" y="660" on="1"/>
        <pt x="501" y="319" on="1"/>
      </contour>
    </TTGlyph>
    <TTGlyph name="asciitilde" xMin="67" yMin="195" xMax="495" yMax="325">
      <contour>
        <pt x="379" y="195" on="1"/>
        <pt x="352" y="195" on="0"/>
        <pt x="201" y="257" on="0"/>
        <pt x="164" y="257" on="0"/>
        <pt x="112" y="234" on="0"/>
        <pt x="95" y="222" on="1"/>
        <pt x="78" y="210" on="1"/>
        <pt x="67" y="272" on="1"/>
        <pt x="129" y="325" on="0"/>
        <pt x="183" y="325" on="1"/>
        <pt x="212" y="325" on="0"/>
        <pt x="361" y="264" on="0"/>
        <pt x="380" y="264" on="1"/>
        <pt x="415" y="264" on="0"/>
        <pt x="468" y="298" on="1"/>
        <pt x="485" y="310" on="1"/>
        <pt x="495" y="249" on="1"/>
        <pt x="432" y="195" on="0"/>
      </contour>
    </TTGlyph>
    <TTGlyph name="asterisk" xMin="54" yMin="371" xMax="373" yMax="704">
      <contour>
        <pt x="373" y="511" on="1"/>
        <pt x="241" y="511" on="1"/>
        <pt x="282" y="386" on="1"/>
        <pt x="233" y="371" on="1"/>
        <pt x="192" y="497" on="1"/>
        <pt x="85" y="418" on="1"/>
        <pt x="54" y="458" on="1"/>
        <pt x="162" y="537" on="1"/>
        <pt x="56" y="614" on="1"/>
        <pt x="87" y="656" on="1"/>
        <pt x="193" y="578" on="1"/>
        <pt x="234" y="704" on="1"/>
        <pt x="283" y="688" on="1"/>
        <pt x="243" y="561" on="1"/>
        <pt x="373" y="561" on="1"/>
      </contour>
    </TTGlyph>
    <TTGlyph name="at" xMin="51" yMin="-203" xMax="933" yMax="723">
      <contour>
        <pt x="933" y="305" on="1"/>
        <pt x="933" y="292" on="1"/>
        <pt x="933" y="80" on="0"/>
        <pt x="866" y="25" on="1"/>
        <pt x="842" y="6" on="0"/>
        <pt x="793" y="-6" on="0"/>
        <pt x="730" y="-6" on="0"/>
        <pt x="685" y="6" on="0"/>
        <pt x="673" y="15" on="1"/>
        <pt x="649" y="33" on="0"/>
        <pt x="640" y="54" on="1"/>
        <pt x="542" y="-5" on="0"/>
        <pt x="466" y="-5" on="1"/>
        <pt x="429" y="-5" on="0"/>
        <pt x="374" y="13" on="0"/>
        <pt x="346" y="38" on="1"/>
        <pt x="290" y="88" on="0"/>
        <pt x="290" y="378" on="0"/>
        <pt x="381" y="505" on="0"/>
        <pt x="493" y="505" on="1"/>
        <pt x="536" y="505" on="0"/>
        <pt x="590" y="486" on="1"/>
        <pt x="608" y="479" on="1"/>
        <pt x="608" y="495" on="1"/>
        <pt x="683" y="495" on="1"/>
        <pt x="683" y="304" on="1"/>
        <pt x="683" y="129" on="0"/>
        <pt x="694" y="96" on="1"/>
        <pt x="699" y="83" on="0"/>
        <pt x="718" y="61" on="0"/>
        <pt x="740" y="57" on="0"/>
        <pt x="794" y="57" on="0"/>
        <pt x="831" y="83" on="0"/>
        <pt x="857" y="189" on="0"/>
        <pt x="857" y="292" on="1"/>
        <pt x="857" y="306" on="1"/>
        <pt x="857" y="491" on="0"/>
        <pt x="693" y="657" on="0"/>
        <pt x="312" y="657" on="0"/>
        <pt x="127" y="468" on="0"/>
        <pt x="127" y="43" on="0"/>
        <pt x="303" y="-137" on="0"/>
        <pt x="504" y="-137" on="1"/>
        <pt x="647" y="-127" on="1"/>
        <pt x="650" y="-194" on="1"/>
        <pt x="556" y="-203" on="0"/>
        <pt x="504" y="-203" on="1"/>
        <pt x="388" y="-203" on="0"/>
        <pt x="227" y="-159" on="0"/>
        <pt x="168" y="-106" on="1"/>
        <pt x="51" y="-4" on="0"/>
        <pt x="51" y="261" on="1"/>
        <pt x="51" y="502" on="0"/>
        <pt x="281" y="723" on="0"/>
        <pt x="727" y="723" on="0"/>
        <pt x="933" y="518" on="0"/>
      </contour>
      <contour>
        <pt x="471" y="61" on="1"/>
        <pt x="514" y="61" on="0"/>
        <pt x="617" y="107" on="1"/>
        <pt x="608" y="161" on="0"/>
        <pt x="608" y="280" on="1"/>
        <pt x="608" y="419" on="1"/>
        <pt x="548" y="439" on="0"/>
        <pt x="505" y="439" on="1"/>
        <pt x="424" y="439" on="0"/>
        <pt x="366" y="347" on="0"/>
        <pt x="366" y="244" on="1"/>
        <pt x="366" y="61" on="0"/>
      </contour>
    </TTGlyph>
    <TTGlyph name="at.cap" xMin="49" yMin="-148" xMax="931" yMax="778">
      <contour>
        <pt x="931" y="360" on="1"/>
        <pt x="931" y="347" on="1"/>
        <pt x="931" y="135" on="0"/>
        <pt x="864" y="80" on="1"/>
        <pt x="840" y="61" on="0"/>
        <pt x="791" y="49" on="0"/>
        <pt x="728" y="49" on="0"/>
        <pt x="683" y="61" on="0"/>
        <pt x="671" y="70" on="1"/>
        <pt x="647" y="88" on="0"/>
        <pt x="638" y="109" on="1"/>
        <pt x="540" y="50" on="0"/>
        <pt x="464" y="50" on="1"/>
        <pt x="427" y="50" on="0"/>
        <pt x="372" y="68" on="0"/>
        <pt x="344" y="92" on="1"/>
        <pt x="288" y="143" on="0"/>
        <pt x="288" y="433" on="0"/>
        <pt x="378" y="560" on="0"/>
        <pt x="491" y="560" on="1"/>
        <pt x="534" y="560" on="0"/>
        <pt x="588" y="540" on="1"/>
        <pt x="606" y="534" on="1"/>
        <pt x="606" y="550" on="1"/>
        <pt x="681" y="550" on="1"/>
        <pt x="681" y="359" on="1"/>
        <pt x="681" y="184" on="0"/>
        <pt x="692" y="151" on="1"/>
        <pt x="697" y="138" on="0"/>
        <pt x="716" y="116" on="0"/>
        <pt x="738" y="112" on="0"/>
        <pt x="792" y="112" on="0"/>
        <pt x="829" y="138" on="0"/>
        <pt x="855" y="244" on="0"/>
        <pt x="855" y="347" on="1"/>
        <pt x="855" y="361" on="1"/>
        <pt x="855" y="546" on="0"/>
        <pt x="691" y="712" on="0"/>
        <pt x="310" y="712" on="0"/>
        <pt x="125" y="523" on="0"/>
        <pt x="125" y="98" on="0"/>
        <pt x="301" y="-82" on="0"/>
        <pt x="502" y="-82" on="1"/>
        <pt x="645" y="-72" on="1"/>
        <pt x="648" y="-139" on="1"/>
        <pt x="554" y="-148" on="0"/>
        <pt x="502" y="-148" on="1"/>
        <pt x="386" y="-148" on="0"/>
        <pt x="225" y="-104" on="0"/>
        <pt x="166" y="-52" on="1"/>
        <pt x="49" y="51" on="0"/>
        <pt x="49" y="316" on="1"/>
        <pt x="49" y="557" on="0"/>
        <pt x="279" y="778" on="0"/>
        <pt x="725" y="778" on="0"/>
        <pt x="931" y="573" on="0"/>
      </contour>
      <contour>
        <pt x="469" y="116" on="1"/>
        <pt x="512" y="116" on="0"/>
        <pt x="615" y="162" on="1"/>
        <pt x="606" y="216" on="0"/>
        <pt x="606" y="335" on="1"/>
        <pt x="606" y="474" on="1"/>
        <pt x="546" y="494" on="0"/>
        <pt x="503" y="494" on="1"/>
        <pt x="422" y="494" on="0"/>
        <pt x="364" y="402" on="0"/>
        <pt x="364" y="299" on="1"/>
        <pt x="364" y="116" on="0"/>
      </contour>
    </TTGlyph>
    <TTGlyph name="atilde" xMin="40" yMin="-10" xMax="483" yMax="719">
      <contour>
        <pt x="425" y="349" on="1"/>
        <pt x="425" y="93" on="1"/>
        <pt x="428" y="56" on="0"/>
        <pt x="483" y="49" on="1"/>
        <pt x="480" y="-10" on="1"/>
        <pt x="401" y="-10" on="0"/>
        <pt x="361" y="30" on="1"/>
        <pt x="271" y="-10" on="0"/>
        <pt x="181" y="-10" on="1"/>
        <pt x="112" y="-10" on="0"/>
        <pt x="40" y="68" on="0"/>
        <pt x="40" y="214" on="0"/>
        <pt x="114" y="283" on="0"/>
        <pt x="193" y="291" on="1"/>
        <pt x="350" y="306" on="1"/>
        <pt x="350" y="349" on="1"/>
        <pt x="350" y="400" on="0"/>
        <pt x="306" y="444" on="0"/>
        <pt x="268" y="444" on="1"/>
        <pt x="188" y="444" on="0"/>
        <pt x="102" y="434" on="1"/>
        <pt x="71" y="431" on="1"/>
        <pt x="68" y="488" on="1"/>
        <pt x="178" y="510" on="0"/>
        <pt x="348" y="510" on="0"/>
        <pt x="425" y="432" on="0"/>
      </contour>
      <contour>
        <pt x="117" y="145" on="1"/>
        <pt x="117" y="53" on="0"/>
        <pt x="193" y="53" on="1"/>
        <pt x="261" y="53" on="0"/>
        <pt x="327" y="76" on="1"/>
        <pt x="350" y="84" on="1"/>
        <pt x="350" y="249" on="1"/>
        <pt x="202" y="235" on="1"/>
        <pt x="157" y="231" on="0"/>
        <pt x="117" y="187" on="0"/>
      </contour>
      <contour>
        <pt x="307" y="612" on="1"/>
        <pt x="286" y="612" on="0"/>
        <pt x="183" y="659" on="0"/>
        <pt x="170" y="659" on="1"/>
        <pt x="147" y="659" on="0"/>
        <pt x="108" y="629" on="1"/>
        <pt x="95" y="619" on="1"/>
        <pt x="77" y="667" on="1"/>
        <pt x="127" y="719" on="0"/>
        <pt x="168" y="719" on="1"/>
        <pt x="189" y="719" on="0"/>
        <pt x="293" y="673" on="0"/>
        <pt x="304" y="673" on="1"/>
        <pt x="326" y="673" on="0"/>
        <pt x="364" y="702" on="1"/>
        <pt x="376" y="711" on="1"/>
        <pt x="393" y="663" on="1"/>
        <pt x="347" y="612" on="0"/>
      </contour>
    </TTGlyph>
    <TTGlyph name="b" xMin="72" yMin="-10" xMax="475" yMax="718">
      <contour>
        <pt x="293" y="510" on="1"/>
        <pt x="394" y="510" on="0"/>
        <pt x="475" y="395" on="0"/>
        <pt x="475" y="107" on="0"/>
        <pt x="374" y="-10" on="0"/>
        <pt x="239" y="-10" on="1"/>
        <pt x="197" y="-10" on="0"/>
        <pt x="100" y="-2" on="1"/>
        <pt x="72" y="1" on="1"/>
        <pt x="72" y="718" on="1"/>
        <pt x="146" y="718" on="1"/>
        <pt x="146" y="475" on="1"/>
        <pt x="222" y="510" on="0"/>
      </contour>
      <contour>
        <pt x="238" y="57" on="1"/>
        <pt x="336" y="57" on="0"/>
        <pt x="399" y="146" on="0"/>
        <pt x="399" y="358" on="0"/>
        <pt x="349" y="443" on="0"/>
        <pt x="285" y="443" on="1"/>
        <pt x="227" y="443" on="0"/>
        <pt x="166" y="421" on="1"/>
        <pt x="146" y="414" on="1"/>
        <pt x="146" y="62" on="1"/>
        <pt x="211" y="57" on="0"/>
      </contour>
    </TTGlyph>
    <TTGlyph name="backslash" xMin="30" yMin="-14" xMax="405" yMax="707">
      <contour>
        <pt x="405" y="14" on="1"/>
        <pt x="338" y="-14" on="1"/>
        <pt x="30" y="678" on="1"/>
        <pt x="97" y="707" on="1"/>
      </contour>
    </TTGlyph>
    <TTGlyph name="bar" xMin="78" yMin="-222" xMax="152" yMax="718">
      <contour>
        <pt x="78" y="-222" on="1"/>
        <pt x="78" y="718" on="1"/>
        <pt x="152" y="718" on="1"/>
        <pt x="152" y="-222" on="1"/>
      </contour>
    </TTGlyph>
    <TTGlyph name="braceleft" xMin="24" yMin="-128" xMax="312" yMax="755">
      <contour>
        <pt x="197" y="575" on="1"/>
        <pt x="204" y="452" on="1"/>
        <pt x="204" y="388" on="0"/>
        <pt x="161" y="330" on="0"/>
        <pt x="99" y="312" on="1"/>
        <pt x="160" y="294" on="0"/>
        <pt x="204" y="233" on="0"/>
        <pt x="204" y="170" on="1"/>
        <pt x="197" y="54" on="1"/>
        <pt x="197" y="-2" on="0"/>
        <pt x="246" y="-59" on="0"/>
        <pt x="312" y="-63" on="1"/>
        <pt x="310" y="-128" on="1"/>
        <pt x="209" y="-124" on="0"/>
        <pt x="124" y="-43" on="0"/>
        <pt x="124" y="47" on="1"/>
        <pt x="131" y="169" on="1"/>
        <pt x="131" y="212" on="0"/>
        <pt x="81" y="265" on="0"/>
        <pt x="24" y="281" on="1"/>
        <pt x="24" y="342" on="1"/>
        <pt x="81" y="355" on="0"/>
        <pt x="131" y="408" on="0"/>
        <pt x="131" y="451" on="1"/>
        <pt x="124" y="579" on="1"/>
        <pt x="124" y="671" on="0"/>
        <pt x="209" y="751" on="0"/>
        <pt x="311" y="755" on="1"/>
        <pt x="312" y="690" on="1"/>
        <pt x="246" y="686" on="0"/>
        <pt x="197" y="631" on="0"/>
      </contour>
    </TTGlyph>
    <TTGlyph name="braceleft.cap" xMin="25" yMin="-98" xMax="313" yMax="785">
      <contour>
        <pt x="198" y="605" on="1"/>
        <pt x="205" y="482" on="1"/>
        <pt x="205" y="418" on="0"/>
        <pt x="162" y="360" on="0"/>
        <pt x="100" y="342" on="1"/>
        <pt x="161" y="324" on="0"/>
        <pt x="205" y="263" on="0"/>
        <pt x="205" y="200" on="1"/>
        <pt x="198" y="84" on="1"/>
        <pt x="198" y="28" on="0"/>
        <pt x="247" y="-29" on="0"/>
        <pt x="313" y="-33" on="1"/>
        <pt x="311" y="-98" on="1"/>
        <pt x="210" y="-94" on="0"/>
        <pt x="125" y="-13" on="0"/>
        <pt x="125" y="77" on="1"/>
        <pt x="132" y="199" on="1"/>
        <pt x="132" y="242" on="0"/>
        <pt x="82" y="295" on="0"/>
        <pt x="25" y="311" on="1"/>
        <pt x="25" y="372" on="1"/>
        <pt x="82" y="385" on="0"/>
        <pt x="132" y="438" on="0"/>
        <pt x="132" y="481" on="1"/>
        <pt x="125" y="609" on="1"/>
        <pt x="125" y="701" on="0"/>
        <pt x="210" y="781" on="0"/>
        <pt x="312" y="785" on="1"/>
        <pt x="313" y="720" on="1"/>
        <pt x="247" y="716" on="0"/>
        <pt x="198" y="661" on="0"/>
      </contour>
    </TTGlyph>
    <TTGlyph name="braceright" xMin="40" yMin="-128" xMax="328" yMax="755">
      <contour>
        <pt x="155" y="54" on="1"/>
        <pt x="148" y="170" on="1"/>
        <pt x="148" y="233" on="0"/>
        <pt x="192" y="294" on="0"/>
        <pt x="253" y="312" on="1"/>
        <pt x="191" y="330" on="0"/>
        <pt x="148" y="388" on="0"/>
        <pt x="148" y="452" on="1"/>
        <pt x="155" y="575" on="1"/>
        <pt x="155" y="631" on="0"/>
        <pt x="106" y="686" on="0"/>
        <pt x="40" y="690" on="1"/>
        <pt x="41" y="755" on="1"/>
        <pt x="143" y="751" on="0"/>
        <pt x="228" y="671" on="0"/>
        <pt x="228" y="579" on="1"/>
        <pt x="221" y="451" on="1"/>
        <pt x="221" y="408" on="0"/>
        <pt x="271" y="355" on="0"/>
        <pt x="328" y="342" on="1"/>
        <pt x="328" y="281" on="1"/>
        <pt x="271" y="265" on="0"/>
        <pt x="221" y="212" on="0"/>
        <pt x="221" y="169" on="1"/>
        <pt x="228" y="47" on="1"/>
        <pt x="228" y="-43" on="0"/>
        <pt x="143" y="-124" on="0"/>
        <pt x="42" y="-128" on="1"/>
        <pt x="40" y="-63" on="1"/>
        <pt x="106" y="-59" on="0"/>
        <pt x="155" y="-2" on="0"/>
      </contour>
    </TTGlyph>
    <TTGlyph name="braceright.cap" xMin="39" yMin="-100" xMax="327" yMax="783">
      <contour>
        <pt x="154" y="80" on="1"/>
        <pt x="147" y="203" on="1"/>
        <pt x="147" y="267" on="0"/>
        <pt x="190" y="325" on="0"/>
        <pt x="252" y="343" on="1"/>
        <pt x="191" y="361" on="0"/>
        <pt x="147" y="422" on="0"/>
        <pt x="147" y="485" on="1"/>
        <pt x="154" y="601" on="1"/>
        <pt x="154" y="657" on="0"/>
        <pt x="105" y="714" on="0"/>
        <pt x="39" y="718" on="1"/>
        <pt x="41" y="783" on="1"/>
        <pt x="142" y="779" on="0"/>
        <pt x="227" y="698" on="0"/>
        <pt x="227" y="608" on="1"/>
        <pt x="220" y="486" on="1"/>
        <pt x="220" y="443" on="0"/>
        <pt x="270" y="390" on="0"/>
        <pt x="327" y="374" on="1"/>
        <pt x="327" y="313" on="1"/>
        <pt x="270" y="300" on="0"/>
        <pt x="220" y="247" on="0"/>
        <pt x="220" y="204" on="1"/>
        <pt x="227" y="76" on="1"/>
        <pt x="227" y="-16" on="0"/>
        <pt x="142" y="-96" on="0"/>
        <pt x="40" y="-100" on="1"/>
        <pt x="39" y="-35" on="1"/>
        <pt x="105" y="-31" on="0"/>
        <pt x="154" y="24" on="0"/>
      </contour>
    </TTGlyph>
    <TTGlyph name="bracketleft" xMin="79" yMin="-123" xMax="289" yMax="749">
      <contour>
        <pt x="289" y="749" on="1"/>
        <pt x="289" y="682" on="1"/>
        <pt x="155" y="682" on="1"/>
        <pt x="155" y="-56" on="1"/>
        <pt x="289" y="-56" on="1"/>
        <pt x="289" y="-123" on="1"/>
        <pt x="79" y="-123" on="1"/>
        <pt x="79" y="749" on="1"/>
      </contour>
    </TTGlyph>
    <TTGlyph name="bracketleft.cap" xMin="79" yMin="-93" xMax="289" yMax="779">
      <contour>
        <pt x="289" y="779" on="1"/>
        <pt x="289" y="712" on="1"/>
        <pt x="155" y="712" on="1"/>
        <pt x="155" y="-26" on="1"/>
        <pt x="289" y="-26" on="1"/>
        <pt x="289" y="-93" on="1"/>
        <pt x="79" y="-93" on="1"/>
        <pt x="79" y="779" on="1"/>
      </contour>
    </TTGlyph>
    <TTGlyph name="bracketright" xMin="40" yMin="-123" xMax="250" yMax="749">
      <contour>
        <pt x="40" y="682" on="1"/>
        <pt x="40" y="749" on="1"/>
        <pt x="250" y="749" on="1"/>
        <pt x="250" y="-123" on="1"/>
        <pt x="40" y="-123" on="1"/>
        <pt x="40" y="-56" on="1"/>
        <pt x="174" y="-56" on="1"/>
        <pt x="174" y="682" on="1"/>
      </contour>
    </TTGlyph>
    <TTGlyph name="bracketright.cap" xMin="40" yMin="-93" xMax="250" yMax="779">
      <contour>
        <pt x="40" y="712" on="1"/>
        <pt x="40" y="779" on="1"/>
        <pt x="250" y="779" on="1"/>
        <pt x="250" y="-93" on="1"/>
        <pt x="40" y="-93" on="1"/>
        <pt x="40" y="-26" on="1"/>
        <pt x="174" y="-26" on="1"/>
        <pt x="174" y="712" on="1"/>
      </contour>
    </TTGlyph>
    <TTGlyph name="breve" xMin="-17" yMin="586" xMax="280" yMax="726">
      <contour>
        <pt x="46" y="688" on="0"/>
        <pt x="92" y="642" on="0"/>
        <pt x="171" y="642" on="0"/>
        <pt x="217" y="688" on="0"/>
        <pt x="218" y="726" on="1"/>
        <pt x="280" y="726" on="1"/>
        <pt x="277" y="666" on="0"/>
        <pt x="197" y="586" on="0"/>
        <pt x="66" y="586" on="0"/>
        <pt x="-14" y="666" on="0"/>
        <pt x="-17" y="726" on="1"/>
        <pt x="44" y="726" on="1"/>
      </contour>
    </TTGlyph>
    <TTGlyph name="breve.cap" xMin="-21" yMin="787" xMax="294" yMax="918">
      <contour>
        <pt x="49" y="885" on="0"/>
        <pt x="100" y="843" on="0"/>
        <pt x="173" y="843" on="0"/>
        <pt x="223" y="885" on="0"/>
        <pt x="224" y="918" on="1"/>
        <pt x="294" y="918" on="1"/>
        <pt x="291" y="859" on="0"/>
        <pt x="205" y="787" on="0"/>
        <pt x="67" y="787" on="0"/>
        <pt x="-18" y="859" on="0"/>
        <pt x="-21" y="918" on="1"/>
        <pt x="48" y="918" on="1"/>
      </contour>
    </TTGlyph>
    <TTGlyph name="brokenbar" xMin="80" yMin="-222" xMax="154" yMax="718">
      <contour>
        <pt x="80" y="718" on="1"/>
        <pt x="154" y="718" on="1"/>
        <pt x="154" y="344" on="1"/>
        <pt x="80" y="344" on="1"/>
      </contour>
      <contour>
        <pt x="80" y="156" on="1"/>
        <pt x="154" y="156" on="1"/>
        <pt x="154" y="-222" on="1"/>
        <pt x="80" y="-222" on="1"/>
      </contour>
    </TTGlyph>
    <TTGlyph name="bullet" xMin="111" yMin="106" xMax="361" yMax="392">
      <contour>
        <pt x="111" y="106" on="1"/>
        <pt x="111" y="392" on="1"/>
        <pt x="361" y="392" on="1"/>
        <pt x="361" y="106" on="1"/>
      </contour>
    </TTGlyph>
    <TTGlyph name="c" xMin="51" yMin="-10" xMax="396" yMax="510">
      <contour>
        <pt x="259" y="510" on="1"/>
        <pt x="292" y="510" on="0"/>
        <pt x="371" y="498" on="1"/>
        <pt x="395" y="495" on="1"/>
        <pt x="392" y="434" on="1"/>
        <pt x="312" y="443" on="0"/>
        <pt x="274" y="443" on="1"/>
        <pt x="189" y="443" on="0"/>
        <pt x="128" y="362" on="0"/>
        <pt x="128" y="143" on="0"/>
        <pt x="185" y="57" on="0"/>
        <pt x="275" y="57" on="1"/>
        <pt x="393" y="66" on="1"/>
        <pt x="396" y="4" on="1"/>
        <pt x="303" y="-10" on="0"/>
        <pt x="257" y="-10" on="1"/>
        <pt x="140" y="-10" on="0"/>
        <pt x="51" y="110" on="0"/>
        <pt x="51" y="395" on="0"/>
        <pt x="147" y="510" on="0"/>
      </contour>
    </TTGlyph>
    <TTGlyph name="cacute" xMin="51" yMin="-10" xMax="396" yMax="740">
      <contour>
        <pt x="259" y="510" on="1"/>
        <pt x="292" y="510" on="0"/>
        <pt x="371" y="498" on="1"/>
        <pt x="395" y="495" on="1"/>
        <pt x="392" y="434" on="1"/>
        <pt x="312" y="443" on="0"/>
        <pt x="274" y="443" on="1"/>
        <pt x="189" y="443" on="0"/>
        <pt x="128" y="362" on="0"/>
        <pt x="128" y="143" on="0"/>
        <pt x="185" y="57" on="0"/>
        <pt x="275" y="57" on="1"/>
        <pt x="393" y="66" on="1"/>
        <pt x="396" y="4" on="1"/>
        <pt x="303" y="-10" on="0"/>
        <pt x="257" y="-10" on="1"/>
        <pt x="140" y="-10" on="0"/>
        <pt x="51" y="110" on="0"/>
        <pt x="51" y="395" on="0"/>
        <pt x="147" y="510" on="0"/>
      </contour>
      <contour>
        <pt x="126" y="642" on="1"/>
        <pt x="342" y="740" on="1"/>
        <pt x="368" y="676" on="1"/>
        <pt x="147" y="591" on="1"/>
      </contour>
    </TTGlyph>
    <TTGlyph name="caron" xMin="-17" yMin="592" xMax="281" yMax="732">
      <contour>
        <pt x="106" y="592" on="1"/>
        <pt x="-17" y="732" on="1"/>
        <pt x="57" y="732" on="1"/>
        <pt x="132" y="645" on="1"/>
        <pt x="206" y="732" on="1"/>
        <pt x="281" y="732" on="1"/>
        <pt x="156" y="592" on="1"/>
      </contour>
    </TTGlyph>
    <TTGlyph name="caron.cap" xMin="-35" yMin="791" xMax="298" yMax="926">
      <contour>
        <pt x="99" y="791" on="1"/>
        <pt x="-35" y="926" on="1"/>
        <pt x="49" y="926" on="1"/>
        <pt x="132" y="846" on="1"/>
        <pt x="214" y="926" on="1"/>
        <pt x="298" y="926" on="1"/>
        <pt x="164" y="791" on="1"/>
      </contour>
    </TTGlyph>
    <TTGlyph name="ccaron" xMin="51" yMin="-10" xMax="396" yMax="732">
      <contour>
        <pt x="259" y="510" on="1"/>
        <pt x="292" y="510" on="0"/>
        <pt x="371" y="498" on="1"/>
        <pt x="395" y="495" on="1"/>
        <pt x="392" y="434" on="1"/>
        <pt x="312" y="443" on="0"/>
        <pt x="274" y="443" on="1"/>
        <pt x="189" y="443" on="0"/>
        <pt x="128" y="362" on="0"/>
        <pt x="128" y="143" on="0"/>
        <pt x="185" y="57" on="0"/>
        <pt x="275" y="57" on="1"/>
        <pt x="393" y="66" on="1"/>
        <pt x="396" y="4" on="1"/>
        <pt x="303" y="-10" on="0"/>
        <pt x="257" y="-10" on="1"/>
        <pt x="140" y="-10" on="0"/>
        <pt x="51" y="110" on="0"/>
        <pt x="51" y="395" on="0"/>
        <pt x="147" y="510" on="0"/>
      </contour>
      <contour>
        <pt x="214" y="592" on="1"/>
        <pt x="91" y="732" on="1"/>
        <pt x="165" y="732" on="1"/>
        <pt x="240" y="645" on="1"/>
        <pt x="314" y="732" on="1"/>
        <pt x="389" y="732" on="1"/>
        <pt x="264" y="592" on="1"/>
      </contour>
    </TTGlyph>
    <TTGlyph name="ccedilla" xMin="51" yMin="-217" xMax="396" yMax="510">
      <contour>
        <pt x="360" y="-127" on="1"/>
        <pt x="360" y="-217" on="0"/>
        <pt x="267" y="-217" on="1"/>
        <pt x="221" y="-217" on="0"/>
        <pt x="192" y="-212" on="1"/>
        <pt x="181" y="-210" on="1"/>
        <pt x="184" y="-162" on="1"/>
        <pt x="223" y="-165" on="0"/>
        <pt x="250" y="-165" on="1"/>
        <pt x="294" y="-165" on="0"/>
        <pt x="294" y="-127" on="1"/>
        <pt x="294" y="-93" on="0"/>
        <pt x="250" y="-93" on="1"/>
        <pt x="208" y="-93" on="1"/>
        <pt x="208" y="-7" on="1"/>
        <pt x="120" y="3" on="0"/>
        <pt x="51" y="125" on="0"/>
        <pt x="51" y="395" on="0"/>
        <pt x="147" y="510" on="0"/>
        <pt x="259" y="510" on="1"/>
        <pt x="292" y="510" on="0"/>
        <pt x="371" y="498" on="1"/>
        <pt x="395" y="495" on="1"/>
        <pt x="392" y="434" on="1"/>
        <pt x="312" y="443" on="0"/>
        <pt x="274" y="443" on="1"/>
        <pt x="189" y="443" on="0"/>
        <pt x="128" y="362" on="0"/>
        <pt x="128" y="143" on="0"/>
        <pt x="185" y="57" on="0"/>
        <pt x="275" y="57" on="1"/>
        <pt x="393" y="66" on="1"/>
        <pt x="396" y="4" on="1"/>
        <pt x="303" y="-10" on="0"/>
        <pt x="257" y="-10" on="1"/>
        <pt x="249" y="-10" on="1"/>
        <pt x="249" y="-49" on="1"/>
        <pt x="308" y="-49" on="0"/>
        <pt x="360" y="-81" on="0"/>
      </contour>
    </TTGlyph>
    <TTGlyph name="ccircumflex" xMin="51" yMin="-10" xMax="396" yMax="732">
      <contour>
        <pt x="259" y="510" on="1"/>
        <pt x="292" y="510" on="0"/>
        <pt x="371" y="498" on="1"/>
        <pt x="395" y="495" on="1"/>
        <pt x="392" y="434" on="1"/>
        <pt x="312" y="443" on="0"/>
        <pt x="274" y="443" on="1"/>
        <pt x="189" y="443" on="0"/>
        <pt x="128" y="362" on="0"/>
        <pt x="128" y="143" on="0"/>
        <pt x="185" y="57" on="0"/>
        <pt x="275" y="57" on="1"/>
        <pt x="393" y="66" on="1"/>
        <pt x="396" y="4" on="1"/>
        <pt x="303" y="-10" on="0"/>
        <pt x="257" y="-10" on="1"/>
        <pt x="140" y="-10" on="0"/>
        <pt x="51" y="110" on="0"/>
        <pt x="51" y="395" on="0"/>
        <pt x="147" y="510" on="0"/>
      </contour>
      <contour>
        <pt x="83" y="592" on="1"/>
        <pt x="206" y="732" on="1"/>
        <pt x="257" y="732" on="1"/>
        <pt x="381" y="592" on="1"/>
        <pt x="306" y="592" on="1"/>
        <pt x="233" y="679" on="1"/>
        <pt x="158" y="592" on="1"/>
      </contour>
    </TTGlyph>
    <TTGlyph name="cdotaccent" xMin="51" yMin="-10" xMax="396" yMax="696">
      <contour>
        <pt x="259" y="510" on="1"/>
        <pt x="292" y="510" on="0"/>
        <pt x="371" y="498" on="1"/>
        <pt x="395" y="495" on="1"/>
        <pt x="392" y="434" on="1"/>
        <pt x="312" y="443" on="0"/>
        <pt x="274" y="443" on="1"/>
        <pt x="189" y="443" on="0"/>
        <pt x="128" y="362" on="0"/>
        <pt x="128" y="143" on="0"/>
        <pt x="185" y="57" on="0"/>
        <pt x="275" y="57" on="1"/>
        <pt x="393" y="66" on="1"/>
        <pt x="396" y="4" on="1"/>
        <pt x="303" y="-10" on="0"/>
        <pt x="257" y="-10" on="1"/>
        <pt x="140" y="-10" on="0"/>
        <pt x="51" y="110" on="0"/>
        <pt x="51" y="395" on="0"/>
        <pt x="147" y="510" on="0"/>
      </contour>
      <contour>
        <pt x="214" y="609" on="1"/>
        <pt x="214" y="696" on="1"/>
        <pt x="288" y="696" on="1"/>
        <pt x="288" y="609" on="1"/>
      </contour>
    </TTGlyph>
    <TTGlyph name="cedilla" xMin="42" yMin="-217" xMax="221" yMax="1">
      <contour>
        <pt x="221" y="-127" on="1"/>
        <pt x="221" y="-217" on="0"/>
        <pt x="128" y="-217" on="1"/>
        <pt x="82" y="-217" on="0"/>
        <pt x="54" y="-212" on="1"/>
        <pt x="42" y="-210" on="1"/>
        <pt x="45" y="-162" on="1"/>
        <pt x="84" y="-165" on="0"/>
        <pt x="111" y="-165" on="1"/>
        <pt x="155" y="-165" on="0"/>
        <pt x="155" y="-127" on="1"/>
        <pt x="155" y="-93" on="0"/>
        <pt x="111" y="-93" on="1"/>
        <pt x="69" y="-93" on="1"/>
        <pt x="69" y="1" on="1"/>
        <pt x="110" y="1" on="1"/>
        <pt x="110" y="-49" on="1"/>
        <pt x="169" y="-49" on="0"/>
        <pt x="221" y="-81" on="0"/>
      </contour>
    </TTGlyph>
    <TTGlyph name="cent" xMin="101" yMin="-81" xMax="445" yMax="583">
      <contour>
        <pt x="278" y="-81" on="1"/>
        <pt x="278" y="36" on="1"/>
        <pt x="185" y="41" on="0"/>
        <pt x="101" y="135" on="0"/>
        <pt x="101" y="357" on="0"/>
        <pt x="188" y="460" on="0"/>
        <pt x="278" y="465" on="1"/>
        <pt x="278" y="583" on="1"/>
        <pt x="343" y="583" on="1"/>
        <pt x="343" y="462" on="1"/>
        <pt x="382" y="462" on="0"/>
        <pt x="428" y="453" on="1"/>
        <pt x="444" y="450" on="1"/>
        <pt x="441" y="390" on="1"/>
        <pt x="362" y="397" on="0"/>
        <pt x="312" y="397" on="1"/>
        <pt x="238" y="397" on="0"/>
        <pt x="179" y="330" on="0"/>
        <pt x="179" y="166" on="0"/>
        <pt x="238" y="103" on="0"/>
        <pt x="318" y="103" on="1"/>
        <pt x="442" y="110" on="1"/>
        <pt x="445" y="49" on="1"/>
        <pt x="385" y="40" on="0"/>
        <pt x="343" y="38" on="1"/>
        <pt x="343" y="-81" on="1"/>
      </contour>
    </TTGlyph>
    <TTGlyph name="circumflex" xMin="-19" yMin="592" xMax="279" yMax="732">
      <contour>
        <pt x="-19" y="592" on="1"/>
        <pt x="104" y="732" on="1"/>
        <pt x="155" y="732" on="1"/>
        <pt x="279" y="592" on="1"/>
        <pt x="204" y="592" on="1"/>
        <pt x="131" y="679" on="1"/>
        <pt x="56" y="592" on="1"/>
      </contour>
    </TTGlyph>
    <TTGlyph name="circumflex.cap" xMin="54" yMin="791" xMax="387" yMax="926">
      <contour>
        <pt x="54" y="791" on="1"/>
        <pt x="188" y="926" on="1"/>
        <pt x="253" y="926" on="1"/>
        <pt x="387" y="791" on="1"/>
        <pt x="303" y="791" on="1"/>
        <pt x="221" y="871" on="1"/>
        <pt x="138" y="791" on="1"/>
      </contour>
    </TTGlyph>
    <TTGlyph name="colon" xMin="67" yMin="0" xMax="149" yMax="436">
      <contour>
        <pt x="67" y="322" on="1"/>
        <pt x="67" y="436" on="1"/>
        <pt x="149" y="436" on="1"/>
        <pt x="149" y="322" on="1"/>
      </contour>
      <contour>
        <pt x="67" y="0" on="1"/>
        <pt x="67" y="114" on="1"/>
        <pt x="149" y="114" on="1"/>
        <pt x="149" y="0" on="1"/>
      </contour>
    </TTGlyph>
    <TTGlyph name="comma" xMin="34" yMin="-123" xMax="163" yMax="107">
      <contour>
        <pt x="34" y="-123" on="1"/>
        <pt x="80" y="107" on="1"/>
        <pt x="163" y="107" on="1"/>
        <pt x="96" y="-123" on="1"/>
      </contour>
    </TTGlyph>
    <TTGlyph name="commaaccent" xMin="23" yMin="-285" xMax="138" yMax="-78">
      <contour>
        <pt x="23" y="-285" on="1"/>
        <pt x="64" y="-78" on="1"/>
        <pt x="138" y="-78" on="1"/>
        <pt x="88" y="-285" on="1"/>
      </contour>
    </TTGlyph>
    <TTGlyph name="copyright" xMin="59" yMin="161" xMax="586" yMax="707">
      <contour>
        <pt x="210" y="161" on="0"/>
        <pt x="59" y="319" on="0"/>
        <pt x="59" y="550" on="0"/>
        <pt x="209" y="707" on="0"/>
        <pt x="437" y="707" on="0"/>
        <pt x="586" y="548" on="0"/>
        <pt x="586" y="318" on="0"/>
        <pt x="438" y="161" on="0"/>
      </contour>
      <contour>
        <pt x="103" y="530" on="0"/>
        <pt x="103" y="338" on="0"/>
        <pt x="228" y="205" on="0"/>
        <pt x="416" y="205" on="0"/>
        <pt x="542" y="338" on="0"/>
        <pt x="542" y="530" on="0"/>
        <pt x="416" y="664" on="0"/>
        <pt x="229" y="664" on="0"/>
      </contour>
      <contour>
        <pt x="326" y="276" on="1"/>
        <pt x="261" y="276" on="0"/>
        <pt x="209" y="351" on="0"/>
        <pt x="209" y="516" on="0"/>
        <pt x="262" y="591" on="0"/>
        <pt x="327" y="591" on="1"/>
        <pt x="364" y="591" on="0"/>
        <pt x="394" y="584" on="1"/>
        <pt x="404" y="581" on="1"/>
        <pt x="400" y="528" on="1"/>
        <pt x="362" y="534" on="0"/>
        <pt x="293" y="534" on="0"/>
        <pt x="270" y="489" on="0"/>
        <pt x="270" y="382" on="0"/>
        <pt x="295" y="333" on="0"/>
        <pt x="330" y="333" on="1"/>
        <pt x="400" y="340" on="1"/>
        <pt x="404" y="288" on="1"/>
        <pt x="367" y="276" on="0"/>
      </contour>
    </TTGlyph>
    <TTGlyph name="currency" xMin="58" yMin="30" xMax="502" yMax="474">
      <contour>
        <pt x="379" y="101" on="1"/>
        <pt x="333" y="71" on="0"/>
        <pt x="225" y="71" on="0"/>
        <pt x="181" y="101" on="1"/>
        <pt x="111" y="30" on="1"/>
        <pt x="58" y="83" on="1"/>
        <pt x="128" y="153" on="1"/>
        <pt x="99" y="198" on="0"/>
        <pt x="99" y="304" on="0"/>
        <pt x="128" y="351" on="1"/>
        <pt x="58" y="421" on="1"/>
        <pt x="111" y="474" on="1"/>
        <pt x="181" y="403" on="1"/>
        <pt x="225" y="433" on="0"/>
        <pt x="333" y="433" on="0"/>
        <pt x="379" y="403" on="1"/>
        <pt x="449" y="474" on="1"/>
        <pt x="502" y="421" on="1"/>
        <pt x="431" y="351" on="1"/>
        <pt x="461" y="305" on="0"/>
        <pt x="461" y="197" on="0"/>
        <pt x="431" y="153" on="1"/>
        <pt x="502" y="83" on="1"/>
        <pt x="449" y="30" on="1"/>
      </contour>
      <contour>
        <pt x="233" y="137" on="0"/>
        <pt x="327" y="137" on="0"/>
        <pt x="395" y="205" on="0"/>
        <pt x="395" y="299" on="0"/>
        <pt x="327" y="367" on="0"/>
        <pt x="233" y="367" on="0"/>
        <pt x="165" y="299" on="0"/>
        <pt x="165" y="205" on="0"/>
      </contour>
    </TTGlyph>
    <TTGlyph name="d" xMin="50" yMin="-10" xMax="456" yMax="718">
      <contour>
        <pt x="456" y="718" on="1"/>
        <pt x="456" y="0" on="1"/>
        <pt x="382" y="0" on="1"/>
        <pt x="382" y="34" on="1"/>
        <pt x="305" y="-10" on="0"/>
        <pt x="230" y="-10" on="1"/>
        <pt x="190" y="-10" on="0"/>
        <pt x="130" y="10" on="0"/>
        <pt x="104" y="36" on="1"/>
        <pt x="50" y="90" on="0"/>
        <pt x="50" y="381" on="0"/>
        <pt x="147" y="510" on="0"/>
        <pt x="259" y="510" on="1"/>
        <pt x="317" y="510" on="0"/>
        <pt x="382" y="497" on="1"/>
        <pt x="382" y="718" on="1"/>
      </contour>
      <contour>
        <pt x="178" y="71" on="0"/>
        <pt x="214" y="57" on="0"/>
        <pt x="271" y="57" on="0"/>
        <pt x="342" y="76" on="0"/>
        <pt x="362" y="85" on="1"/>
        <pt x="382" y="94" on="1"/>
        <pt x="382" y="433" on="1"/>
        <pt x="318" y="445" on="0"/>
        <pt x="263" y="445" on="1"/>
        <pt x="187" y="445" on="0"/>
        <pt x="127" y="348" on="0"/>
        <pt x="127" y="246" on="1"/>
        <pt x="127" y="130" on="0"/>
        <pt x="162" y="90" on="1"/>
      </contour>
    </TTGlyph>
    <TTGlyph name="dagger" xMin="34" yMin="-76" xMax="444" yMax="692">
      <contour>
        <pt x="34" y="434" on="1"/>
        <pt x="34" y="500" on="1"/>
        <pt x="202" y="500" on="1"/>
        <pt x="202" y="692" on="1"/>
        <pt x="276" y="692" on="1"/>
        <pt x="276" y="500" on="1"/>
        <pt x="444" y="500" on="1"/>
        <pt x="444" y="434" on="1"/>
        <pt x="276" y="434" on="1"/>
        <pt x="272" y="-76" on="1"/>
        <pt x="206" y="-76" on="1"/>
        <pt x="202" y="434" on="1"/>
      </contour>
    </TTGlyph>
    <TTGlyph name="daggerdbl" xMin="55" yMin="-76" xMax="466" yMax="692">
      <contour>
        <pt x="223" y="-76" on="1"/>
        <pt x="223" y="116" on="1"/>
        <pt x="55" y="116" on="1"/>
        <pt x="55" y="181" on="1"/>
        <pt x="223" y="181" on="1"/>
        <pt x="223" y="434" on="1"/>
        <pt x="55" y="434" on="1"/>
        <pt x="55" y="500" on="1"/>
        <pt x="223" y="500" on="1"/>
        <pt x="223" y="692" on="1"/>
        <pt x="298" y="692" on="1"/>
        <pt x="298" y="500" on="1"/>
        <pt x="465" y="500" on="1"/>
        <pt x="465" y="434" on="1"/>
        <pt x="298" y="434" on="1"/>
        <pt x="298" y="181" on="1"/>
        <pt x="466" y="181" on="1"/>
        <pt x="466" y="116" on="1"/>
        <pt x="298" y="116" on="1"/>
        <pt x="298" y="-76" on="1"/>
      </contour>
    </TTGlyph>
    <TTGlyph name="dcaron" xMin="50" yMin="-10" xMax="632" yMax="718">
      <contour>
        <pt x="558" y="683" on="1"/>
        <pt x="632" y="683" on="1"/>
        <pt x="583" y="476" on="1"/>
        <pt x="518" y="476" on="1"/>
      </contour>
      <contour>
        <pt x="456" y="718" on="1"/>
        <pt x="456" y="0" on="1"/>
        <pt x="382" y="0" on="1"/>
        <pt x="382" y="34" on="1"/>
        <pt x="305" y="-10" on="0"/>
        <pt x="230" y="-10" on="1"/>
        <pt x="190" y="-10" on="0"/>
        <pt x="130" y="10" on="0"/>
        <pt x="104" y="36" on="1"/>
        <pt x="50" y="90" on="0"/>
        <pt x="50" y="381" on="0"/>
        <pt x="147" y="510" on="0"/>
        <pt x="259" y="510" on="1"/>
        <pt x="317" y="510" on="0"/>
        <pt x="382" y="497" on="1"/>
        <pt x="382" y="718" on="1"/>
      </contour>
      <contour>
        <pt x="178" y="71" on="0"/>
        <pt x="214" y="57" on="0"/>
        <pt x="271" y="57" on="0"/>
        <pt x="342" y="76" on="0"/>
        <pt x="362" y="85" on="1"/>
        <pt x="382" y="94" on="1"/>
        <pt x="382" y="433" on="1"/>
        <pt x="318" y="445" on="0"/>
        <pt x="263" y="445" on="1"/>
        <pt x="187" y="445" on="0"/>
        <pt x="127" y="348" on="0"/>
        <pt x="127" y="246" on="1"/>
        <pt x="127" y="130" on="0"/>
        <pt x="162" y="90" on="1"/>
      </contour>
    </TTGlyph>
    <TTGlyph name="dcroat" xMin="50" yMin="-10" xMax="479" yMax="718">
      <contour>
        <pt x="456" y="718" on="1"/>
        <pt x="456" y="688" on="1"/>
        <pt x="479" y="688" on="1"/>
        <pt x="479" y="622" on="1"/>
        <pt x="456" y="622" on="1"/>
        <pt x="456" y="0" on="1"/>
        <pt x="382" y="0" on="1"/>
        <pt x="382" y="34" on="1"/>
        <pt x="305" y="-10" on="0"/>
        <pt x="230" y="-10" on="1"/>
        <pt x="190" y="-10" on="0"/>
        <pt x="130" y="10" on="0"/>
        <pt x="104" y="36" on="1"/>
        <pt x="50" y="90" on="0"/>
        <pt x="50" y="381" on="0"/>
        <pt x="147" y="510" on="0"/>
        <pt x="259" y="510" on="1"/>
        <pt x="317" y="510" on="0"/>
        <pt x="382" y="497" on="1"/>
        <pt x="382" y="622" on="1"/>
        <pt x="188" y="622" on="1"/>
        <pt x="188" y="688" on="1"/>
        <pt x="382" y="688" on="1"/>
        <pt x="382" y="718" on="1"/>
      </contour>
      <contour>
        <pt x="178" y="71" on="0"/>
        <pt x="214" y="57" on="0"/>
        <pt x="271" y="57" on="0"/>
        <pt x="342" y="76" on="0"/>
        <pt x="362" y="85" on="1"/>
        <pt x="382" y="94" on="1"/>
        <pt x="382" y="433" on="1"/>
        <pt x="318" y="445" on="0"/>
        <pt x="263" y="445" on="1"/>
        <pt x="187" y="445" on="0"/>
        <pt x="127" y="348" on="0"/>
        <pt x="127" y="246" on="1"/>
        <pt x="127" y="130" on="0"/>
        <pt x="162" y="90" on="1"/>
      </contour>
    </TTGlyph>
    <TTGlyph name="degree" xMin="138" yMin="420" xMax="422" yMax="702">
      <contour>
        <pt x="138" y="498" on="0"/>
        <pt x="138" y="624" on="0"/>
        <pt x="217" y="702" on="0"/>
        <pt x="343" y="702" on="0"/>
        <pt x="422" y="624" on="0"/>
        <pt x="422" y="498" on="0"/>
        <pt x="343" y="420" on="0"/>
        <pt x="217" y="420" on="0"/>
      </contour>
      <contour>
        <pt x="239" y="654" on="0"/>
        <pt x="189" y="602" on="0"/>
        <pt x="189" y="519" on="0"/>
        <pt x="239" y="468" on="0"/>
        <pt x="321" y="468" on="0"/>
        <pt x="373" y="519" on="0"/>
        <pt x="373" y="602" on="0"/>
        <pt x="321" y="654" on="0"/>
      </contour>
    </TTGlyph>
    <TTGlyph name="dieresis" xMin="-12" yMin="621" xMax="261" yMax="711">
      <contour>
        <pt x="-12" y="621" on="1"/>
        <pt x="-12" y="711" on="1"/>
        <pt x="60" y="711" on="1"/>
        <pt x="60" y="621" on="1"/>
      </contour>
      <contour>
        <pt x="188" y="621" on="1"/>
        <pt x="188" y="711" on="1"/>
        <pt x="261" y="711" on="1"/>
        <pt x="261" y="621" on="1"/>
      </contour>
    </TTGlyph>
    <TTGlyph name="dieresis.cap" xMin="-22" yMin="808" xMax="254" yMax="898">
      <contour>
        <pt x="-22" y="808" on="1"/>
        <pt x="-22" y="898" on="1"/>
        <pt x="51" y="898" on="1"/>
        <pt x="51" y="808" on="1"/>
      </contour>
      <contour>
        <pt x="182" y="808" on="1"/>
        <pt x="182" y="898" on="1"/>
        <pt x="254" y="898" on="1"/>
        <pt x="254" y="808" on="1"/>
      </contour>
    </TTGlyph>
    <TTGlyph name="divide" xMin="120" yMin="30" xMax="439" yMax="402">
      <contour>
        <pt x="120" y="281" on="1"/>
        <pt x="120" y="354" on="1"/>
        <pt x="177" y="354" on="1"/>
        <pt x="177" y="402" on="1"/>
        <pt x="383" y="402" on="1"/>
        <pt x="383" y="354" on="1"/>
        <pt x="439" y="354" on="1"/>
        <pt x="439" y="281" on="1"/>
      </contour>
      <contour>
        <pt x="242" y="30" on="1"/>
        <pt x="242" y="131" on="1"/>
        <pt x="317" y="131" on="1"/>
        <pt x="317" y="30" on="1"/>
      </contour>
    </TTGlyph>
    <TTGlyph name="dollar" xMin="69" yMin="-124" xMax="494" yMax="798">
      <contour>
        <pt x="494" y="194" on="1"/>
        <pt x="494" y="-9" on="0"/>
        <pt x="283" y="-9" on="1"/>
        <pt x="268" y="-9" on="1"/>
        <pt x="254" y="-124" on="1"/>
        <pt x="203" y="-121" on="0"/>
        <pt x="203" y="-117" on="1"/>
        <pt x="217" y="-6" on="1"/>
        <pt x="74" y="12" on="1"/>
        <pt x="82" y="73" on="1"/>
        <pt x="159" y="62" on="0"/>
        <pt x="225" y="58" on="1"/>
        <pt x="258" y="308" on="1"/>
        <pt x="156" y="332" on="0"/>
        <pt x="69" y="407" on="0"/>
        <pt x="69" y="493" on="1"/>
        <pt x="69" y="670" on="0"/>
        <pt x="281" y="670" on="1"/>
        <pt x="296" y="670" on="0"/>
        <pt x="304" y="669" on="1"/>
        <pt x="321" y="798" on="1"/>
        <pt x="372" y="798" on="1"/>
        <pt x="355" y="666" on="1"/>
        <pt x="480" y="651" on="1"/>
        <pt x="474" y="589" on="1"/>
        <pt x="405" y="597" on="0"/>
        <pt x="347" y="602" on="1"/>
        <pt x="317" y="369" on="1"/>
        <pt x="414" y="346" on="0"/>
        <pt x="494" y="274" on="0"/>
      </contour>
      <contour>
        <pt x="143" y="497" on="1"/>
        <pt x="143" y="443" on="0"/>
        <pt x="197" y="397" on="0"/>
        <pt x="267" y="380" on="1"/>
        <pt x="296" y="605" on="1"/>
        <pt x="286" y="605" on="1"/>
        <pt x="143" y="605" on="0"/>
      </contour>
      <contour>
        <pt x="420" y="189" on="1"/>
        <pt x="420" y="237" on="0"/>
        <pt x="370" y="283" on="0"/>
        <pt x="308" y="298" on="1"/>
        <pt x="277" y="56" on="1"/>
        <pt x="279" y="56" on="1"/>
        <pt x="420" y="56" on="0"/>
      </contour>
    </TTGlyph>
    <TTGlyph name="dotaccent" xMin="81" yMin="609" xMax="155" yMax="696">
      <contour>
        <pt x="81" y="609" on="1"/>
        <pt x="81" y="696" on="1"/>
        <pt x="155" y="696" on="1"/>
        <pt x="155" y="609" on="1"/>
      </contour>
    </TTGlyph>
    <TTGlyph name="dotaccent.cap" xMin="81" yMin="801" xMax="155" yMax="888">
      <contour>
        <pt x="81" y="801" on="1"/>
        <pt x="81" y="888" on="1"/>
        <pt x="155" y="888" on="1"/>
        <pt x="155" y="801" on="1"/>
      </contour>
    </TTGlyph>
    <TTGlyph name="dotlessi" xMin="72" yMin="0" xMax="147" yMax="500">
      <contour>
        <pt x="72" y="0" on="1"/>
        <pt x="72" y="500" on="1"/>
        <pt x="147" y="500" on="1"/>
        <pt x="147" y="0" on="1"/>
      </contour>
    </TTGlyph>
    <TTGlyph name="dotlessj" xMin="-49" yMin="-223" xMax="147" yMax="500">
      <contour>
        <pt x="73" y="13" on="1"/>
        <pt x="73" y="500" on="1"/>
        <pt x="147" y="500" on="1"/>
        <pt x="147" y="12" on="1"/>
        <pt x="147" y="-80" on="0"/>
        <pt x="81" y="-172" on="0"/>
        <pt x="-19" y="-223" on="1"/>
        <pt x="-49" y="-165" on="1"/>
        <pt x="28" y="-120" on="0"/>
        <pt x="73" y="-56" on="0"/>
      </contour>
    </TTGlyph>
    <TTGlyph name="e" xMin="50" yMin="-10" xMax="460" yMax="510">
      <contour>
        <pt x="412" y="62" on="1"/>
        <pt x="441" y="65" on="1"/>
        <pt x="443" y="6" on="1"/>
        <pt x="329" y="-10" on="0"/>
        <pt x="248" y="-10" on="1"/>
        <pt x="140" y="-10" on="0"/>
        <pt x="50" y="115" on="0"/>
        <pt x="50" y="247" on="1"/>
        <pt x="50" y="510" on="0"/>
        <pt x="259" y="510" on="1"/>
        <pt x="360" y="510" on="0"/>
        <pt x="460" y="397" on="0"/>
        <pt x="460" y="276" on="1"/>
        <pt x="456" y="219" on="1"/>
        <pt x="126" y="219" on="1"/>
        <pt x="126" y="136" on="0"/>
        <pt x="186" y="56" on="0"/>
        <pt x="335" y="56" on="0"/>
      </contour>
      <contour>
        <pt x="385" y="279" on="1"/>
        <pt x="385" y="371" on="0"/>
        <pt x="326" y="447" on="0"/>
        <pt x="193" y="447" on="0"/>
        <pt x="126" y="367" on="0"/>
        <pt x="125" y="279" on="1"/>
      </contour>
    </TTGlyph>
    <TTGlyph name="eacute" xMin="50" yMin="-10" xMax="460" yMax="740">
      <contour>
        <pt x="412" y="62" on="1"/>
        <pt x="441" y="65" on="1"/>
        <pt x="443" y="6" on="1"/>
        <pt x="329" y="-10" on="0"/>
        <pt x="248" y="-10" on="1"/>
        <pt x="140" y="-10" on="0"/>
        <pt x="50" y="115" on="0"/>
        <pt x="50" y="247" on="1"/>
        <pt x="50" y="510" on="0"/>
        <pt x="259" y="510" on="1"/>
        <pt x="360" y="510" on="0"/>
        <pt x="460" y="397" on="0"/>
        <pt x="460" y="276" on="1"/>
        <pt x="456" y="219" on="1"/>
        <pt x="126" y="219" on="1"/>
        <pt x="126" y="136" on="0"/>
        <pt x="186" y="56" on="0"/>
        <pt x="335" y="56" on="0"/>
      </contour>
      <contour>
        <pt x="385" y="279" on="1"/>
        <pt x="385" y="371" on="0"/>
        <pt x="326" y="447" on="0"/>
        <pt x="193" y="447" on="0"/>
        <pt x="126" y="367" on="0"/>
        <pt x="125" y="279" on="1"/>
      </contour>
      <contour>
        <pt x="145" y="642" on="1"/>
        <pt x="361" y="740" on="1"/>
        <pt x="387" y="676" on="1"/>
        <pt x="166" y="591" on="1"/>
      </contour>
    </TTGlyph>
    <TTGlyph name="ebreve" xMin="50" yMin="-10" xMax="460" yMax="726">
      <contour>
        <pt x="412" y="62" on="1"/>
        <pt x="441" y="65" on="1"/>
        <pt x="443" y="6" on="1"/>
        <pt x="329" y="-10" on="0"/>
        <pt x="248" y="-10" on="1"/>
        <pt x="140" y="-10" on="0"/>
        <pt x="50" y="115" on="0"/>
        <pt x="50" y="247" on="1"/>
        <pt x="50" y="510" on="0"/>
        <pt x="259" y="510" on="1"/>
        <pt x="360" y="510" on="0"/>
        <pt x="460" y="397" on="0"/>
        <pt x="460" y="276" on="1"/>
        <pt x="456" y="219" on="1"/>
        <pt x="126" y="219" on="1"/>
        <pt x="126" y="136" on="0"/>
        <pt x="186" y="56" on="0"/>
        <pt x="335" y="56" on="0"/>
      </contour>
      <contour>
        <pt x="385" y="279" on="1"/>
        <pt x="385" y="371" on="0"/>
        <pt x="326" y="447" on="0"/>
        <pt x="193" y="447" on="0"/>
        <pt x="126" y="367" on="0"/>
        <pt x="125" y="279" on="1"/>
      </contour>
      <contour>
        <pt x="171" y="688" on="0"/>
        <pt x="217" y="642" on="0"/>
        <pt x="296" y="642" on="0"/>
        <pt x="342" y="688" on="0"/>
        <pt x="343" y="726" on="1"/>
        <pt x="405" y="726" on="1"/>
        <pt x="402" y="666" on="0"/>
        <pt x="322" y="586" on="0"/>
        <pt x="191" y="586" on="0"/>
        <pt x="111" y="666" on="0"/>
        <pt x="108" y="726" on="1"/>
        <pt x="169" y="726" on="1"/>
      </contour>
    </TTGlyph>
    <TTGlyph name="ecaron" xMin="50" yMin="-10" xMax="460" yMax="732">
      <contour>
        <pt x="412" y="62" on="1"/>
        <pt x="441" y="65" on="1"/>
        <pt x="443" y="6" on="1"/>
        <pt x="329" y="-10" on="0"/>
        <pt x="248" y="-10" on="1"/>
        <pt x="140" y="-10" on="0"/>
        <pt x="50" y="115" on="0"/>
        <pt x="50" y="247" on="1"/>
        <pt x="50" y="510" on="0"/>
        <pt x="259" y="510" on="1"/>
        <pt x="360" y="510" on="0"/>
        <pt x="460" y="397" on="0"/>
        <pt x="460" y="276" on="1"/>
        <pt x="456" y="219" on="1"/>
        <pt x="126" y="219" on="1"/>
        <pt x="126" y="136" on="0"/>
        <pt x="186" y="56" on="0"/>
        <pt x="335" y="56" on="0"/>
      </contour>
      <contour>
        <pt x="385" y="279" on="1"/>
        <pt x="385" y="371" on="0"/>
        <pt x="326" y="447" on="0"/>
        <pt x="193" y="447" on="0"/>
        <pt x="126" y="367" on="0"/>
        <pt x="125" y="279" on="1"/>
      </contour>
      <contour>
        <pt x="227" y="592" on="1"/>
        <pt x="104" y="732" on="1"/>
        <pt x="178" y="732" on="1"/>
        <pt x="253" y="645" on="1"/>
        <pt x="327" y="732" on="1"/>
        <pt x="402" y="732" on="1"/>
        <pt x="277" y="592" on="1"/>
      </contour>
    </TTGlyph>
    <TTGlyph name="ecircumflex" xMin="50" yMin="-10" xMax="460" yMax="732">
      <contour>
        <pt x="412" y="62" on="1"/>
        <pt x="441" y="65" on="1"/>
        <pt x="443" y="6" on="1"/>
        <pt x="329" y="-10" on="0"/>
        <pt x="248" y="-10" on="1"/>
        <pt x="140" y="-10" on="0"/>
        <pt x="50" y="115" on="0"/>
        <pt x="50" y="247" on="1"/>
        <pt x="50" y="510" on="0"/>
        <pt x="259" y="510" on="1"/>
        <pt x="360" y="510" on="0"/>
        <pt x="460" y="397" on="0"/>
        <pt x="460" y="276" on="1"/>
        <pt x="456" y="219" on="1"/>
        <pt x="126" y="219" on="1"/>
        <pt x="126" y="136" on="0"/>
        <pt x="186" y="56" on="0"/>
        <pt x="335" y="56" on="0"/>
      </contour>
      <contour>
        <pt x="385" y="279" on="1"/>
        <pt x="385" y="371" on="0"/>
        <pt x="326" y="447" on="0"/>
        <pt x="193" y="447" on="0"/>
        <pt x="126" y="367" on="0"/>
        <pt x="125" y="279" on="1"/>
      </contour>
      <contour>
        <pt x="112" y="592" on="1"/>
        <pt x="235" y="732" on="1"/>
        <pt x="286" y="732" on="1"/>
        <pt x="410" y="592" on="1"/>
        <pt x="335" y="592" on="1"/>
        <pt x="262" y="679" on="1"/>
        <pt x="187" y="592" on="1"/>
      </contour>
    </TTGlyph>
    <TTGlyph name="edieresis" xMin="50" yMin="-10" xMax="460" yMax="711">
      <contour>
        <pt x="412" y="62" on="1"/>
        <pt x="441" y="65" on="1"/>
        <pt x="443" y="6" on="1"/>
        <pt x="329" y="-10" on="0"/>
        <pt x="248" y="-10" on="1"/>
        <pt x="140" y="-10" on="0"/>
        <pt x="50" y="115" on="0"/>
        <pt x="50" y="247" on="1"/>
        <pt x="50" y="510" on="0"/>
        <pt x="259" y="510" on="1"/>
        <pt x="360" y="510" on="0"/>
        <pt x="460" y="397" on="0"/>
        <pt x="460" y="276" on="1"/>
        <pt x="456" y="219" on="1"/>
        <pt x="126" y="219" on="1"/>
        <pt x="126" y="136" on="0"/>
        <pt x="186" y="56" on="0"/>
        <pt x="335" y="56" on="0"/>
      </contour>
      <contour>
        <pt x="385" y="279" on="1"/>
        <pt x="385" y="371" on="0"/>
        <pt x="326" y="447" on="0"/>
        <pt x="193" y="447" on="0"/>
        <pt x="126" y="367" on="0"/>
        <pt x="125" y="279" on="1"/>
      </contour>
      <contour>
        <pt x="120" y="621" on="1"/>
        <pt x="120" y="711" on="1"/>
        <pt x="192" y="711" on="1"/>
        <pt x="192" y="621" on="1"/>
      </contour>
      <contour>
        <pt x="320" y="621" on="1"/>
        <pt x="320" y="711" on="1"/>
        <pt x="393" y="711" on="1"/>
        <pt x="393" y="621" on="1"/>
      </contour>
    </TTGlyph>
    <TTGlyph name="edotaccent" xMin="50" yMin="-10" xMax="460" yMax="696">
      <contour>
        <pt x="412" y="62" on="1"/>
        <pt x="441" y="65" on="1"/>
        <pt x="443" y="6" on="1"/>
        <pt x="329" y="-10" on="0"/>
        <pt x="248" y="-10" on="1"/>
        <pt x="140" y="-10" on="0"/>
        <pt x="50" y="115" on="0"/>
        <pt x="50" y="247" on="1"/>
        <pt x="50" y="510" on="0"/>
        <pt x="259" y="510" on="1"/>
        <pt x="360" y="510" on="0"/>
        <pt x="460" y="397" on="0"/>
        <pt x="460" y="276" on="1"/>
        <pt x="456" y="219" on="1"/>
        <pt x="126" y="219" on="1"/>
        <pt x="126" y="136" on="0"/>
        <pt x="186" y="56" on="0"/>
        <pt x="335" y="56" on="0"/>
      </contour>
      <contour>
        <pt x="385" y="279" on="1"/>
        <pt x="385" y="371" on="0"/>
        <pt x="326" y="447" on="0"/>
        <pt x="193" y="447" on="0"/>
        <pt x="126" y="367" on="0"/>
        <pt x="125" y="279" on="1"/>
      </contour>
      <contour>
        <pt x="217" y="609" on="1"/>
        <pt x="217" y="696" on="1"/>
        <pt x="291" y="696" on="1"/>
        <pt x="291" y="609" on="1"/>
      </contour>
    </TTGlyph>
    <TTGlyph name="egrave" xMin="50" yMin="-10" xMax="460" yMax="741">
      <contour>
        <pt x="412" y="62" on="1"/>
        <pt x="441" y="65" on="1"/>
        <pt x="443" y="6" on="1"/>
        <pt x="329" y="-10" on="0"/>
        <pt x="248" y="-10" on="1"/>
        <pt x="140" y="-10" on="0"/>
        <pt x="50" y="115" on="0"/>
        <pt x="50" y="247" on="1"/>
        <pt x="50" y="510" on="0"/>
        <pt x="259" y="510" on="1"/>
        <pt x="360" y="510" on="0"/>
        <pt x="460" y="397" on="0"/>
        <pt x="460" y="276" on="1"/>
        <pt x="456" y="219" on="1"/>
        <pt x="126" y="219" on="1"/>
        <pt x="126" y="136" on="0"/>
        <pt x="186" y="56" on="0"/>
        <pt x="335" y="56" on="0"/>
      </contour>
      <contour>
        <pt x="385" y="279" on="1"/>
        <pt x="385" y="371" on="0"/>
        <pt x="326" y="447" on="0"/>
        <pt x="193" y="447" on="0"/>
        <pt x="126" y="367" on="0"/>
        <pt x="125" y="279" on="1"/>
      </contour>
      <contour>
        <pt x="147" y="741" on="1"/>
        <pt x="363" y="643" on="1"/>
        <pt x="342" y="592" on="1"/>
        <pt x="121" y="677" on="1"/>
      </contour>
    </TTGlyph>
</ttFont>
